<svg width="46" height="46" viewBox="0 0 46 46" fill="none" xmlns="http://www.w3.org/2000/svg">
<circle cx="22.6389" cy="22.912" r="22.5" fill="#EA0003"/>
<path d="M9.90892 19.912V12.612H12.3389C12.8256 12.612 13.2489 12.7054 13.6089 12.892C13.9756 13.0787 14.2589 13.342 14.4589 13.682C14.6589 14.0154 14.7589 14.4087 14.7589 14.862C14.7589 15.3087 14.6556 15.702 14.4489 16.042C14.2489 16.382 13.9689 16.6454 13.6089 16.832C13.2489 17.0187 12.8256 17.112 12.3389 17.112H11.1589V19.912H9.90892ZM11.1589 15.982H12.3389C12.6856 15.982 12.9622 15.882 13.1689 15.682C13.3822 15.4754 13.4889 15.202 13.4889 14.862C13.4889 14.5154 13.3822 14.242 13.1689 14.042C12.9622 13.842 12.6856 13.742 12.3389 13.742H11.1589V15.982ZM16.485 19.912L18.325 12.612H19.935L21.785 19.912H20.505L20.105 18.142H18.165L17.765 19.912H16.485ZM18.395 17.122H19.875L19.435 15.162C19.3617 14.8354 19.2983 14.542 19.245 14.282C19.1917 14.0154 19.155 13.822 19.135 13.702C19.115 13.822 19.0783 14.0154 19.025 14.282C18.9783 14.542 18.915 14.832 18.835 15.152L18.395 17.122ZM12.1789 33.012C11.7122 33.012 11.3022 32.9254 10.9489 32.752C10.6022 32.572 10.3322 32.322 10.1389 32.002C9.95225 31.6754 9.85892 31.292 9.85892 30.852V27.672C9.85892 27.2254 9.95225 26.842 10.1389 26.522C10.3322 26.202 10.6022 25.9554 10.9489 25.782C11.3022 25.602 11.7122 25.512 12.1789 25.512C12.6522 25.512 13.0589 25.602 13.3989 25.782C13.7456 25.9554 14.0156 26.202 14.2089 26.522C14.4022 26.842 14.4989 27.2254 14.4989 27.672H13.2389C13.2389 27.3254 13.1456 27.062 12.9589 26.882C12.7789 26.702 12.5189 26.612 12.1789 26.612C11.8389 26.612 11.5756 26.702 11.3889 26.882C11.2022 27.062 11.1089 27.322 11.1089 27.662V30.852C11.1089 31.192 11.2022 31.4554 11.3889 31.642C11.5756 31.8287 11.8389 31.922 12.1789 31.922C12.5189 31.922 12.7789 31.8287 12.9589 31.642C13.1456 31.4554 13.2389 31.192 13.2389 30.852V30.112H11.9989V29.032H14.4989V30.852C14.4989 31.292 14.4022 31.6754 14.2089 32.002C14.0156 32.322 13.7456 32.572 13.3989 32.752C13.0589 32.9254 12.6522 33.012 12.1789 33.012ZM19.135 33.012C18.6683 33.012 18.2617 32.9254 17.915 32.752C17.575 32.572 17.3117 32.322 17.125 32.002C16.945 31.6754 16.855 31.292 16.855 30.852V27.672C16.855 27.232 16.945 26.852 17.125 26.532C17.3117 26.2054 17.575 25.9554 17.915 25.782C18.2617 25.602 18.6683 25.512 19.135 25.512C19.6083 25.512 20.015 25.602 20.355 25.782C20.695 25.9554 20.955 26.2054 21.135 26.532C21.3217 26.852 21.415 27.2287 21.415 27.662V30.852C21.415 31.292 21.3217 31.6754 21.135 32.002C20.955 32.322 20.695 32.572 20.355 32.752C20.015 32.9254 19.6083 33.012 19.135 33.012ZM19.135 31.912C19.475 31.912 19.7317 31.822 19.905 31.642C20.0783 31.4554 20.165 31.192 20.165 30.852V27.672C20.165 27.3254 20.0783 27.062 19.905 26.882C19.7317 26.702 19.475 26.612 19.135 26.612C18.795 26.612 18.5383 26.702 18.365 26.882C18.1917 27.062 18.105 27.3254 18.105 27.672V30.852C18.105 31.192 18.1917 31.4554 18.365 31.642C18.545 31.822 18.8017 31.912 19.135 31.912ZM25.5011 32.912V26.772H23.5911V25.612H28.6711V26.772H26.7611V32.912H25.5011ZM30.8972 32.912V25.612H32.1472V28.542H34.1072V25.612H35.3572V32.912H34.1072V29.702H32.1472V32.912H30.8972Z" fill="white"/>
<circle cx="25.9398" cy="16.2422" r="1.6573" fill="white"/>
</svg>
