<svg width="1700" height="820" viewBox="0 0 1700 820" fill="none" xmlns="http://www.w3.org/2000/svg">
<rect width="1700" height="820" fill="#1D1D1D"/>
<g clip-path="url(#clip0_272_4)">
<path d="M836.333 634.031C817.963 624.324 809.767 624.245 794.714 635.723C792.464 635.178 790.214 634.604 787.979 633.988C786.238 626.288 789.018 618.517 795.889 612.581C805.368 604.415 821.646 603.017 830.831 609.598C838.769 615.262 840.647 623.636 836.333 634.031ZM903.738 600.974C894.883 596.178 881.184 598.852 871.748 607.226C862.57 615.37 859.726 625.564 864.182 637.651C876.756 621.592 891.236 614.28 910.201 624.317C913.353 612.036 911.29 605.046 903.738 600.974ZM755.115 612.739C748.179 607.304 737.676 605.885 728.892 608.516C739.79 615.133 751.275 620.883 763.24 625.657C762.416 620.782 759.693 616.33 755.115 612.739ZM966.15 587.804C954.873 586.557 946.712 593.016 940.149 601.304C934.246 608.745 930.914 616.882 933.801 626.819C935.908 626.009 937.986 625.177 940.056 624.317C947.837 615.183 956.255 608.122 968.679 609.95C971.251 608.43 973.816 606.874 976.302 605.283C978.409 595.827 974.74 588.765 966.15 587.804ZM951.849 545.299C952.408 534.409 948.618 527.003 939.211 524.085C927.776 520.53 918.448 525.483 911.032 533.957C903.602 542.474 900.063 552.174 903.373 562.189C910.158 555.572 916.155 548.023 923.749 542.775C932.612 536.617 942.435 539.492 951.849 545.299ZM987.307 464.661C986.526 454.66 984.162 446.294 974.927 441.906C966.716 437.985 959.272 440.35 952.709 446.057C943.624 453.95 940.579 465.392 944.09 477.952C957.165 454.56 969.66 450.48 987.307 464.661ZM975.177 552.468C986.075 528.717 995.69 522.809 1013.26 529.62C1013.38 515.131 1005.95 507.417 995.439 510.17C979.877 514.228 968.822 537.298 975.177 552.468ZM1039.05 449.771C1038.12 445.792 1038.25 442.128 1036.51 439.884C1032.83 435.124 1028.43 427.955 1023.88 427.618C1018.62 427.209 1011.38 431.891 1007.65 436.493C1001.09 444.659 1000.88 455.018 1003.02 466.288C1013.79 441.813 1021.94 437.985 1039.05 449.771ZM1027.57 345.69C1018.6 347.037 1014.35 358.766 1017.07 374.732C1027.33 357.712 1033.11 357.017 1048.08 371.785C1045.78 354.873 1037.11 344.284 1027.57 345.69ZM839.471 536.782C827.686 544.266 822.95 558.16 827.915 570.749C838.074 542.166 848.434 535.341 874.027 541.528C864.39 530.789 851.25 529.319 839.471 536.782ZM758.561 541.499C747.656 549.199 744.196 563.006 750.486 573.674C752.7 548.597 768.448 538.897 795.251 546.109C785.694 535.004 770.469 533.083 758.561 541.499ZM913.59 460.474C905.752 451.047 893.565 448.839 882.875 454.61C870.473 461.306 863.48 479.63 870.194 491.738C874.213 464.338 888.069 454.617 913.59 460.474ZM996.585 366.53C990.065 359.598 983.18 356.78 974.934 361.619C965.297 367.261 961.744 381.463 966.379 394.131C970.735 370.373 976.825 364.637 996.585 366.53ZM1034.17 277.404C1034.36 276.622 1034.57 275.841 1034.76 275.052C1030.03 274.12 1023.5 270.765 1020.88 272.708C1013.09 278.515 1015.97 287.118 1018.58 297.735C1019.42 279.999 1022.26 276.759 1034.17 277.404ZM1099.76 410.233C1099.76 548.059 987.715 660.155 849.996 660.155C712.263 660.155 600.229 548.037 600.229 410.233C600.229 327.925 640.222 254.771 701.767 209.219C743.136 178.227 794.47 159.845 850.004 159.845C903.839 159.845 953.726 177.13 994.407 206.415C1058.13 251.753 1099.76 326.218 1099.76 410.233ZM1060.29 509.188C1060.21 505.166 1057.95 500.671 1056.94 496.463C1050.11 513.095 1048.85 532.072 1022.42 535.061C1027.32 541.306 1030.46 548.984 1034.38 549.407C1034.92 549.464 1035.5 549.45 1036.1 549.414C1045.44 536.911 1053.57 523.44 1060.29 509.188ZM1077.39 458.345C1079.33 449.133 1080.73 439.727 1081.54 430.156C1080.76 424.062 1078.92 418.42 1075.91 414.348C1073.13 429.023 1076.66 447.34 1053.42 451.663C1054.76 454.746 1055.84 458.796 1058.05 462.116C1062.51 468.833 1068.63 469.02 1074.04 463.184C1075.31 461.836 1076.44 460.18 1077.39 458.345ZM850.004 642.791C902.764 642.791 951.462 625.091 990.517 595.346C988.74 596.687 986.963 598.02 985.136 599.318C985.623 598.465 986.111 597.597 986.619 596.78C991.076 589.69 995.79 580.743 1002.67 577.581C1020.89 569.265 1023.93 556.59 1020.84 539.757C1017.74 522.788 1020.21 507.826 1032.82 495.33C1046.67 481.601 1049.79 465.098 1045.89 446.487C1042.97 432.593 1047 420.162 1056.52 409.996C1061.93 404.189 1068.29 398.963 1075.03 394.762C1077.5 393.214 1079.64 391.543 1081.48 389.765C1080.13 374.481 1077.32 359.619 1073.16 345.324C1068.22 342.37 1064.7 344.944 1060.3 352.443C1059.82 352.206 1058.93 351.955 1058.93 351.726C1059.03 343.438 1055.36 331.516 1065.41 329.201C1066.23 329.014 1066.99 328.943 1067.7 328.907C1034.69 240.669 949.564 177.689 850.004 177.689C721.842 177.689 617.596 282.014 617.596 410.247C617.596 466.51 637.672 518.164 671.016 558.418C671.195 550.296 674.828 543.951 681.512 539.657C692.818 532.387 705.07 534.323 718.489 547.328C706.646 542.13 697.146 540.23 687.667 545.507C680.61 549.443 676.64 555.142 674.763 562.82C685.102 574.699 696.637 585.517 709.154 595.081C715.501 599.877 722.079 604.401 728.899 608.523C728.849 608.545 728.821 608.559 728.763 608.573C764.085 630.267 805.611 642.791 850.004 642.791Z" fill="black"/>
</g>
<defs>
<clipPath id="clip0_272_4">
<rect width="500" height="500.31" fill="white" transform="translate(600 159.845)"/>
</clipPath>
</defs>
</svg>
