<svg width="1700" height="820" viewBox="0 0 1700 820" fill="none" xmlns="http://www.w3.org/2000/svg">
<rect width="1700" height="820" fill="#1D1D1D"/>
<g clip-path="url(#clip0_272_4)">
<path d="M1098.62 436.156C1098.4 438.247 1097.94 440.269 1097.68 442.35C1096.83 448.854 1095.94 455.358 1094.6 461.692C1094.2 463.583 1093.6 465.404 1093.16 467.275C1091.63 473.749 1090.03 480.194 1088 486.457C1087.56 487.838 1087 489.159 1086.51 490.53C1084.22 497.234 1081.77 503.858 1078.94 510.292C1078.57 511.123 1078.13 511.913 1077.76 512.744C1074.63 519.648 1071.27 526.432 1067.54 532.986C1067.34 533.346 1067.1 533.687 1066.9 534.037C1062.9 541.041 1058.6 547.785 1053.97 554.299L1053.89 554.41C1044.26 567.953 1033.32 580.514 1021.23 591.913C1016.6 596.275 1011.9 600.568 1006.95 604.571C997.96 611.758 988.487 618.321 978.6 624.213C976.33 625.584 974.12 627.044 971.81 628.345C968.2 630.347 964.44 632.178 960.72 634.029C957.62 635.57 954.53 637.131 951.35 638.542C947.84 640.103 944.25 641.543 940.66 642.924C937.07 644.305 933.39 645.696 929.66 646.927C926.253 648.081 922.813 649.162 919.34 650.169C915.18 651.37 910.97 652.43 906.72 653.411C903.5 654.161 900.3 654.932 897.04 655.552C892.04 656.493 887.04 657.203 882.04 657.844C879.33 658.194 876.65 658.654 873.91 658.914C866.03 659.665 858.07 660.125 850 660.125C841.93 660.125 833.73 659.665 825.74 658.904C822.74 658.614 819.91 658.084 816.98 657.704C812.06 657.053 807.13 656.393 802.3 655.462C798.67 654.752 795.12 653.841 791.54 652.971C787.61 652.03 783.68 651.079 779.82 649.969C775.96 648.858 771.92 647.467 768.02 646.096C764.8 644.976 761.58 643.825 758.42 642.584C754.187 640.91 750.017 639.122 745.91 637.221C743.323 636.033 740.763 634.799 738.23 633.518C733.8 631.287 729.43 628.976 725.16 626.514C723.21 625.383 721.31 624.193 719.39 623.012C714.77 620.16 710.2 617.248 705.78 614.117C704.56 613.256 703.4 612.325 702.2 611.435C697.3 607.823 692.46 604.13 687.84 600.188C682.94 595.995 678.1 591.733 673.54 587.18C650.893 564.592 632.777 537.875 620.17 508.471C620.04 508.161 619.86 507.871 619.73 507.56C616.89 500.876 614.45 493.982 612.19 487.018C611.92 486.177 611.54 485.377 611.28 484.526C609.28 478.042 607.66 471.388 606.17 464.694C605.85 463.283 605.39 461.932 605.09 460.501C603.77 454.067 602.9 447.493 602.09 440.859C601.87 439.098 601.47 437.387 601.29 435.616C599.562 418.586 599.562 401.424 601.29 384.394C601.47 382.623 601.87 380.912 602.09 379.151C602.9 372.547 603.77 365.953 605.09 359.509C605.38 358.088 605.85 356.737 606.17 355.316C607.66 348.622 609.26 341.958 611.28 335.484C611.54 334.633 611.92 333.833 612.19 332.992C614.45 325.988 616.89 319.134 619.73 312.45C619.86 312.139 620.04 311.849 620.17 311.539C632.777 282.135 650.893 255.418 673.54 232.83C678.1 228.277 682.94 224.015 687.84 219.822C692.46 215.87 697.3 212.187 702.2 208.575C703.4 207.695 704.56 206.764 705.78 205.893C710.19 202.762 714.78 199.89 719.39 196.998C721.31 195.817 723.21 194.627 725.16 193.496C729.43 191.014 733.81 188.703 738.23 186.492C740.77 185.217 743.33 183.983 745.91 182.789C750.023 180.895 754.193 179.107 758.42 177.426C761.58 176.175 764.8 175.034 768.02 173.914C771.92 172.553 775.83 171.212 779.82 170.051C783.81 168.891 787.61 167.98 791.54 167.049C795.11 166.189 798.67 165.268 802.3 164.568C807.13 163.637 812.05 162.977 816.98 162.327C819.9 161.936 822.78 161.406 825.74 161.126C833.73 160.305 841.81 159.845 850 159.845C858.19 159.845 866.34 160.295 874.36 161.076C877.48 161.376 880.52 161.946 883.61 162.367C888.38 163.007 893.15 163.627 897.83 164.538C901.76 165.308 905.59 166.309 909.45 167.26C913.08 168.15 916.73 169.001 920.29 170.051C924.68 171.352 928.99 172.843 933.29 174.364C936.09 175.365 938.89 176.365 941.64 177.426C946.37 179.307 951.02 181.348 955.64 183.5C957.71 184.5 959.77 185.451 961.8 186.502C966.8 189.013 971.7 191.675 976.5 194.506C977.89 195.327 979.26 196.177 980.63 197.018C985.83 200.23 990.93 203.562 995.87 207.134C996.6 207.665 997.3 208.215 998.03 208.745C1003.41 212.748 1008.67 216.85 1013.71 221.233C1018.75 225.616 1023.45 229.838 1028.01 234.461C1044.78 251.466 1059.04 270.775 1070.36 291.807L1070.48 292.047C1074.21 298.998 1077.61 306.136 1080.7 313.46C1081.04 314.261 1081.27 315.111 1081.6 315.922C1084.3 322.556 1086.82 329.3 1088.96 336.204C1089.57 338.205 1089.96 340.257 1090.52 342.258C1092.17 348.102 1093.81 353.945 1095.03 359.949C1095.8 363.741 1096.2 367.664 1096.79 371.516C1097.47 375.869 1098.32 380.171 1098.79 384.594C1100.53 401.746 1100.5 419.031 1098.7 436.176L1098.62 436.156ZM698.42 250.711C676.804 271.223 659.59 295.924 647.826 323.31C636.062 350.696 629.995 380.192 629.995 410C629.995 439.808 636.062 469.304 647.826 496.69C659.59 524.076 676.804 548.777 698.42 569.289C701.1 566.837 703.69 564.206 706.21 561.474L691.82 551.888C689.38 550.267 689.45 546.805 691.97 544.153C693.051 542.887 694.522 542.017 696.153 541.682C697.783 541.347 699.478 541.565 700.97 542.302L714.72 551.458C719.874 544.75 724.572 537.703 728.78 530.365L713.18 527.533C712.459 527.339 711.79 526.987 711.223 526.501C710.655 526.015 710.204 525.408 709.902 524.725C709.6 524.041 709.455 523.299 709.477 522.552C709.499 521.805 709.688 521.073 710.03 520.408C710.492 518.827 711.479 517.45 712.828 516.504C714.176 515.558 715.807 515.1 717.45 515.205L735.25 518.437C739.272 510.324 742.788 501.969 745.78 493.422L733.12 494.332C730.12 494.542 727.94 491.811 728.12 488.238C728.138 486.604 728.723 485.027 729.773 483.775C730.823 482.524 732.275 481.675 733.88 481.374L749.88 480.224C752.352 471.573 754.355 462.794 755.88 453.927L743.38 454.828C740.38 455.038 738.2 452.316 738.38 448.734C738.398 447.1 738.982 445.522 740.033 444.271C741.083 443.019 742.535 442.171 744.14 441.87L757.91 440.869C758.82 432.994 759.41 424.969 759.62 416.854L745.14 421.717C744.407 421.891 743.645 421.905 742.906 421.758C742.166 421.611 741.468 421.306 740.857 420.864C740.246 420.423 739.737 419.855 739.365 419.199C738.993 418.544 738.766 417.816 738.7 417.064C738.269 415.497 738.405 413.827 739.086 412.351C739.767 410.875 740.948 409.688 742.42 408.999L759.62 403.226C759.41 395.081 758.69 387.146 757.73 379.331L743.94 382.443C741.09 383.083 738.69 380.192 738.58 375.969C738.37 374.161 738.742 372.334 739.641 370.752C740.54 369.17 741.92 367.917 743.58 367.173L755.51 364.482C754.11 356.807 752.51 349.252 750.51 341.938L735.93 346.941C735.196 347.132 734.429 347.16 733.684 347.023C732.938 346.886 732.231 346.589 731.612 346.15C730.993 345.712 730.477 345.144 730.1 344.485C729.723 343.827 729.495 343.094 729.43 342.338C729.027 340.74 729.195 339.05 729.905 337.563C730.616 336.075 731.824 334.883 733.32 334.193L746.95 329.54C744.21 321.18 740.974 312.99 737.26 305.015L730.26 311.799C728.845 312.883 727.075 313.396 725.3 313.235C723.526 313.073 721.876 312.25 720.68 310.929C719.999 310.405 719.431 309.748 719.01 308.999C718.59 308.25 718.324 307.423 718.231 306.569C718.138 305.715 718.218 304.85 718.467 304.028C718.716 303.205 719.129 302.442 719.68 301.783L730.29 291.527C727.68 286.934 724.94 282.521 722.04 278.278L711.84 288.495C710.471 289.589 708.731 290.109 706.987 289.944C705.243 289.78 703.631 288.945 702.49 287.614C701.136 286.518 700.271 284.93 700.084 283.198C699.896 281.465 700.402 279.729 701.49 278.368L713.22 266.621C708.672 260.972 703.726 255.655 698.42 250.711ZM850 189.864C799.921 189.819 751.341 206.955 712.36 238.414C717.455 243.171 722.263 248.226 726.76 253.553L746.06 249.801C747.705 249.663 749.347 250.103 750.703 251.045C752.059 251.987 753.045 253.373 753.49 254.964C753.817 255.648 753.991 256.396 753.998 257.154C754.006 257.913 753.847 258.663 753.533 259.354C753.22 260.044 752.759 260.658 752.183 261.151C751.607 261.644 750.93 262.005 750.2 262.208L735.5 265.07C740.801 272.493 745.618 280.251 749.92 288.295L767.64 284.852C769.285 284.714 770.927 285.154 772.283 286.097C773.639 287.039 774.625 288.425 775.07 290.016C775.399 290.7 775.574 291.449 775.582 292.208C775.591 292.968 775.432 293.72 775.119 294.412C774.805 295.104 774.343 295.718 773.767 296.212C773.19 296.706 772.512 297.067 771.78 297.27L756 300.332C760.299 309.707 764 319.346 767.08 329.19L783.61 326.798C785.556 326.783 787.457 327.386 789.038 328.521C790.62 329.655 791.8 331.263 792.41 333.112C793.93 337.115 792.41 340.697 789.12 341.177L771.29 343.759C773.24 351.354 774.81 359.168 776.12 367.103L792.73 368.104C794.349 368.37 795.82 369.204 796.881 370.456C797.942 371.708 798.523 373.297 798.52 374.938C798.645 375.69 798.607 376.46 798.408 377.196C798.209 377.932 797.854 378.617 797.368 379.204C796.881 379.79 796.274 380.265 795.588 380.596C794.901 380.927 794.152 381.107 793.39 381.122L777.96 380.202C778.84 387.796 779.49 395.491 779.68 403.366L796.38 408.969C797.852 409.658 799.033 410.845 799.714 412.321C800.395 413.797 800.532 415.467 800.1 417.034C800.034 417.786 799.808 418.514 799.435 419.169C799.063 419.825 798.554 420.393 797.943 420.834C797.333 421.276 796.634 421.581 795.895 421.728C795.156 421.875 794.393 421.861 793.66 421.687L779.66 416.984C779.43 425.94 778.73 434.725 777.66 443.361C777.932 443.422 778.197 443.513 778.45 443.631L796.23 455.258C797.468 456.302 798.29 457.755 798.549 459.354C798.808 460.953 798.485 462.592 797.64 463.973C797.376 464.683 796.965 465.329 796.433 465.869C795.902 466.408 795.262 466.829 794.556 467.103C793.851 467.377 793.095 467.499 792.339 467.459C791.583 467.42 790.844 467.221 790.17 466.875L775.41 457.229C773.795 466.193 771.715 475.067 769.18 483.816L785.93 494.773C787.168 495.817 787.99 497.27 788.249 498.869C788.508 500.468 788.185 502.106 787.34 503.488C787.076 504.198 786.665 504.844 786.133 505.383C785.602 505.923 784.962 506.343 784.256 506.617C783.551 506.892 782.795 507.013 782.039 506.974C781.283 506.935 780.544 506.735 779.87 506.39L765.21 496.804C761.805 506.584 757.763 516.13 753.11 525.382L766.82 535.388C768.177 536.727 769.061 538.472 769.337 540.359C769.613 542.246 769.267 544.172 768.35 545.844C766.55 549.697 762.94 551.247 760.29 549.326L745.84 538.81C741.565 546.107 736.86 553.144 731.75 559.883L743.86 567.808C745.098 568.852 745.92 570.305 746.179 571.904C746.438 573.503 746.115 575.142 745.27 576.523C745.006 577.233 744.595 577.879 744.063 578.419C743.532 578.958 742.892 579.379 742.186 579.653C741.481 579.927 740.725 580.048 739.969 580.009C739.213 579.97 738.474 579.771 737.8 579.425L723.46 570.039C719.944 574.096 716.226 577.973 712.32 581.656C750.572 612.5 798.069 629.591 847.191 630.188C896.313 630.785 944.211 614.853 983.2 584.948C977.814 579.466 972.781 573.647 968.13 567.528L954.06 570.269C952.418 570.404 950.78 569.963 949.427 569.021C948.075 568.078 947.093 566.694 946.65 565.106C946.313 564.415 946.133 563.657 946.123 562.887C946.114 562.118 946.275 561.355 946.596 560.656C946.916 559.956 947.388 559.336 947.976 558.841C948.565 558.346 949.256 557.987 950 557.792L960 555.84C955.096 548.308 950.658 540.482 946.71 532.406L932.6 535.158C930.958 535.293 929.32 534.851 927.967 533.909C926.615 532.967 925.633 531.583 925.19 529.994C924.865 529.311 924.692 528.564 924.685 527.807C924.678 527.049 924.836 526.3 925.148 525.61C925.46 524.92 925.92 524.306 926.493 523.812C927.067 523.318 927.742 522.956 928.47 522.75L941.1 520.288C937.125 510.788 933.732 501.054 930.94 491.14L916.66 493.211C914.718 493.224 912.823 492.619 911.247 491.484C909.671 490.35 908.496 488.744 907.89 486.898C906.37 482.895 907.89 479.313 911.17 478.833L927.17 476.511C925.41 468.796 924.02 460.872 922.88 452.827L907.59 451.916C905.975 451.646 904.508 450.81 903.452 449.559C902.395 448.307 901.817 446.72 901.82 445.082C901.695 444.33 901.733 443.561 901.931 442.826C902.13 442.091 902.484 441.407 902.969 440.82C903.455 440.234 904.061 439.759 904.746 439.427C905.431 439.095 906.179 438.915 906.94 438.898L921.36 439.758C920.65 432.114 920.15 424.389 920.11 416.484L903.96 411.051C902.491 410.359 901.314 409.171 900.635 407.695C899.956 406.22 899.82 404.552 900.25 402.986C900.315 402.236 900.54 401.509 900.91 400.854C901.281 400.199 901.788 399.632 902.397 399.19C903.006 398.749 903.703 398.444 904.44 398.296C905.177 398.148 905.938 398.161 906.67 398.333L920.6 403.026C920.97 394.11 921.79 385.365 922.95 376.779C922.549 376.709 922.161 376.577 921.8 376.389L904 364.742C902.766 363.695 901.946 362.242 901.687 360.645C901.429 359.047 901.749 357.409 902.59 356.027C902.852 355.317 903.261 354.672 903.791 354.132C904.32 353.593 904.958 353.172 905.662 352.898C906.367 352.624 907.121 352.502 907.876 352.541C908.63 352.58 909.368 352.779 910.04 353.125L925.26 363.131C926.964 354.219 929.116 345.399 931.71 336.705L914.26 325.257C913.026 324.211 912.206 322.758 911.947 321.16C911.689 319.562 912.009 317.925 912.85 316.542C913.112 315.833 913.521 315.187 914.051 314.648C914.58 314.108 915.218 313.688 915.922 313.413C916.627 313.139 917.381 313.018 918.136 313.057C918.89 313.096 919.628 313.295 920.3 313.64L935.77 323.787C939.228 314.067 943.31 304.582 947.99 295.389L933.32 284.682C931.967 283.34 931.088 281.594 930.813 279.708C930.539 277.822 930.886 275.898 931.8 274.226C933.6 270.383 937.2 268.823 939.8 270.744L955.3 282.061C959.622 274.778 964.378 267.761 969.54 261.048L956.19 252.292C954.956 251.246 954.136 249.793 953.877 248.195C953.619 246.597 953.939 244.959 954.78 243.577C955.042 242.868 955.451 242.222 955.981 241.683C956.51 241.143 957.148 240.723 957.852 240.448C958.557 240.174 959.311 240.052 960.066 240.091C960.82 240.131 961.558 240.33 962.23 240.675L978 250.901C981.516 246.908 985.234 243.097 989.14 239.484C949.902 207.32 900.723 189.781 850 189.864ZM1002.68 251.712C1000.02 254.073 997.45 256.615 994.94 259.267L1008.19 268.112C1010.62 269.733 1010.56 273.195 1008.04 275.847C1006.96 277.118 1005.49 277.991 1003.86 278.326C1002.23 278.662 1000.53 278.44 999.04 277.698L986.29 269.183C981.164 275.733 976.487 282.623 972.29 289.805L986.9 292.467C987.62 292.662 988.288 293.015 988.854 293.502C989.42 293.988 989.871 294.595 990.172 295.278C990.473 295.962 990.617 296.704 990.594 297.45C990.572 298.196 990.382 298.928 990.04 299.592C989.582 301.172 988.599 302.548 987.254 303.494C985.908 304.44 984.281 304.899 982.64 304.795L965.69 301.703C961.616 309.755 958.04 318.049 954.98 326.538L966.98 325.668C969.98 325.458 972.15 328.179 971.93 331.762C971.914 333.395 971.332 334.972 970.283 336.224C969.235 337.476 967.784 338.325 966.18 338.626L950.69 339.736C948.111 348.39 945.992 357.175 944.34 366.053L956.72 365.162C959.72 364.952 961.89 367.674 961.67 371.256C961.654 372.889 961.072 374.466 960.023 375.718C958.975 376.97 957.525 377.819 955.92 378.12L942.1 379.121C941.1 387.036 940.35 395.131 940 403.336L954.92 398.333C955.652 398.161 956.413 398.148 957.15 398.296C957.887 398.444 958.584 398.749 959.193 399.19C959.802 399.632 960.309 400.199 960.68 400.854C961.05 401.509 961.275 402.236 961.34 402.986C961.77 404.552 961.634 406.22 960.955 407.695C960.276 409.171 959.099 410.359 957.63 411.051L939.56 417.134C939.62 425.269 940.18 433.204 940.97 441.029L956.1 437.607C958.94 436.967 961.33 439.858 961.44 444.081C961.653 445.882 961.289 447.703 960.402 449.284C959.514 450.864 958.148 452.122 956.5 452.877L942.88 455.958C944.11 463.753 945.57 471.428 947.4 478.863L964.15 473.129C964.883 472.938 965.649 472.91 966.393 473.047C967.138 473.184 967.844 473.482 968.462 473.92C969.079 474.359 969.593 474.927 969.968 475.586C970.342 476.244 970.568 476.977 970.63 477.732C971.034 479.329 970.868 481.018 970.159 482.505C969.45 483.992 968.245 485.185 966.75 485.877L950.67 491.37C953.305 500.3 956.477 509.061 960.17 517.607L969.81 508.261C971.22 507.179 972.985 506.667 974.755 506.828C976.525 506.99 978.169 507.812 979.36 509.131C980.04 509.656 980.607 510.313 981.027 511.062C981.447 511.811 981.711 512.637 981.805 513.491C981.898 514.345 981.818 515.209 981.57 516.032C981.322 516.854 980.91 517.618 980.36 518.277L966.84 531.395C969.35 536.118 971.99 540.681 974.78 545.034L988.18 531.575C989.544 530.483 991.279 529.964 993.018 530.128C994.757 530.293 996.365 531.127 997.5 532.456C998.852 533.554 999.715 535.141 999.902 536.873C1000.09 538.604 999.586 540.34 998.5 541.702L983.24 557.031C987.532 562.722 992.209 568.112 997.24 573.161C1019.66 552.988 1037.68 528.409 1050.17 500.957C1062.67 473.505 1069.38 443.77 1069.89 413.607C1070.39 383.445 1064.67 353.503 1053.09 325.65C1041.51 297.796 1024.32 272.63 1002.59 251.722L1002.68 251.712Z" fill="black"/>
</g>
<defs>
<clipPath id="clip0_272_4">
<rect width="500" height="500.31" fill="white" transform="translate(600 159.845)"/>
</clipPath>
</defs>
</svg>
