<svg width="1700" height="820" viewBox="0 0 1700 820" fill="none" xmlns="http://www.w3.org/2000/svg">
<rect width="1700" height="820" fill="#1D1D1D"/>
<path d="M1099.45 409.933C1099.62 403.988 1101.19 319.012 1050.93 263.695C1048.7 258.75 1038.11 238.822 1003.92 214.465C988.77 202.703 972.674 192.209 955.8 183.088L955.733 183.055C953.6 181.912 911.917 159.849 861.325 159.849C857.483 159.849 853.683 160.074 849.925 160.333V160.266C811.35 159.424 773.033 169.355 749.942 179.786C729.458 189.042 706.717 204.559 705.075 205.76C676.708 221.636 622.917 285.35 618.658 319.112C601.467 341.1 587.1 439.868 618.692 500.029C640.842 583.638 724.225 625.48 730.858 628.69C734.892 631.267 780.333 659.375 836.158 659.375C838.5 659.375 852.658 660.159 857.708 660.159C918.05 660.159 1007.47 617.6 1026.18 584.263C1077.61 546.624 1104.27 449.624 1099.45 409.933ZM731.317 535.534C707.408 496.836 693.783 446.272 690.867 434.656C698.433 423.308 735.758 368.241 757.025 351.673C769.067 353.891 819.35 363.13 866.775 371.719C872.733 387.17 898.875 455.344 906.358 481.66C898.108 491.449 865.7 529.205 833.792 558.773C799.917 558.931 742.3 539.378 731.317 535.534ZM1031.87 264.746C1031.77 268.498 1030.87 281.839 1024.49 297.157C1011.82 290.678 979.958 276.803 936.292 274.46C929.683 264.696 904.817 230.65 865.542 207.036C870.917 196.513 878.4 183.68 882.775 179.769C884.192 179.369 886.392 179.002 889.742 179.002C910.8 179.002 947.183 192.802 950.35 194.028C953.708 195.804 1019.11 231.042 1031.87 264.746ZM681.442 426.777C652.917 421.907 635.958 413.035 630.892 410.033C620.283 371.535 628.825 329.927 630.142 323.965C640.608 305.237 670.408 257.5 690.067 248.436C710.442 244.275 735.85 249.445 746.2 251.971C745.225 265.438 743.35 303.06 748.917 342.543C726.367 360.704 690.675 412.977 681.442 426.777ZM847.375 172.607C853.775 173.082 863.167 174.483 869.6 176.392C863.183 184.931 856.608 197.589 853.5 203.842C840.417 205.985 790.725 215.491 751.742 240.781C743.883 238.697 720.15 233.135 697.675 235.053C703.242 224.271 711.558 216.3 712.45 215.483C715.542 213.265 775.058 171.598 847.375 172.498V172.607ZM1006.51 490.24C996.758 489.84 959.192 487.697 918 478.016C910.108 450.483 884.05 382.592 878.092 367.149C897.049 340.111 916.295 313.277 935.825 286.651C983.225 289.252 1016.51 306.554 1022.95 310.165C1050.41 354.35 1056.43 399.477 1057.26 407.015C1042.67 452.426 1013.83 483.002 1006.51 490.24ZM613.792 380.974C614.492 391.53 616.183 402.646 619.242 413.635C616.492 420.757 614.585 428.176 613.558 435.74C611.818 417.523 611.896 399.176 613.792 380.974ZM694.158 575.75C706.725 563.634 722.217 551.844 728.225 547.391C741.808 552.177 797.592 571.047 833.15 571.047C839.208 579.177 859.017 604.634 883.3 624.096C868.183 638.896 846.35 645.884 842.492 647.043C774.767 648.861 708.808 610.771 694.158 575.75ZM873.017 646.943C880.7 642.465 888.708 636.57 895.333 629.107C906.142 627.614 952.525 619.626 994.442 588.816C997.208 589.116 1001.77 589.483 1006.86 589.341C981.708 613.998 920.342 641.54 873.017 646.943ZM1001.55 577.101C1016.61 537.844 1015.97 508.243 1015.22 498.787C1023.49 490.682 1051.86 460.439 1067.6 414.461C1076.08 415.878 1081.6 418.038 1084.22 419.247C1085.12 422.583 1086.64 430.287 1085.78 441.969C1079.37 484.02 1057.22 547.033 1018.42 574.891C1014.52 576.884 1007.65 577.317 1001.55 577.101Z" fill="black"/>
</svg>
