<svg width="1150" height="811" viewBox="0 10 1262 811" fill="none" xmlns="http://www.w3.org/2000/svg">
<g clip-path="url(#clip0_268_26)">
<path d="M1201.72 411.344C1201.26 411.5 1200.39 412.344 1199.79 413.187C1199.2 414.031 1198.36 415 1197.93 415.312C1197.5 415.656 1196.5 416.687 1195.73 417.594C1194.4 419.187 1187.38 426.437 1183.15 430.531C1182.12 431.562 1180.82 432.969 1180.29 433.656C1179.76 434.344 1178.03 436.25 1176.46 437.906C1172.17 442.437 1168.84 446.187 1166.48 449.125C1164.25 451.906 1153.97 463.344 1151.04 466.312C1150.11 467.25 1148.77 468.625 1148.08 469.375L1146.84 470.687L1143.55 469.156C1141.75 468.281 1138.62 467.062 1136.66 466.406C1133.13 465.25 1132.9 465.219 1128.37 465.219C1120.05 465.219 1113.8 467.031 1109.97 470.5C1107.8 472.437 1107.47 473 1106.61 476.219C1106.01 478.344 1105.91 479.719 1105.91 484.656V490.531L1104.71 491.281C1104.04 491.719 1102.68 492.781 1101.61 493.656C1100.55 494.531 1099.22 495.437 1098.65 495.656C1097.99 495.906 1097.59 496.312 1097.59 496.656C1097.59 497.375 1097.65 497.375 1100.15 496.812C1101.22 496.562 1103.25 496.281 1104.68 496.156L1107.24 495.937V497.687C1107.24 498.656 1107.54 500.25 1107.9 501.219C1108.27 502.219 1108.57 503.187 1108.57 503.406C1108.57 503.625 1107.8 504.031 1106.87 504.344C1105.58 504.781 1104.81 505.344 1103.51 506.781C1102.55 507.812 1101.35 509.062 1100.82 509.531L1099.85 510.406L1100.08 516.25C1100.45 526.281 1100.45 526.25 1099.25 528.531C1098.65 529.625 1097.15 532.281 1095.92 534.437C1094.66 536.594 1092.26 541.094 1090.6 544.437C1088.93 547.781 1087.1 551.437 1086.5 552.562C1085.57 554.312 1085.44 554.906 1085.47 556.937C1085.51 559.844 1086.27 561.594 1088.47 563.812C1090.33 565.687 1092 566.469 1094.99 566.906C1096.76 567.187 1097.49 567.156 1099.12 566.719C1100.18 566.437 1101.58 566.25 1102.18 566.25C1103.28 566.312 1105.51 565.375 1109.9 563.031C1111.7 562.094 1112.16 561.937 1112.83 562.219C1113.23 562.406 1114.36 562.562 1115.29 562.562C1116.96 562.562 1117.06 562.5 1119.12 560.531C1120.29 559.406 1121.35 558.5 1121.52 558.5C1121.68 558.5 1122.81 560.281 1124.01 562.469C1128.44 570.531 1139.39 585.469 1144.55 590.531C1146.78 592.719 1148.11 594.312 1148.94 595.844C1149.57 597.062 1150.64 598.531 1151.27 599.125C1151.87 599.719 1153.4 602.031 1154.66 604.281C1155.93 606.5 1157.26 608.75 1157.69 609.281C1158.09 609.781 1158.83 611.031 1159.32 612.062C1160.46 614.312 1160.36 614.687 1157.13 620.656C1154.07 626.312 1151.4 629.969 1149.51 631.125C1148.67 631.656 1147.94 632.219 1147.88 632.406C1147.81 632.562 1146.44 634 1144.88 635.594C1143.32 637.187 1140.59 639.906 1138.82 641.687C1137.06 643.469 1134.93 645.906 1134.06 647.156C1133.23 648.406 1132.4 649.5 1132.23 649.594C1132.07 649.687 1131.2 651 1130.34 652.5C1129.47 654 1128.47 655.625 1128.07 656.156C1127.17 657.312 1123.45 663.187 1121.72 666.156C1121.02 667.344 1119.85 669.156 1119.15 670.125C1118.45 671.094 1117.89 672 1117.89 672.125C1117.89 672.219 1117.22 673.25 1116.46 674.406C1111.5 681.5 1109.93 685.406 1109.9 690.469C1109.9 695.156 1112 697.969 1119.92 703.969C1122.05 705.594 1125.14 708.062 1126.78 709.5C1130.97 713.187 1132.03 713.969 1137.82 717.625L1142.95 720.844L1144.21 724.437C1144.91 726.406 1145.48 728.594 1145.51 729.25C1145.51 729.906 1146.28 732.719 1147.21 735.5C1148.14 738.281 1149.71 742.906 1150.67 745.844C1152.93 752.531 1153.23 753.594 1154.5 758.969C1155.06 761.375 1155.96 765.031 1156.5 767.094C1157.36 770.5 1158.29 775.687 1158.09 775.844C1158.03 775.875 1157.63 776.094 1157.23 776.312C1156.53 776.625 1156.33 776.594 1155.7 776.031C1154.4 774.875 1152.83 775.344 1152.83 776.844C1152.83 777.25 1153.13 778.156 1153.5 778.844C1154.07 779.844 1154.17 780.5 1154.07 782.094C1153.97 783.219 1153.7 784.344 1153.47 784.656C1152.67 785.531 1149.54 787.562 1148.01 788.187C1146.61 788.75 1146.51 788.875 1146.51 790C1146.51 791.156 1146.41 791.25 1143.78 792.937C1140.92 794.719 1137.92 796.125 1135.86 796.625C1131.9 797.562 1127.64 798.719 1127.27 798.906C1126.71 799.25 1125.68 801.25 1125.41 802.562C1125.14 803.969 1126.44 806.562 1128.04 807.687C1129.04 808.406 1130.17 808.656 1137.53 809.75L1145.91 811L1159.96 810.375C1167.64 810.031 1175.67 809.656 1177.73 809.562L1181.46 809.344V808.375C1181.46 807.406 1181.66 806.969 1183.05 805.031C1183.59 804.281 1183.75 803.687 1183.62 803.031C1183.39 801.781 1182.85 795.969 1182.59 791.937L1182.39 788.656L1183.55 787C1184.65 785.406 1184.75 785.344 1185.12 785.969C1185.32 786.344 1186.08 787.062 1186.85 787.562C1188.05 788.375 1188.48 788.5 1190.41 788.5C1192.57 788.469 1192.61 788.469 1194.14 787C1195 786.187 1196.23 784.687 1196.87 783.656C1197.5 782.625 1198.43 781.437 1198.93 781C1199.43 780.562 1200.33 779.312 1200.89 778.187C1201.49 777.062 1202.46 775.5 1203.09 774.656C1203.72 773.844 1204.45 772.594 1204.79 771.844C1205.09 771.125 1205.88 769.687 1206.55 768.687C1207.22 767.656 1207.75 766.594 1207.75 766.312C1207.75 766.031 1209.98 761.687 1212.67 756.625C1215.44 751.437 1217.8 746.687 1218 745.75C1218.37 744.25 1218.7 743.469 1220.2 740.781C1220.5 740.25 1220.89 739 1221.06 738.031L1221.36 736.281L1219.63 734.625C1217.67 732.719 1216.14 731.937 1214.5 731.937C1213.87 731.937 1212.94 731.719 1212.47 731.469C1211.18 730.812 1205.88 729.437 1204.52 729.437C1203.16 729.437 1201.66 728.469 1199.06 725.937C1197.43 724.312 1197.07 724.125 1195.9 724.125C1194.2 724.125 1193.27 724.719 1193.5 725.625C1193.67 726.219 1193.6 726.281 1192.84 726.125C1192.34 726 1191.71 725.719 1191.41 725.5C1191.14 725.25 1190.71 725.062 1190.48 725.062C1189.81 725.062 1180.03 715.844 1176.56 712.031C1174.87 710.094 1173.24 708.031 1172.94 707.406C1172.67 706.812 1172.24 706.312 1171.94 706.312C1171.64 706.312 1171.47 706.219 1171.54 706.062C1171.64 705.937 1171.97 705.25 1172.27 704.531C1172.67 703.656 1173.54 702.75 1174.8 701.812C1176.3 700.719 1177.53 699.312 1180.32 695.375C1183.75 690.562 1187.25 685.844 1192.31 679.125C1193.54 677.5 1196.3 673.75 1198.43 670.844C1204.25 662.844 1208.71 657.062 1213.57 651.156C1220.13 643.25 1222.13 640 1222.92 636.156C1223.16 634.969 1223.69 633.125 1224.09 632.094C1224.95 629.844 1225.49 624.125 1225.32 619.437L1225.19 616.156L1221.76 608.969C1217.63 600.312 1216.87 598.906 1215.1 596.469C1214.34 595.437 1213.74 594.437 1213.74 594.219C1213.74 594.031 1212.71 592.969 1211.48 591.875C1209.25 589.969 1204.09 583.875 1201.66 580.312C1200.99 579.344 1200.36 578 1200.23 577.344C1200.09 576.687 1199.39 574.687 1198.66 572.875C1197.43 569.781 1195.53 562.906 1194.77 558.687C1194.57 557.656 1194.14 555.594 1193.8 554.125C1192.57 548.875 1192.11 546.75 1191.74 544.437C1191.17 540.594 1189.61 535.25 1186.85 527.625C1185.82 524.75 1185.82 524.469 1186.91 521.687C1188.01 518.812 1188.05 516.25 1187.08 513.531C1185.78 509.937 1180.13 505.219 1174.93 503.406C1173.67 502.969 1171.34 502.187 1169.74 501.625L1166.85 500.656L1159.82 501.156C1155.93 501.437 1152.67 501.594 1152.57 501.469C1152.47 501.375 1152.6 500.687 1152.9 499.969C1153.27 498.969 1153.33 498.25 1153.13 497.094C1153 496.219 1152.87 494.719 1152.87 493.687C1152.83 491.531 1151.94 485.812 1151.34 483.812C1151.07 483.031 1150.5 481.406 1150.04 480.219C1148.97 477.562 1148.91 476.312 1149.81 476.312C1150.14 476.312 1151.87 474.906 1153.7 473.187C1155.53 471.469 1160.59 466.875 1164.98 462.969C1180.03 449.594 1208.21 422.844 1210.14 420.094C1210.81 419.187 1210.91 417.125 1210.38 415.781C1209.91 414.625 1207.55 412.344 1206.02 411.594C1204.69 410.969 1203.12 410.875 1201.72 411.344ZM1118.36 520.906C1118.79 521.375 1119.62 521.906 1120.25 522.094L1121.35 522.437L1120.15 523.219C1119.52 523.625 1117.66 525.031 1115.99 526.344C1113.36 528.469 1112.86 529.031 1111.57 531.469C1110.73 532.969 1110.03 534 1109.97 533.719C1109.8 532.937 1116.82 520.062 1117.42 520.062C1117.52 520.062 1117.92 520.437 1118.36 520.906ZM1179.53 750.062C1180.59 750.062 1180.82 750.219 1181.76 751.562C1182.65 752.875 1182.85 753.656 1183.29 756.812C1183.59 758.844 1183.89 760.75 1183.95 761C1184.02 761.25 1184.32 762.969 1184.62 764.812C1184.92 766.656 1185.35 768.625 1185.58 769.156C1185.88 769.812 1185.95 770.531 1185.75 771.281C1185.62 771.906 1185.25 774.719 1184.92 777.562C1184.62 780.406 1184.35 782.75 1184.29 782.812C1184.25 782.844 1183.79 782.719 1183.29 782.5C1182.49 782.156 1182.32 782.187 1181.92 782.719C1181.46 783.281 1181.46 783.281 1180.72 782.656C1180.29 782.312 1179.63 781.906 1179.23 781.812C1178.69 781.656 1178.43 781.281 1178.29 780.437C1178.19 779.812 1177.96 778.719 1177.8 778.031C1177.43 776.437 1175.93 764.344 1175.43 758.625C1175.03 753.844 1175.37 750.187 1176.36 749.25C1176.83 748.812 1176.96 748.844 1177.6 749.406C1178.06 749.812 1178.79 750.062 1179.53 750.062Z" fill="#393939"/>
</g>
<path d="M291.022 9.36276C285.107 10.0279 283.319 10.6628 279.972 13.1421C274.187 17.4958 270.709 24.2683 270.709 31.192C270.709 35.9085 272.009 39.6273 275.064 43.5881C277.567 46.8534 282.507 50.7234 286.634 52.6886C287.252 52.991 287.837 53.2631 287.902 53.3235C287.967 53.384 287.707 53.777 287.317 54.2306C286.439 55.2585 286.407 57.6471 287.252 59.3402C287.577 60.0053 288.617 61.3356 289.559 62.3031L291.282 64.0567L289.982 65.3266C285.042 70.1036 278.282 79.6879 275.032 86.4906C269.182 98.7356 268.337 109.529 272.042 125.1C272.984 129.061 275.324 136.045 277.112 140.187L278.607 143.664L278.217 146.838C277.339 154.125 275.747 165.886 273.309 182.848C268.499 216.559 266.874 228.653 265.509 240.898C264.567 249.635 264.794 248.879 262.649 250.21C260.439 251.57 258.587 252.387 257.709 252.387C256.962 252.387 256.897 252.659 256.409 256.619C255.922 260.429 255.564 261.82 254.557 263.755C253.842 265.146 253.777 265.478 254.102 266.234C254.329 266.718 254.622 268.229 254.784 269.65C255.012 272.009 254.979 272.311 254.199 274.004C253.549 275.395 253.354 276.483 253.224 278.721C253.062 282.288 253.387 283.316 255.337 285.342L256.799 286.854L256.377 290.059C256.019 293.112 256.052 297.043 256.604 304.692L256.832 307.564L255.564 308.32C254.719 308.834 254.004 309.651 253.354 310.86L252.412 312.644L253.029 313.702C253.744 314.942 255.694 316.363 257.027 316.635L257.969 316.816L258.099 320.656C258.229 323.619 258.424 324.979 259.042 326.612C260.082 329.484 262.032 332.115 264.047 333.354C265.964 334.533 279.614 340.883 290.697 345.781C303.924 351.646 310.684 355.184 317.282 359.809C320.694 362.198 320.792 362.289 320.694 363.347C320.629 364.193 320.402 364.496 319.524 364.919C318.907 365.191 318.354 365.463 318.289 365.554C318.029 365.796 320.467 371.359 321.734 373.354C322.417 374.443 323.652 376.015 324.432 376.831L325.862 378.313L325.602 380.429C325.114 384.329 326.089 391.132 327.454 393.037C328.299 394.246 330.379 395.516 332.069 395.849C334.929 396.393 337.854 394.912 340.032 391.828C342.827 387.897 344.127 384.843 345.622 378.827C346.044 377.224 346.369 376.68 347.539 375.592C349.392 373.929 351.927 369.122 354.364 362.621C355.372 359.961 356.152 357.784 356.087 357.723C356.022 357.663 354.819 357.119 353.422 356.514C346.564 353.611 340.552 352.16 335.157 352.16H331.939L328.592 348.834C323.327 343.574 316.307 338.403 310.684 335.652L308.539 334.624L307.987 330.905C307.337 326.552 306.427 323.619 304.574 320.112C303.404 317.905 303.209 317.239 303.209 315.637C303.209 313.611 304.217 311.041 305.029 311.041C305.257 311.041 308.117 311.646 311.399 312.372C324.529 315.335 331.614 316.423 339.122 316.695C344.712 316.877 349.164 316.544 354.072 315.607L356.997 315.032L359.597 316.03C363.432 317.481 367.397 318.781 370.159 319.507C372.792 320.172 378.642 321.109 378.869 320.868C378.967 320.777 379.162 319.356 379.292 317.663C379.584 314.125 380.397 312.311 382.184 311.011C383.322 310.225 383.354 310.225 386.409 310.467C390.699 310.83 402.432 310.951 406.624 310.648L410.069 310.406L410.297 311.586C410.784 314.246 413.514 316.332 418.487 317.844L420.534 318.449L430.447 329.484C440.164 340.278 440.424 340.52 442.082 341.034C448.192 342.878 452.287 339.583 452.969 332.266C453.099 330.815 453.099 327.942 453.002 325.856C452.644 319.628 451.019 316.423 445.657 311.404C442.342 308.29 442.309 308.26 441.952 306.295C441.042 301.487 435.419 294.231 431.194 292.417C429.374 291.631 428.822 291.54 426.059 291.57C422.517 291.601 420.372 292.205 416.959 294.08L414.847 295.229L411.597 294.896C408.054 294.503 407.177 294.171 401.424 290.996C395.899 287.942 391.934 286.854 386.442 286.854H383.257L382.867 285.675C381.957 282.802 379.519 278.932 377.342 276.876C373.702 273.43 367.819 271.223 364.374 272.039C362.652 272.432 360.084 273.793 357.289 275.818L355.404 277.179L354.462 276.363C352.284 274.428 349.457 270.648 343.249 261.306C337.529 252.689 333.792 247.791 329.924 243.891L327.942 241.895L328.429 235.425C328.657 231.858 329.014 227.655 329.177 226.083C329.697 221.306 328.787 215.35 326.902 211.389C326.512 210.573 326.219 209.545 326.219 209.091C326.252 207.519 328.299 201.381 329.697 198.69C330.867 196.423 331.517 195.576 333.434 193.944C336.749 191.102 337.367 191.071 340.779 193.49C342.274 194.518 342.502 194.82 342.697 196.09C343.412 200.595 347.604 208.547 353.097 215.652C354.559 217.526 355.014 218.403 355.372 220.096C357.647 230.134 362.359 239.023 369.769 247.277C371.199 248.849 375.067 252.598 378.382 255.591C382.282 259.129 384.622 261.487 385.109 262.364C387.352 266.506 390.309 269.318 396.452 273.067C398.694 274.458 401.002 276.03 401.554 276.604C402.107 277.179 403.992 279.719 405.747 282.258C407.502 284.798 409.094 286.824 409.289 286.763C409.484 286.672 409.614 286.491 409.582 286.34C409.549 286.189 409.062 284.375 408.509 282.349C407.957 280.293 407.567 278.539 407.664 278.479C407.762 278.388 409.387 279.144 411.272 280.172C413.189 281.17 414.814 282.016 414.879 282.016C415.432 282.016 414.717 280.746 413.319 279.174C410.362 275.939 410.492 276.121 411.434 276.574C411.889 276.786 413.547 277.632 415.107 278.479C416.699 279.295 418.064 279.9 418.129 279.809C418.422 279.537 417.382 277.965 416.244 276.997C415.659 276.483 414.359 275.516 413.352 274.821C410.557 272.946 409.809 271.979 409.809 270.225C409.809 269.076 410.037 268.471 410.947 267.201C411.564 266.325 412.084 265.599 412.084 265.539C412.084 265.508 411.077 265.539 409.809 265.629C407.177 265.811 406.104 265.327 405.747 263.876C405.552 263.059 405.422 262.969 404.187 262.969C402.009 262.938 399.897 262.092 394.989 259.22L390.374 256.529L381.437 237.753C376.529 227.413 371.719 217.285 370.777 215.198C367.104 207.035 363.237 200.777 358.947 196.12L357.582 194.639L357.387 188.955C357.192 183.664 356.379 176.982 355.534 174.019C354.364 169.938 352.219 166.34 347.377 160.202C342.599 154.185 342.047 153.853 336.619 153.611C332.589 153.399 332.784 153.641 332.784 149.529C332.784 144.389 333.954 141.729 337.822 137.95C342.144 133.777 346.369 127.972 347.767 124.344C350.172 118.025 346.987 110.043 340.097 105.236C335.059 101.699 329.242 100.731 323.522 102.485C321.052 103.24 317.639 105.085 316.339 106.415C314.357 108.411 311.887 111.585 311.139 113.127C309.774 115.969 308.409 125.13 308.409 131.661V135.682H307.304C306.719 135.682 305.777 135.773 305.224 135.863C304.314 136.045 304.217 135.954 303.859 134.896C303.274 133.233 301.064 129.182 299.699 127.247C298.204 125.16 295.344 122.288 293.979 121.502L292.939 120.897L292.549 116.876C292.354 114.669 291.932 111.978 291.639 110.89C291.054 108.743 289.137 104.692 287.609 102.364L286.634 100.882L288.032 99.0077C291.834 93.9888 296.449 83.9207 301.389 70.0129L303.729 63.4521L309.222 57.7378C312.277 54.5934 315.104 51.842 315.527 51.6606C316.177 51.3583 316.274 51.1467 316.112 50.2396C316.014 49.6652 315.397 48.5163 314.714 47.6697L313.544 46.158L315.137 44.5858C323.034 36.8156 323.197 26.8987 315.559 18.4633C312.569 15.1375 308.084 12.2048 303.697 10.6326C299.504 9.15112 295.864 8.7883 291.022 9.36276Z" fill="#393939"/>
<g clip-path="url(#clip1_268_26)">
<path d="M95.7402 445.515C94.5219 446.687 94.1059 450.118 94.9082 452.005C95.1756 452.606 96.2156 453.635 97.6716 454.75C98.9493 455.723 99.9595 456.666 99.9298 456.838C99.9001 457.009 99.7218 457.924 99.5435 458.868C99.3355 459.811 99.2464 461.041 99.3355 461.613C99.4841 462.614 99.4247 462.671 98.563 462.842C96.3642 463.271 95.8888 465.044 97.6122 466.588L98.6224 467.532L98.0281 468.046C97.107 468.847 96.5128 470.105 96.6019 471.106C96.6613 471.621 96.5128 472.307 96.3048 472.679C96.067 473.079 96.0076 473.765 96.1265 474.423C96.275 475.223 96.0968 476.053 95.4431 477.768C94.8488 479.312 94.6408 480.227 94.8191 480.656C95.2054 481.657 100.286 484.745 101.564 484.745C102.396 484.745 102.871 485.431 103.02 486.861C103.169 487.948 103.109 488.148 102.545 488.319C102.069 488.462 101.594 488.234 100.494 487.29C98.2064 485.317 96.275 484.602 93.3037 484.631C90.986 484.631 90.5403 484.717 87.9552 485.832C85.905 486.718 84.7462 487.033 83.6765 487.033C81.8937 487.033 78.328 488.748 74.5544 491.465C71.3453 493.752 71.0779 494.296 70.6322 499.757C70.0676 506.705 70.0974 506.791 71.7613 510.022C73.6927 513.682 74.9704 515.14 76.1292 514.997C76.5749 514.912 76.9612 514.969 76.9612 515.083C76.9612 515.198 76.4264 516.57 75.7429 518.114C73.9898 522.232 68.8197 534.87 65.9969 541.933C64.6301 545.307 62.5798 549.996 61.4507 552.369C55.9834 563.607 54.3491 567.982 52.9526 574.816C51.7641 580.563 51.5264 582.221 50.6647 590.313C50.4864 591.943 50.4864 591.972 51.1995 591.972C52.1801 591.972 52.8338 593.001 54.2303 596.918L55.3594 600.035L56.3697 599.835C56.9045 599.749 57.3502 599.749 57.3502 599.864C57.3502 599.949 56.9045 601.465 56.34 603.238C53.5469 611.902 53.636 611.416 53.6954 618.707C53.7549 624.797 53.5766 627.857 52.596 637.293C51.3481 649.188 51.2589 650.846 51.3184 661.254C51.3481 667.059 51.4669 671.891 51.5561 671.977C51.6749 672.091 53.1606 672.234 54.884 672.263L58.0039 672.377L57.8256 675.122C57.5879 678.153 57.3205 680.469 56.6074 685.473C55.9537 690.02 55.716 700.599 56.132 706.204C56.6965 713.838 58.4199 724.218 60.9456 735.512C62.461 742.232 63.3524 746.721 63.2038 746.864C63.1741 746.893 61.421 747.179 59.2816 747.522C37.4421 750.924 18.7523 757.072 9.00619 764.078C-1.21529 771.398 -2.73068 779.461 4.69772 787.038C15.662 798.218 43.6225 806.596 80.824 809.828C90.1243 810.657 95.8293 810.857 109.349 810.857C122.809 810.857 128.306 810.657 137.874 809.828C168.657 807.226 194.033 800.735 207.879 791.956C209.335 791.041 211.802 789.068 213.376 787.553C215.694 785.351 216.437 784.408 217.388 782.549C218.487 780.347 218.547 780.147 218.517 777.402C218.517 774.943 218.398 774.314 217.744 772.913C216.645 770.597 215.486 769.11 213.258 766.994C205.621 759.817 191.061 753.87 170.559 749.581C167.528 748.923 164.438 748.322 163.665 748.237C162.863 748.122 162.239 747.893 162.239 747.693C162.239 747.093 162.744 746.635 163.606 746.407C164.081 746.292 164.497 745.978 164.557 745.72C164.824 744.434 156.772 731.509 155.732 731.509C155.435 731.509 154.573 731.824 153.741 732.196C152.939 732.596 151.691 733.053 150.948 733.225C149.552 733.597 146.283 735.083 144.322 736.284L143.193 736.971L141.975 735.684C141.321 734.969 140.608 734.369 140.4 734.369C139.805 734.369 138.795 733.282 135.497 729.079C131.694 724.189 130.505 722.388 126.939 715.983C125.276 713.038 123.314 709.778 122.512 708.691C120.432 705.832 114.727 700.514 107.566 694.709C104.06 691.85 100.673 689.048 100.078 688.447C98.563 686.932 97.8202 684.901 98.771 684.901C99.0384 684.901 99.2761 684.129 99.5138 682.357C99.7218 680.927 100.078 679.64 100.286 679.469C101.326 678.639 101.98 675.98 103.822 665.143C104.892 658.938 105.873 652.448 106.051 650.732C106.437 646.929 107.002 643.841 108.071 639.352C108.844 636.092 108.903 636.006 109.676 636.006C111.459 636.006 112.053 634.205 113.479 624.426C113.628 623.311 113.806 619.822 113.836 616.648L113.925 610.844L115.084 611.044C116.183 611.215 116.243 611.187 115.916 610.643C115.708 610.215 115.708 608.356 115.916 604.096C116.094 600.807 116.183 595.918 116.094 593.258C115.975 588.683 115.916 588.14 114.727 583.88C114.044 581.392 113.152 578.361 112.766 577.16C111.904 574.615 111.875 574.072 112.439 573.758C113.539 573.157 119.273 567.982 120.61 566.409C121.65 565.151 122.661 564.322 123.879 563.693C125.81 562.72 127.088 561.434 129.138 558.46C129.851 557.373 130.981 556.172 131.634 555.772C132.288 555.343 133.209 554.4 133.714 553.628C134.19 552.884 134.992 552.055 135.467 551.798C136.804 551.14 137.072 550.425 137.22 546.651C137.339 543.219 137.339 543.219 138.35 542.219C139.568 540.961 140.756 538.53 141.172 536.328C141.677 533.726 141.321 525.72 140.578 523.004C139.924 520.545 137.547 515.569 135.378 512.052C134.338 510.394 134.041 509.65 134.249 509.336C134.398 509.107 135.854 507.82 137.458 506.505C141.856 502.931 144.589 501.901 149.849 501.901C152.85 501.901 153.444 501.673 153.028 500.615C152.79 500.014 152.82 499.986 154.306 500.1C155.167 500.157 157.069 500.472 158.525 500.758C160.011 501.072 162.804 501.587 164.765 501.901C176.531 503.874 195.578 508.049 218.547 513.739C221.34 514.454 225.5 515.426 227.817 515.941L232.007 516.856L232.363 519.315C233.195 525.005 234.622 528.522 236.404 529.237C237.742 529.78 238.841 529.58 242.674 528.151C247.755 526.263 249.241 524.834 248.884 522.089C248.438 518.314 244.902 510.565 243.149 509.45C241.159 508.163 237.534 508.421 235.513 509.993C235.038 510.365 234.235 511.48 233.73 512.51L232.809 514.34L230.729 514.311C228.679 514.254 216.229 511.194 197.747 506.19C188.357 503.646 183.544 502.559 172.788 500.615C160.278 498.356 157.871 497.841 156.267 497.183C155.346 496.783 154.335 496.469 154.009 496.469C153.117 496.469 152.998 496.183 153.474 495.296C154.484 493.466 153.89 492.866 150.918 492.551C149.136 492.38 149.106 492.351 148.571 491.179C147.858 489.549 146.521 488.577 144.055 487.862C142.301 487.347 141.915 487.319 141.707 487.633C141.559 487.862 141.44 488.176 141.44 488.319C141.44 488.834 130.475 491.608 128.455 491.608C127.861 491.608 127.742 491.493 127.92 491.093C128.039 490.836 128.633 489.263 129.257 487.576C131.01 482.887 131.634 481.914 133.982 480.056C136.596 478.054 138.855 475.023 139.657 472.478C140.429 470.134 140.964 465.416 140.756 462.985C140.578 460.898 139.241 457.267 137.934 455.265C137.458 454.579 137.131 453.835 137.22 453.635C137.428 452.978 136.418 451.862 135.616 451.862C135.2 451.862 134.457 451.548 133.982 451.176C132.645 450.09 126.791 446.744 125.394 446.287C124.681 446.058 123.374 445.858 122.423 445.858C120.343 445.858 115.381 447.173 111.875 448.66L109.26 449.746L107.447 448.831C105.011 447.573 99.0681 445.343 97.5527 445.114C96.5722 444.971 96.2156 445.057 95.7402 445.515ZM82.7554 703.659C84.8947 705.375 89.6192 709.606 93.3037 713.066C104.833 723.875 108.012 726.563 113.45 729.994C118.947 733.454 120.432 734.712 124.652 739.601C126.85 742.146 128.603 744.233 128.574 744.262C128.544 744.291 126.583 744.205 124.206 744.091C118.233 743.747 100.821 743.747 94.1951 744.091C87.8364 744.405 80.1406 744.92 79.0114 745.091L78.2389 745.206L78.2092 736.999C78.1795 729.107 78.2092 728.65 78.9223 725.648C80.408 719.471 80.4674 718.814 79.5463 714.41C78.7737 710.636 78.0903 706.375 77.704 702.773C77.6149 701.829 77.4366 700.685 77.3475 700.228L77.1989 699.398L78.0309 699.999C78.5063 700.313 80.6457 701.972 82.7554 703.659Z" fill="#393939"/>
</g>
<g clip-path="url(#clip2_268_26)">
<path d="M478.983 612.181C478.678 612.242 477.735 612.454 476.903 612.635C471.412 613.784 465.726 617.867 462.564 622.888C461.094 625.247 459.43 629.208 458.82 631.749C457.933 635.499 458.016 641.185 458.987 644.753C459.708 647.385 460.956 650.409 461.954 651.951L462.481 652.738L460.817 653.1C457.101 653.917 456.074 656.79 457.766 661.69C458.598 664.139 459.763 665.53 460.983 665.53C461.788 665.53 462.037 665.712 462.62 666.74L463.341 667.98L464.977 667.768L466.641 667.557V668.524C466.641 669.825 467.168 669.976 469.526 669.341C472.354 668.555 475.378 668.283 477.402 668.585C479.954 668.978 480.647 669.462 481.202 671.277C481.729 673.031 481.951 673.242 483.282 673.121C484.031 673.061 484.53 673.273 485.362 673.999C486.471 674.966 486.499 674.966 488.967 674.815C492.018 674.634 493.904 673.908 495.679 672.184C497.565 670.369 499.035 669.704 501.281 669.704C504.221 669.704 506.357 670.49 511.044 673.303C515.371 675.904 528.433 682.315 536.255 685.672C540.637 687.547 543.632 688.424 549.983 689.725C557.832 691.328 558.747 691.691 563.24 694.957C564.765 696.046 570.534 699.917 576.109 703.546C581.656 707.175 586.842 710.744 587.619 711.5C588.783 712.649 589.033 713.103 589.255 714.343C589.671 716.762 590.17 717.155 595.967 719.635C602.928 722.599 606.728 724.565 606.589 725.079C606.506 725.351 606.201 727.045 605.868 728.89C604.98 733.85 603.815 737.358 601.097 743.255L598.657 748.548L595.551 749.879C590.78 751.935 586.398 754.415 582.46 757.288C580.491 758.71 578.716 759.889 578.549 759.889C578.106 759.889 575.443 762.036 572.198 764.97C568.815 768.024 567.816 768.478 564.821 768.357C558.83 768.085 558.553 768.145 546.932 772.379C531.096 778.216 526.575 781.331 526.547 786.594C526.547 788.983 528.073 791.402 530.43 792.733C532.566 793.913 537.613 793.64 544.242 791.917C546.128 791.433 548.43 791.04 549.345 791.04C551.009 791.04 551.065 791.07 552.174 792.4C552.867 793.187 553.588 793.761 553.921 793.761C554.864 793.761 555.835 792.189 556.778 789.104C558.442 783.66 558.276 783.721 568.565 783.448C581.046 783.116 584.485 782.511 588.284 779.85C591.252 777.793 600.044 775.827 600.044 777.218C600.044 778.005 601.153 778.942 602.068 778.942C603.205 778.942 606.395 778.156 612.58 776.432C615.297 775.676 618.958 774.829 620.761 774.587C622.564 774.315 628.222 773.075 633.325 771.835C638.428 770.565 644.724 769.083 647.331 768.478C649.91 767.904 652.517 767.147 653.155 766.815C653.765 766.452 655.263 765.272 656.483 764.153C657.703 763.034 658.896 761.976 659.146 761.764C659.395 761.552 660.532 761.129 661.669 760.827C664.221 760.101 673.151 756.502 683.247 752.086C695.921 746.552 702.855 743.376 719.218 735.574L723.462 733.547L726.013 734.606C731.976 737.025 741.544 738.779 748.006 738.628L751.335 738.568L754.108 740.14C755.633 740.987 759.1 743.044 761.846 744.707L766.783 747.701L769.833 753.417C778.459 769.597 782.73 779.275 783.922 785.293C784.838 789.83 785.919 804.528 785.642 808.641C785.559 810.214 785.587 810.395 786.086 810.395C786.363 810.395 786.946 810.123 787.362 809.76C788.582 808.732 789.247 806.887 789.442 804.135C789.553 802.774 789.774 801.473 789.969 801.262C790.496 800.687 792.465 801.927 797.512 806.01C802.449 810.002 804.196 811.121 805.001 810.849C805.306 810.758 805.555 810.486 805.555 810.274C805.555 810.062 804.224 808.097 802.615 805.889C800.979 803.711 799.731 801.836 799.787 801.776C799.842 801.685 800.813 802.441 801.894 803.439C802.976 804.437 805.028 806.131 806.471 807.189C811.324 810.788 812.822 810.577 811.407 806.494C811.13 805.677 810.991 804.891 811.13 804.74C811.463 804.377 810.298 801.806 808.828 799.659C808.162 798.661 805.916 796.151 803.863 794.064C796.542 786.624 796.153 785.898 791.272 770.172C786.308 754.234 784.117 748.639 781.094 744.253C779.041 741.32 771.331 732.852 760.737 721.934C755.134 716.127 750.946 711.56 750.003 710.2C749.116 708.929 746.953 706.449 745.178 704.635C743.375 702.85 740.851 700.219 739.547 698.798C738.244 697.376 735.942 695.017 734.417 693.536C731.033 690.3 727.261 685.824 725.486 682.95C724.793 681.801 723.656 679.473 722.99 677.809L721.77 674.785L724.543 667.95C727.4 661.024 728.454 657.455 728.454 654.976C728.454 654.219 728.204 651.8 727.899 649.653C727.594 647.475 727.15 644.33 726.928 642.636C726.457 639.037 725.68 637.132 724.044 635.499C722.629 634.108 721.853 633.684 718.386 632.384C715.003 631.083 714.143 630.63 713.144 629.602C712.506 628.966 712.368 628.906 712.368 629.329C712.368 630.327 711.231 630.539 708.013 630.176C703.937 629.723 702.189 629.753 698.75 630.358C696.032 630.811 695.755 630.811 694.895 630.358C693.703 629.692 693.231 629.723 693.231 630.418C693.231 631.779 691.456 633.17 688.849 633.896C687.795 634.168 687.546 634.38 687.379 635.106C687.046 636.406 687.573 638.886 688.516 640.519C688.988 641.336 689.348 642.304 689.348 642.697C689.348 643.09 688.849 644.542 688.239 645.933C687.019 648.685 686.492 651.044 686.852 652.102C687.185 653.04 686.935 653.887 684.938 658.242C684.023 660.298 683.247 662.234 683.247 662.506C683.247 663.202 683.885 663.746 684.994 663.988L685.881 664.2L686.02 666.438C686.103 667.92 686.325 668.978 686.658 669.492C687.13 670.279 687.13 670.339 686.547 671.549C686.159 672.365 685.909 673.575 685.826 675.178C685.632 678.021 685.826 678.989 686.658 679.563C687.601 680.259 690.402 680.652 691.983 680.319C692.732 680.168 693.453 680.168 693.592 680.319C693.98 680.743 690.402 684.039 682.331 690.693L674.621 697.044L670.267 698.042C664.498 699.403 661.253 700.008 659.756 700.008C656.705 700.008 652.683 698.193 648.579 694.987C647.164 693.868 645.445 692.779 644.779 692.568C644.113 692.356 642.117 692.084 640.314 691.993C635.433 691.721 633.491 691.298 629.997 689.816C627.085 688.545 626.502 688.424 623.34 688.183C618.126 687.789 616.268 687.396 609.889 685.43C606.7 684.432 603.316 683.434 602.401 683.223C600.349 682.678 590.697 681.408 585.733 680.985C581.711 680.622 579.908 680.077 574.167 677.355C572.365 676.509 570.201 675.632 569.369 675.39C568.537 675.148 565.181 673.363 561.909 671.428C558.636 669.492 554.975 667.526 553.783 667.043C549.844 665.47 535.395 662.294 526.52 661.024C523.94 660.661 521.444 660.087 520.252 659.633C518.56 658.968 517.451 658.816 513.318 658.574C508.908 658.333 499.839 657.274 498.841 656.911C498.591 656.79 498.785 656.397 499.506 655.52C501.808 652.738 504.138 647.959 505.026 644.148C505.663 641.548 505.858 637.344 505.497 634.652C504.166 624.248 497.399 615.75 488.219 612.907C486.277 612.272 480.37 611.819 478.983 612.181Z" fill="#393939"/>
</g>
<g clip-path="url(#clip3_268_26)">
<path d="M980.778 0.474613C970.386 2.21485 962.176 8.51133 959.479 16.8012C958.606 19.5223 958.646 24.5215 959.519 27.2426C962.136 35.1527 970.029 41.3859 979.865 43.2211C982.047 43.6324 983.832 43.7274 987.401 43.6324C995.135 43.3477 999.974 41.6391 1005.61 37.1777C1010.33 33.4441 1012.82 29.141 1013.5 23.509C1014.69 13.8902 1006.44 4.17657 994.461 1.10743C990.574 0.0949287 984.625 -0.158199 980.778 0.474613Z" fill="#393939"/>
<path d="M1042.33 57.0797C1042.14 57.3012 1041.82 57.934 1041.66 58.5035C1041.5 59.1047 1040.63 60.5602 1039.76 61.7942C1038.84 63.0281 1037.22 65.3379 1036.11 66.9516C1033.96 70.0524 1032.66 71.1598 1021.31 79.2598C1018.46 81.3164 1016.08 83.0883 1016.08 83.2465C1016.08 83.373 1015.13 83.9742 1013.98 84.5754C1011.75 85.7461 1008.86 87.6445 1001.56 92.707C999.181 94.3524 996.722 96.0609 996.048 96.5039C992.994 98.6238 976.335 112.103 971.298 116.596C968.205 119.348 964.952 122.07 964.08 122.607C963.207 123.145 961.502 124.253 960.232 125.075C957.377 126.974 956.821 127.195 949.841 129.157C940.679 131.783 931.2 135.548 925.726 138.776L923.346 140.136L921.443 138.586C920.411 137.732 919.221 136.972 918.865 136.877C918.151 136.688 916.921 134.283 916.921 133.08C916.921 132.701 917.357 131.91 917.913 131.309C919.737 129.284 920.53 127.86 920.253 127.132C920.094 126.752 919.301 125.93 918.468 125.234C917.238 124.284 916.921 123.81 916.921 122.924C916.921 121.975 916.604 121.532 914.938 120.266C913.867 119.412 912.955 118.463 912.955 118.146C912.955 117.798 912.677 116.88 912.32 116.058C911.686 114.602 911.646 114.571 910.02 114.571C907.759 114.571 906.767 113.938 906.45 112.293C905.935 109.635 904.784 108.559 900.858 106.977C897.447 105.648 897.13 105.585 893.719 105.585C885.032 105.553 878.409 109.255 872.856 117.292C872.102 118.336 870.992 119.791 870.397 120.551C869.048 122.164 868.374 124.791 868.652 127.543C868.85 129.822 870.08 131.973 873.451 135.896C874.482 137.067 875.236 138.111 875.117 138.206C875.038 138.301 873.689 138.206 872.142 137.985C870.635 137.795 868.969 137.732 868.454 137.827C866.034 138.428 864.13 139.377 861.671 141.149L859.014 143.111L857.943 142.478C857.308 142.13 855.92 141.497 854.81 141.054L852.827 140.231L852.311 135.865C849.852 113.97 849.178 105.332 849.852 103.75C850.129 103.18 851.28 101.883 852.47 100.839C854.373 99.1617 855.643 97.6113 857.943 94.1309C858.657 93.1184 858.657 92.9918 858.062 92.3274C857.705 91.9477 857.031 91.1566 856.594 90.5871C855.365 89.0684 854.453 89.2582 853.659 91.1883C853.263 92.0742 852.787 92.707 852.549 92.6438C851.875 92.4856 850.962 90.8719 850.883 89.7328C850.804 89.2266 850.605 88.4355 850.367 87.9926C850.129 87.5496 849.773 85.3031 849.495 82.9617C849.098 78.9434 848.107 75.6844 847.075 74.8934C846.798 74.6403 846.441 74.7668 845.846 75.3363C845.132 76.0324 845.092 76.3805 845.33 78.2473C845.489 79.7028 845.449 80.3988 845.172 80.3988C844.934 80.3988 844.735 79.9875 844.735 79.4813C844.735 78.184 843.625 73.1215 843.07 72.0774C842.475 70.8434 841.245 70.2106 840.254 70.6219C839.5 70.9699 839.5 71.1914 839.778 75.716C840.016 79.5446 839.936 80.4305 839.54 80.3356C839.262 80.2723 838.786 79.3547 838.508 78.3422C837.874 76.1906 837.398 75.5895 836.248 75.716C834.939 75.8742 834.899 77.2664 836.089 82.2973C837.438 88.1191 837.438 88.3723 836.287 88.2457C835.653 88.1824 834.899 87.4231 833.392 85.2399C831.012 81.791 830.576 81.3481 829.624 81.3481C828.355 81.3481 828.712 83.2465 830.814 87.4547C831.885 89.5746 833.075 92.2008 833.432 93.3082C833.749 94.384 834.978 97.0102 836.089 99.0984L838.112 102.927L837.239 107.578C836.129 113.4 835.772 115.741 835.216 120.108C834.978 122.006 834.582 124.379 834.304 125.329C833.749 127.29 833.63 144.503 834.146 145.99C834.344 146.591 835.296 147.287 837.319 148.331C838.865 149.122 840.729 149.977 841.443 150.198C842.118 150.451 843.308 150.957 844.061 151.337C844.815 151.748 845.767 152.223 846.163 152.413C846.877 152.761 846.877 152.824 846.282 153.362C845.925 153.71 844.854 155.102 843.942 156.495C840.848 161.114 838.865 162.095 835.415 160.766C833.194 159.912 832.48 158.931 833.194 157.729C833.67 156.874 833.67 156.874 832.202 157.064C829.108 157.475 827.006 160.291 827.403 163.582C827.958 168.581 834.146 173.422 841.681 174.814C851.835 176.681 861.87 173.454 866.55 166.841C868.929 163.455 868.533 163.614 871.389 164.816C874.046 165.892 881.78 170.29 890.07 175.416C908.552 186.901 920.213 197.026 923.267 204.398C924.735 207.974 923.981 209.651 918.746 214.365C914.462 218.194 913.153 219.618 911.368 222.402C907.442 228.572 906.331 234.33 905.419 252.524C904.388 273.565 903.317 280.114 899.866 285.968C898.24 288.721 894.948 292.707 894.313 292.707C894.115 292.707 893.005 292.138 891.854 291.442C886.976 288.499 880.789 286.506 873.134 285.462C867.462 284.671 852.232 283.373 843.149 282.899C835.692 282.519 832.956 282.234 827.8 281.254C824.468 280.652 823.992 280.494 823.04 279.45C822.485 278.817 820.065 276.381 817.765 274.039C815.425 271.698 812.807 268.882 811.895 267.838C809.555 265.022 808.206 264.231 805.906 264.231C802.614 264.231 800.353 265.623 796.07 270.338C794.007 272.584 788.494 278.058 783.814 282.519C771.757 293.973 767.513 299.13 767.116 302.832C766.918 304.414 766.997 304.699 767.989 305.617C768.94 306.534 769.258 306.629 771.281 306.629C773.898 306.629 774.533 306.376 779.808 303.117C786.352 299.099 788.891 298.403 797.537 298.403C802.297 298.403 803.724 298.529 805.589 299.036C806.818 299.384 808.127 299.668 808.524 299.668C810.07 299.668 811.697 298.466 813.204 296.156C814.037 294.859 814.751 293.783 814.83 293.72C815.187 293.34 833.789 298.118 846.124 301.725C858.419 305.332 865.558 307.958 869.048 310.205C869.881 310.711 871.27 311.882 872.102 312.799C872.975 313.717 874.324 314.982 875.117 315.584C877.14 317.102 882.097 319.444 884.993 320.266C886.302 320.614 887.729 321.184 888.166 321.5C892.251 324.411 902.167 324.348 909.98 321.311C913.748 319.855 916.604 317.798 917.952 315.615C918.547 314.634 919.658 313.242 920.411 312.514C924.973 308.211 935.443 293.467 941.591 282.741L943.376 279.577L945.994 286.063C950.555 297.454 952.816 303.655 953.807 307.737C954.045 308.781 954.323 309.857 954.442 310.141C954.561 310.489 953.728 310.996 951.348 311.945C947.144 313.59 941.591 316.786 938.458 319.349C936.673 320.804 934.967 322.798 932.191 326.658C925.805 335.612 918.19 344.756 914.026 348.553L912.638 349.819L912.201 348.964C911.963 348.458 911.646 348.079 911.487 348.079C910.813 348.047 903.872 347.161 900.58 346.655C896.336 346.022 894.551 346.307 892.767 347.92C891.259 349.313 890.942 350.578 891.021 354.881C891.101 359.089 891.934 362.475 893.52 364.943L894.75 366.778L894.115 369.341C893.084 373.676 893.401 378.042 895.146 383.674C897.566 391.395 903.238 395.666 907.838 393.261C909.98 392.122 911.249 389.654 912.796 383.643C914.66 376.429 914.74 376.144 916.604 373.201C917.952 370.986 918.389 370.575 919.38 370.417C920.015 370.322 921.165 369.752 921.919 369.151C923.069 368.234 923.267 367.854 923.267 366.557C923.267 364.975 922.196 362 921.601 362C920.848 362 921.403 360.229 922.553 359.026C925.686 355.799 930.922 351.591 934.888 349.059C937.308 347.572 943.217 343.839 948.056 340.77C952.855 337.7 957.218 335.074 957.694 334.979C958.17 334.853 958.567 334.6 958.567 334.441C958.567 334.283 959.32 334.157 960.272 334.157C965.785 334.157 973.519 332.796 978.001 331.056C983.633 328.873 988.274 324.127 989.503 319.38C990.098 317.197 989.821 312.704 988.988 309.952C988.67 308.907 988.194 305.838 987.957 303.149C986.806 290.872 984.03 271.825 981.967 262.174C981.333 259.2 979.667 252.366 978.239 246.987C975.304 235.723 974.709 232.812 974.908 230.375L975.027 228.635L976.415 228.54C980.381 228.319 980.222 228.414 980.817 225.534C982.126 219.301 981.333 214.397 977.803 206.487C976.058 202.595 973.678 195.096 971.854 187.819C971.298 185.541 970.584 182.978 970.267 182.123C968.72 177.915 968.403 175.985 967.887 167.98C967.332 159.912 966.935 157.222 966.102 156.811C965.904 156.716 965.468 155.893 965.151 154.976C964.833 154.09 963.921 152.571 963.128 151.654C962.374 150.704 961.74 149.882 961.74 149.818C961.74 149.28 971.774 137.763 974.987 134.568C977.208 132.416 979.469 130.17 980.024 129.568C980.619 128.967 982.047 127.67 983.197 126.657C984.387 125.645 986.727 123.335 988.432 121.532C990.138 119.697 992.081 117.766 992.795 117.229C993.509 116.659 994.342 115.963 994.659 115.678C994.977 115.393 996.563 114.064 998.15 112.767C999.697 111.47 1001.01 110.363 1001.01 110.299C1001.01 110.204 1001.6 109.698 1002.31 109.097C1004.54 107.262 1009.65 102.484 1013.1 98.9086C1013.78 98.2441 1014.69 97.3266 1015.13 96.8836C1016.67 95.3965 1020.64 90.7137 1021.95 88.9102C1022.66 87.9293 1024.13 86.3156 1025.24 85.3348C1026.87 83.9426 1027.7 83.4996 1029.44 83.0883C1032.66 82.3289 1035.91 79.7344 1035.91 77.9309C1035.91 77.6145 1036.46 76.7285 1037.14 75.9691C1038.76 74.1973 1039.48 72.457 1039.48 70.3688C1039.48 68.9449 1039.64 68.5336 1040.51 67.8375C1041.26 67.2363 1041.62 66.5086 1041.9 65.0215C1042.1 63.9457 1042.61 62.3004 1043.05 61.4145C1044 59.516 1044.12 57.143 1043.29 56.8899C1042.97 56.7949 1042.53 56.8899 1042.33 57.0797ZM886.897 146.559C888.245 146.907 890.387 147.635 891.696 148.141C894.036 149.091 896.178 149.344 898.597 148.901C899.827 148.711 899.866 148.743 899.866 149.66C899.866 150.356 899.589 150.768 898.875 151.147C897.367 151.938 889.118 151.622 885.508 150.641L882.811 149.913V148.3C882.811 146.781 883.287 145.895 884.081 145.895C884.279 145.895 885.548 146.18 886.897 146.559Z" fill="#393939"/>
</g>
<defs>
<clipPath id="clip0_268_26">
<rect width="213" height="400" fill="white" transform="translate(1049 411)"/>
</clipPath>
<clipPath id="clip1_268_26">
<rect width="249" height="366" fill="white" transform="translate(0.00292969 445)"/>
</clipPath>
<clipPath id="clip2_268_26">
<rect width="355" height="199" fill="white" transform="translate(456.934 612)"/>
</clipPath>
<clipPath id="clip3_268_26">
<rect width="282" height="405" fill="white" transform="translate(766.997 0.0316162)"/>
</clipPath>
</defs>
</svg>
