<svg width="1700" height="820" viewBox="0 0 1700 820" fill="none" xmlns="http://www.w3.org/2000/svg">
<rect width="1700" height="820" fill="#1D1D1D"/>
<g clip-path="url(#clip0_272_4)">
<path d="M849.993 159.848C712.146 159.848 600 272.066 600 410.002C600 547.935 712.146 660.151 849.993 660.151C987.848 660.151 1100 547.935 1100 410.002C1100 272.066 987.848 159.848 849.993 159.848ZM846.801 636.286C813.971 635.829 782.812 628.341 754.76 615.256C784.226 594.683 809.118 567.907 827.42 536.842C848.79 500.571 860.61 459.304 861.799 417.072C889.892 401.942 920.519 393.201 951.558 390.815C973.694 486.547 931.567 585.944 846.801 636.286ZM971.068 366.151C929.002 365.755 887.367 376.158 850.219 396.245C823.077 379.465 800.198 357.295 782.613 331.591C854.385 264.556 961.45 251.355 1047.39 299.605C1062.62 326.762 1072.41 357.36 1075.29 389.919C1042.74 374.665 1007.11 366.479 971.068 366.151ZM1020.3 261.219C934.948 230.921 838.618 249.211 769.977 310.87C753.586 280.401 744.095 246.158 742.961 210.663C774.844 193.452 811.296 183.671 849.992 183.671C917.844 183.672 978.805 213.726 1020.3 261.219ZM719.981 224.905C723.062 260.706 733.788 295.641 751.513 327.015C772.219 363.666 802.03 394.533 837.983 416.679C837.033 448.592 829.286 479.509 815.83 507.603C721.929 478.926 656.974 392.757 655.756 294.161C672.099 266.824 694.037 243.206 719.981 224.905ZM623.81 410.002C623.81 384.311 628.118 359.611 636.036 336.575C652.417 425.795 716.448 500.235 804.213 528.913C786.045 558.34 761.165 583.68 731.026 602.407C666.724 562.452 623.81 491.153 623.81 410.002ZM893.443 632.121C962.463 573.315 994.87 480.614 975.81 390.225C1010.39 391.256 1044.78 400.158 1076.08 416.934C1072.85 523.772 995.256 612.219 893.443 632.121Z" fill="black"/>
</g>
<defs>
<clipPath id="clip0_272_4">
<rect width="500" height="500.31" fill="white" transform="translate(600 159.845)"/>
</clipPath>
</defs>
</svg>
