<svg width="24" height="24" viewBox="0 0 24 24" fill="none" xmlns="http://www.w3.org/2000/svg">
<path fill-rule="evenodd" clip-rule="evenodd" d="M13.7484 9.70521C13.4466 9.70521 13.202 9.94982 13.202 10.2516C13.202 10.5533 13.4466 10.798 13.7484 10.798C14.0502 10.798 14.2948 10.5533 14.2948 10.2516C14.2948 9.94982 14.0502 9.70521 13.7484 9.70521ZM12.5464 10.2516C12.5464 9.58772 13.0845 9.04956 13.7484 9.04956C14.4123 9.04956 14.9504 9.58772 14.9504 10.2516C14.9504 10.9154 14.4123 11.4536 13.7484 11.4536C13.0845 11.4536 12.5464 10.9154 12.5464 10.2516ZM10.4719 12.5143C10.2166 12.2433 9.79048 12.2291 9.51769 12.4824L9.16342 12.8115C9.03076 12.9347 8.82333 12.927 8.70012 12.7943C8.57691 12.6617 8.58457 12.4543 8.71722 12.3311L9.07149 12.002C9.60827 11.5035 10.4468 11.5314 10.9491 12.0647L12.1063 13.2931C12.2274 13.4215 12.4255 13.4388 12.567 13.3333C13.0915 12.942 13.8218 12.9865 14.2949 13.4385L15.2861 14.3855C15.4171 14.5106 15.4218 14.7181 15.2967 14.849C15.1717 14.9799 14.9641 14.9846 14.8332 14.8596L13.842 13.9126C13.6002 13.6816 13.2271 13.6589 12.959 13.8588C12.5506 14.1636 11.9785 14.1136 11.6291 13.7426L10.4719 12.5143Z" fill="#111111" fill-opacity="0.2"/>
<path fill-rule="evenodd" clip-rule="evenodd" d="M11.9733 7H12.0267C13.1004 7 13.9418 6.99999 14.5983 7.08826C15.2702 7.1786 15.8005 7.36713 16.2167 7.78332C16.7691 8.33575 16.9226 9.0921 16.974 10.1222C16.9835 10.3146 16.8353 10.4783 16.6429 10.4879C16.4505 10.4975 16.2867 10.3493 16.2771 10.1569C16.2267 9.14655 16.0767 8.63002 15.7233 8.27665C15.4584 8.01169 15.0999 7.85965 14.5053 7.77971C13.9007 7.69841 13.1061 7.69767 12 7.69767C10.8938 7.69767 10.0993 7.69841 9.49469 7.77971C8.90008 7.85965 8.5416 8.01169 8.27665 8.27665C8.01169 8.5416 7.85965 8.90008 7.77971 9.49469C7.69841 10.0993 7.69767 10.8939 7.69767 12C7.69767 13.1061 7.69841 13.9007 7.77971 14.5053C7.85965 15.0999 8.01169 15.4584 8.27665 15.7233C8.5416 15.9883 8.90008 16.1404 9.49469 16.2203C10.0993 16.3016 10.8938 16.3023 12 16.3023C13.1061 16.3023 13.9007 16.3016 14.5053 16.2203C15.0999 16.1404 15.4584 15.9883 15.7233 15.7233C15.9883 15.4584 16.1404 15.0999 16.2203 14.5053C16.3016 13.9007 16.3023 13.1061 16.3023 12C16.3023 11.8073 16.4585 11.6512 16.6512 11.6512C16.8438 11.6512 17 11.8073 17 12V12.0267C17 13.1004 17 13.9418 16.9118 14.5983C16.8214 15.2702 16.6329 15.8005 16.2167 16.2167C15.8005 16.6329 15.2702 16.8214 14.5983 16.9118C13.9418 17 13.1004 17 12.0267 17H11.9733C10.8996 17 10.0582 17 9.40173 16.9118C8.72975 16.8214 8.19951 16.6329 7.78332 16.2167C7.36713 15.8005 7.1786 15.2702 7.08826 14.5983C6.99999 13.9418 7 13.1004 7 12.0267V11.9733C7 10.8996 6.99999 10.0582 7.08826 9.40173C7.1786 8.72975 7.36713 8.19951 7.78332 7.78332C8.19951 7.36713 8.72975 7.1786 9.40173 7.08826C10.0582 6.99999 10.8996 7 11.9733 7Z" fill="#111111" fill-opacity="0.2"/>
</svg>
