<svg width="100" height="50" viewBox="0 0 20 34" fill="none" xmlns="http://www.w3.org/2000/svg">
<path d="M1.10385 15.912V4.23203H5.08785C5.90919 4.23203 6.62385 4.3867 7.23185 4.69603C7.85052 5.00537 8.32519 5.43737 8.65585 5.99203C8.99719 6.5467 9.16785 7.19737 9.16785 7.94403C9.16785 8.68003 8.99719 9.3307 8.65585 9.89603C8.31452 10.4507 7.83985 10.8827 7.23185 11.192C6.62385 11.5014 5.90919 11.656 5.08785 11.656H3.50385V15.912H1.10385ZM3.50385 9.49603H5.08785C5.59985 9.49603 6.00519 9.35737 6.30385 9.08003C6.61319 8.79203 6.76785 8.41337 6.76785 7.94403C6.76785 7.4747 6.61319 7.10137 6.30385 6.82403C6.00519 6.53603 5.59985 6.39203 5.08785 6.39203H3.50385V9.49603ZM11.6416 15.912L14.5056 4.23203H17.5456L20.4416 15.912H17.9936L17.4336 13.272H14.6496L14.0896 15.912H11.6416ZM15.0496 11.352H17.0176L16.4576 8.53603C16.3829 8.1307 16.3029 7.7307 16.2176 7.33603C16.1429 6.9307 16.0843 6.61603 16.0416 6.39203C15.9989 6.61603 15.9403 6.92537 15.8656 7.32003C15.8016 7.7147 15.7269 8.1147 15.6416 8.52003L15.0496 11.352ZM4.91185 34.072C4.13319 34.072 3.45052 33.928 2.86385 33.64C2.27719 33.3414 1.81852 32.9307 1.48785 32.408C1.16785 31.8747 1.00785 31.256 1.00785 30.552V25.592C1.00785 24.8774 1.16785 24.2587 1.48785 23.736C1.81852 23.2134 2.27719 22.808 2.86385 22.52C3.45052 22.2214 4.13319 22.072 4.91185 22.072C5.70119 22.072 6.38385 22.2214 6.95985 22.52C7.54652 22.808 7.99985 23.2134 8.31985 23.736C8.65052 24.2587 8.81585 24.8774 8.81585 25.592H6.41585C6.41585 25.1227 6.28252 24.7654 6.01585 24.52C5.75985 24.2747 5.39185 24.152 4.91185 24.152C4.43185 24.152 4.05852 24.2747 3.79185 24.52C3.53585 24.7654 3.40785 25.1227 3.40785 25.592V30.552C3.40785 31.0107 3.53585 31.368 3.79185 31.624C4.05852 31.8694 4.43185 31.992 4.91185 31.992C5.39185 31.992 5.75985 31.8694 6.01585 31.624C6.28252 31.368 6.41585 31.0107 6.41585 30.552V29.544H4.68785V27.512H8.81585V30.552C8.81585 31.256 8.65052 31.8747 8.31985 32.408C7.99985 32.9307 7.54652 33.3414 6.95985 33.64C6.38385 33.928 5.70119 34.072 4.91185 34.072ZM16.0416 34.072C15.2629 34.072 14.5856 33.928 14.0096 33.64C13.4336 33.3414 12.9856 32.9307 12.6656 32.408C12.3563 31.8747 12.2016 31.256 12.2016 30.552V25.592C12.2016 24.888 12.3563 24.2747 12.6656 23.752C12.9856 23.2187 13.4336 22.808 14.0096 22.52C14.5856 22.2214 15.2629 22.072 16.0416 22.072C16.8309 22.072 17.5083 22.2214 18.0736 22.52C18.6496 22.808 19.0923 23.2187 19.4016 23.752C19.7216 24.2747 19.8816 24.888 19.8816 25.592V30.552C19.8816 31.256 19.7216 31.8747 19.4016 32.408C19.0923 32.9307 18.6496 33.3414 18.0736 33.64C17.5083 33.928 16.8309 34.072 16.0416 34.072ZM16.0416 31.992C16.5216 31.992 16.8789 31.8694 17.1136 31.624C17.3589 31.368 17.4816 31.0107 17.4816 30.552V25.592C17.4816 25.1227 17.3643 24.7654 17.1296 24.52C16.8949 24.2747 16.5323 24.152 16.0416 24.152C15.5509 24.152 15.1883 24.2747 14.9536 24.52C14.7189 24.7654 14.6016 25.1227 14.6016 25.592V30.552C14.6016 31.0107 14.7189 31.368 14.9536 31.624C15.1989 31.8694 15.5616 31.992 16.0416 31.992ZM26.0354 33.912V24.472H23.0754V22.232H31.3954V24.472H28.4354V33.912H26.0354ZM34.6851 33.912V22.232H37.0851V26.712H39.7731V22.232H42.1731V33.912H39.7731V28.952H37.0851V33.912H34.6851Z" fill="#FF0000"/>
<circle cx="32.8632" cy="9.71029" r="3.08923" fill="#FF0000"/>
</svg>
