<svg width="1700" height="820" viewBox="0 0 1700 820" fill="none" xmlns="http://www.w3.org/2000/svg">
<rect width="1700" height="820" fill="#1D1D1D"/>
<g clip-path="url(#clip0_272_4)">
<path d="M1026.78 233.114C979.559 185.865 916.777 159.845 850 159.845C783.223 159.845 720.441 185.865 673.224 233.114C626.005 280.362 600 343.182 600 410C600 476.818 626.004 539.639 673.224 586.886C720.442 634.134 783.223 660.155 850 660.155C916.777 660.155 979.559 634.135 1026.78 586.886C1074 539.638 1100 476.818 1100 410C1100 343.182 1074 280.361 1026.78 233.114ZM969.828 226.207C1007.32 250.766 1036.88 286.484 1053.75 328.615C1009.6 298.018 963.046 278.081 914.847 269.182C920.306 252.476 930.561 240.352 945.441 233.053C955.204 228.266 964.65 226.719 969.828 226.207ZM849.112 190.487C849.408 190.486 849.703 190.475 850 190.475C878.615 190.475 905.965 195.993 931.053 206.008C913.745 214.733 893.137 231.824 884.145 265.015C867.776 263.586 851.261 263.386 834.646 264.426C839.301 230.177 845.508 204.043 849.112 190.487ZM816.843 192.981C812.702 209.918 807.27 235.761 803.289 267.845C788.029 270.205 772.712 273.582 757.375 277.99C756.654 271.191 755.599 264.961 754.37 259.356C750.672 242.477 745.047 229.138 740.296 219.951C763.475 206.502 789.325 197.172 816.843 192.981ZM714.729 237.285C718.222 244.599 722.173 254.797 724.798 267.46C726.19 274.179 727.106 280.977 727.553 287.844C694.19 300.309 666.529 315.525 646.355 328.359C660.846 292.299 684.627 260.943 714.729 237.285ZM670.765 536.45C645.484 500.678 630.612 457.047 630.612 410C630.612 398.094 631.578 386.413 633.409 375.017C644.593 366.112 678.166 341.155 726.06 321.354C723.044 341.387 716.264 361.9 705.724 382.743C675.104 443.297 669.465 498.468 670.765 536.45ZM850 629.524C795.078 629.524 744.81 609.223 706.285 575.731C702.171 557.761 689.255 483.163 733.039 396.573C749.492 364.035 756.285 334.665 757.946 309.791C760.449 309.011 762.981 308.249 765.538 307.512C777.131 304.17 788.649 301.465 800.091 299.385C799.309 309.304 798.701 319.634 798.334 330.332C796.483 384.211 801.093 436.055 812.036 484.427C823.886 536.81 843.231 585.206 869.633 628.635C863.163 629.211 856.617 629.524 850 629.524ZM993.031 576.318C967.299 598.506 936.378 614.82 902.367 623.187C837.23 522.8 826.334 410.115 828.897 332.292C829.323 319.392 830.122 307.009 831.174 295.263C847.672 293.9 863.998 293.877 880.143 295.194C880.506 337.996 906.206 376.323 929.721 405.901C936.528 414.462 944.058 422.59 951.339 430.448C968.35 448.809 984.418 466.153 991.094 487.826C999.687 515.72 996.672 550.618 993.031 576.318ZM1020.35 478.803C1011.62 450.452 992.387 429.696 973.789 409.623C966.577 401.839 959.765 394.485 953.677 386.829C934.3 362.458 913.109 331.535 910.952 299.383C965.298 309.744 1017.44 335.715 1066.94 377.199C1068.55 387.903 1069.39 398.854 1069.39 410C1069.39 458.297 1053.71 502.992 1027.19 539.282C1027.83 519.154 1026.33 498.22 1020.35 478.803Z" fill="black"/>
</g>
<defs>
<clipPath id="clip0_272_4">
<rect width="500" height="500.31" fill="white" transform="translate(600 159.845)"/>
</clipPath>
</defs>
</svg>
