<svg width="1700" height="820" viewBox="0 0 1700 820" fill="none" xmlns="http://www.w3.org/2000/svg">
<rect width="1700" height="820" fill="#1D1D1D"/>
<g clip-path="url(#clip0_272_4)">
<path d="M919.607 160.469C918.873 160.664 917.366 161.758 916.206 162.93C914.544 164.648 913.617 166.133 911.568 170.43C910.177 173.398 907.935 178.125 906.621 180.937C901.056 192.734 894.717 199.805 885.75 204.297C883.857 205.273 880.919 206.445 879.219 206.953C876.436 207.773 876.011 208.047 873.924 210.312C871.025 213.437 868.01 217.969 863.643 225.82C857.305 237.187 856.184 239.961 854.715 247.539C853.903 251.68 853.671 253.281 852.319 264.805C851.584 271.016 850.348 277.773 849.575 279.805C848.763 282.031 840.994 290.703 835.12 295.976C834.269 296.758 832.414 298.711 830.984 300.351C827.313 304.453 823.293 307.617 818.616 310C816.413 311.133 813.515 312.93 812.123 314.062C808.142 317.266 803.582 320.586 789.513 330.508C769.802 344.453 764.43 348.789 754.69 358.594C747.54 365.859 744.448 369.57 740.042 376.25C732.892 387.07 728.795 396.68 724.235 413.516C720.717 426.562 719.674 434.297 719.674 448.086C719.635 461.25 720.408 468.984 724.737 500.039C726.128 510.039 727.326 520.742 727.868 528.555C728.099 531.758 728.447 535.977 728.679 537.891C729.452 544.922 727.945 552.187 723.423 563.516C718.128 576.719 716.93 580.508 716.08 586.953C714.727 596.992 715.964 607.422 719.751 617.227C722.457 624.219 728.331 632.891 733.858 638.008C745.569 648.906 765.937 656.172 792.799 659.062C800.799 659.961 821.515 660.078 829.902 659.297C848.956 657.539 866.117 653.633 879.953 647.93C886.292 645.273 890.195 642.461 890.775 640C891.007 639.102 890.814 638.672 889.731 637.578C887.528 635.352 882.929 634.297 873.769 633.984C866.155 633.711 859.392 634.414 854.754 635.977C847.719 638.398 818.578 640.273 809.611 638.906C808.142 638.711 804.084 638.32 800.683 638.125C790.75 637.539 783.368 635.664 768.72 630.078C760.72 627.031 757.318 624.883 752.487 619.805C748.584 615.703 744.719 610 743.907 607.07C742.98 603.867 742.554 600.742 742.554 596.875C742.554 589.687 744.912 585.469 749.782 583.984C752.217 583.242 754.304 583.281 758.71 584.219C765.358 585.586 774.672 586.562 788.663 587.344C799.06 587.969 865.575 588.008 880.34 587.422C914.235 586.094 933.637 582.617 945.193 575.898C948.904 573.711 952.614 570 952.923 568.086C953.426 564.844 951.725 562.461 948.053 561.367C946.933 561.016 942.99 560.391 939.28 559.961C931.975 559.141 927.994 558.32 926.68 557.461C926.023 557.031 925.753 556.133 925.212 552.695C924.516 548.32 921.965 535.664 918.216 517.812C912.264 489.648 910.447 470.703 912.573 460C914.776 448.906 920.535 434.453 928.883 419.062C930.816 415.508 933.173 411.055 934.178 409.141C935.183 407.148 937.463 403.75 939.589 401.094C945.348 393.906 947.048 391.016 948.208 386.562C948.44 385.586 949.367 383.594 950.256 382.07C955.242 373.633 956.44 367.461 957.136 346.641C957.638 330.586 957.561 329.727 954.933 315.273C952.807 303.672 952.305 299.101 952.537 293.398C952.962 282.539 955.01 279.101 964.634 273.125C968.267 270.859 970.47 269.141 972.712 266.875C979.282 260.195 983.881 251.367 984.384 244.57C984.886 238.164 982.567 234.961 974.644 230.781C969.079 227.851 966.644 226.133 965.252 224.023C958.721 214.258 951.57 208.32 942.758 205.312C941.406 204.844 938.739 204.258 936.806 204.023L933.289 203.555L932.4 201.719C930.893 198.672 930.391 194.258 930.043 181.094C929.656 167.93 929.308 165.469 927.492 162.695C925.946 160.312 923.009 159.453 919.607 160.469Z" fill="black"/>
</g>
<defs>
<clipPath id="clip0_272_4">
<rect width="269" height="500" fill="white" transform="translate(715.5 160)"/>
</clipPath>
</defs>
</svg>
