<svg width="1700" height="820" viewBox="0 0 1700 820" fill="none" xmlns="http://www.w3.org/2000/svg">
<rect width="1700" height="820" fill="#1D1D1D"/>
<g clip-path="url(#clip0_272_4)">
<path d="M977.848 167.31C975.529 173.447 971.844 183.693 969.898 189.349C969.277 191.056 961.948 202.156 955.778 210.694C950.105 218.484 942.818 227.396 938.015 232.305C934.951 235.453 934.371 236.414 931.638 242.284C929.982 245.912 927.58 250.928 926.255 253.49C922.943 259.84 914.496 272.753 911.142 276.542C907.623 280.598 904.931 285.293 904.103 288.869C903.772 290.416 903.234 292.017 902.902 292.337C902.571 292.711 901.412 294.578 900.335 296.553C895.366 305.731 893.627 307.865 890.688 308.612C888.659 309.146 885.429 311.281 883.359 313.522C882.365 314.536 881.578 315.229 881.578 315.016C881.578 314.856 881.04 315.069 880.377 315.55C877.727 317.31 871.558 319.071 862.821 320.619C853.546 322.22 848.784 323.5 846.548 324.995C845.886 325.421 843.774 326.916 841.828 328.25C835.824 332.412 829.862 334.493 817.191 336.894C802.948 339.562 795.412 341.91 786.841 346.286C785.102 347.193 780.588 349.114 776.82 350.501C768.829 353.543 763.943 355.784 757.359 359.466C750.32 363.415 746.18 365.176 736.698 368.164C727.837 370.992 725.932 372.006 717.113 378.303C715.125 379.744 711.191 382.412 708.417 384.226C705.602 386.04 702.041 388.548 700.467 389.829C697.031 392.657 690.406 400.875 686.431 407.172C684.816 409.786 683.366 411.868 683.159 411.868C682.373 411.868 675.209 423.074 674.05 426.169C672.021 431.451 668.957 434.6 649.91 450.875C645.148 454.984 638.855 460.427 635.956 462.988C625.273 472.433 611.651 481.451 594.84 490.203C585.523 495.005 561.798 506.211 549.293 511.654C544.738 513.628 539.107 516.35 536.788 517.684C532.151 520.299 526.478 524.941 524.325 527.823L522.917 529.69L525.36 530.598C526.685 531.078 532.648 533.532 538.652 535.987C556.249 543.244 559.272 544.098 571.984 545.325C605.771 548.527 635.252 534.76 668.75 500.181C676.369 492.337 677.197 491.27 680.675 485.347C683.325 480.918 690.281 470.939 690.53 471.259C690.613 471.366 692.393 478.623 694.463 487.428C700.798 514.482 701.999 521.739 701.13 527.769C700.509 532.252 698.066 538.442 694.256 545.272C692.517 548.367 690.24 553.009 689.163 555.678C687.217 560.373 687.176 560.587 687.176 565.283C687.176 569.712 687.3 570.405 688.666 574.141C689.495 576.382 691.482 580.704 693.097 583.746C696.368 590.096 696.823 591.163 701.627 604.13C703.945 610.373 705.767 614.482 706.968 616.297C707.962 617.737 710.405 622.433 712.434 626.755C714.421 631.024 716.988 635.934 718.106 637.641C719.804 640.309 720.425 640.843 722.454 641.59C725.808 642.817 728.002 645.059 732.93 652.262C735.248 655.678 737.65 658.719 738.271 659.039C740.797 660.267 745.02 660.16 751.148 658.719C754.461 657.919 758.477 657.065 760.134 656.852C763.736 656.318 765.185 655.091 766.552 651.569C767.877 648.1 768.125 639.349 767.007 634.653C766.262 631.558 766.179 631.451 764.191 630.544C763.032 630.064 760.258 629.424 757.981 629.103C749.741 627.876 749.699 627.876 741.749 620.566C735.704 614.963 733.095 611.654 732.474 608.612C731.812 605.357 730.28 601.675 727.298 596.179C724.152 590.309 723.034 587.214 722.702 583.106L722.454 579.957L724.276 577.609C726.305 574.995 727.671 574.354 733.013 573.5C737.733 572.807 740.548 571.686 742.122 569.925C742.867 569.071 745.434 566.617 747.836 564.376C752.473 560.107 760.962 550.288 765.889 543.618C772.307 534.813 779.595 521.793 782.866 513.255C791.727 489.989 791.809 489.776 792.927 489.349C793.507 489.135 795.867 488.975 798.145 489.029C802.451 489.082 803.9 489.456 812.43 492.764C816.819 494.525 820.504 495.646 827.833 497.513C836.735 499.808 854.043 501.675 867.334 501.675L878.141 501.729L878.68 516.67C879.011 524.941 879.301 536.147 879.342 541.697C879.425 547.193 879.632 553.383 879.88 555.411C880.129 557.439 880.336 561.814 880.336 565.229C880.336 571.419 880.998 577.289 882.158 581.451C882.655 583.266 882.82 585.827 882.779 592.657C882.696 601.355 882.738 601.675 883.98 605.998C884.684 608.559 886.671 613.415 888.576 617.257C892.634 625.528 893.752 628.677 894.58 633.853C895.78 641.217 898.182 645.592 900.998 645.592C901.536 645.592 903.027 646.233 904.269 646.98C907.788 649.114 913.295 650.395 919.051 650.448C926.463 650.448 931.224 648.901 934.413 645.379C935.282 644.418 936.524 643.458 937.145 643.244C938.719 642.764 939.961 640.896 939.961 639.082C939.961 637.428 938.719 633.906 937.808 632.945C936.938 632.038 924.806 624.301 922.363 623.127C918.844 621.419 916.773 617.844 916.152 612.294C915.945 610.8 915.283 608.559 914.62 607.225C912.591 603.063 911.722 598.634 911.515 590.896C911.266 582.732 911.846 576.809 914.496 559.039C915.531 552.423 916.608 543.885 916.939 540.096C917.27 536.307 918.305 529.477 919.258 524.728C920.21 520.032 921.577 512.935 922.363 508.986C923.895 501.195 925.138 496.286 926.918 490.843C927.912 487.748 928.988 486.147 936.193 476.702C940.665 470.832 946.006 463.522 948.035 460.427C950.064 457.332 955.281 450.128 959.629 444.418C970.022 430.651 970.684 428.943 973.127 410.96C973.831 405.571 974.742 400.608 975.363 398.901C975.902 397.3 977.516 391.323 978.924 385.667C982.195 372.433 984.141 366.35 986.957 360.373C989.483 354.931 989.69 354.344 991.056 347.94C993.127 338.388 993.499 334.44 993.209 324.354L992.961 315.016L994.12 311.814C994.783 310.053 996.191 306.852 997.226 304.717L999.172 300.875H1002.24C1003.93 300.875 1006.42 300.555 1007.74 300.128C1009.07 299.701 1013.33 299.221 1017.18 299.007C1026.79 298.527 1029.32 297.993 1032.84 295.806C1034.49 294.792 1036.11 293.778 1036.44 293.511C1036.77 293.244 1038.67 292.017 1040.66 290.736C1044.84 288.068 1045.67 287.054 1049.69 279.584C1053.12 273.18 1053.54 271.313 1052.21 267.951C1051.22 265.389 1049.15 263.148 1045.75 260.96C1044.39 260.107 1041.78 258.292 1039.96 256.905C1035.98 253.917 1031.3 251.569 1027.2 250.395C1021.08 248.634 1019.3 247.353 1016.89 242.817C1016.19 241.483 1015.07 238.709 1014.49 236.681C1012.92 231.505 1011.39 228.997 1006.96 224.301C1004.84 222.006 1001.74 218.271 1000.04 215.923C996.729 211.334 993.251 207.919 989.566 205.571L987.247 204.13L986.791 200.075C986.543 197.833 986.046 192.07 985.715 187.214C985.052 176.862 983.645 164.749 982.982 163.042C982.361 161.547 981.326 160 980.953 160C980.746 160 979.38 163.308 977.848 167.31Z" fill="black"/>
</g>
<defs>
<clipPath id="clip0_272_4">
<rect width="530" height="500" fill="white" transform="translate(523 160)"/>
</clipPath>
</defs>
</svg>
