<svg width="1700" height="820" viewBox="0 0 1700 820" fill="none" xmlns="http://www.w3.org/2000/svg">
<rect width="1700" height="820" fill="#1D1D1D"/>
<path d="M809.67 395.796C809.415 391.19 809.226 386.519 808.638 381.988C808.103 377.761 807.489 373.555 806.725 369.435C805.973 365.413 805.066 361.466 804.236 357.487C803.165 352.373 801.669 347.745 800.108 343.031C798.828 339.117 797.502 335.311 795.896 331.764C794.89 329.504 793.773 327.364 792.591 325.363C791.618 323.731 790.521 322.357 789.462 320.876C788.444 319.46 787.497 317.87 786.484 316.411C785.374 314.8 784.185 313.297 782.97 311.902C782.187 310.993 781.272 310.583 780.358 310.583C780.169 310.583 779.979 310.68 779.783 310.712C779.385 310.507 778.999 310.237 778.568 310.237C778.47 310.237 778.366 310.237 778.268 310.247C776.452 310.464 774.656 310.842 772.827 310.918C770.555 311.026 768.269 311.091 765.996 311.112C761.574 311.177 757.159 311.112 752.737 311.091C748.074 311.069 743.404 311.156 738.741 311.264C736.958 311.307 735.181 311.394 733.398 311.426C733.163 310.669 732.915 309.912 732.503 309.328C731.485 307.89 730.603 306.333 729.76 304.625C728.585 302.084 727.422 299.532 726.26 296.981C726.926 296.937 727.585 296.851 728.245 296.872C729.636 296.894 731.08 296.656 732.281 295.348C733.163 294.396 734.006 293.11 734.424 291.455C734.724 290.288 734.992 289.098 735.26 287.909C735.717 286.341 736.265 284.87 736.853 283.432C738.845 279.389 740.955 275.583 743.398 272.296C744.834 270.447 746.291 268.544 747.911 267.16C748.427 266.889 748.962 266.684 749.498 266.511C752.117 265.689 753.586 260.532 752.92 256.531C752.75 255.515 752.469 254.65 752.123 253.893C751.901 252.433 751.536 251.027 750.882 249.946C750.079 248.616 748.786 247.47 747.591 247.47C747.493 247.47 747.395 247.481 747.297 247.492C743.848 248.065 740.4 248.508 736.951 249.265C733.385 250.043 729.813 250.876 726.22 251.525C718.226 252.984 710.219 253.049 702.185 253.514C701.839 253.536 701.532 253.752 701.199 253.871C701.075 253.601 701.016 253.276 700.873 253.017C699.41 250.411 698.045 247.643 696.686 244.875C695.857 243.156 694.224 242.312 692.957 242.312C691.566 242.312 690.214 243.242 689.221 244.875C688.235 246.497 687.673 248.735 687.673 251.049C687.673 253.547 688.3 255.385 689.221 257.223C690.599 259.969 692.068 262.575 693.577 265.105C693.904 265.657 694.315 265.97 694.707 266.338C693.643 272.436 692.578 278.524 691.657 284.676C690.638 291.488 689.678 298.31 688.515 305.079C687.484 311.102 686.386 317.113 685.413 323.179C684.93 326.218 684.447 329.288 684.009 332.348C683.82 333.711 683.65 335.084 683.499 336.435C683.219 338.846 682.872 341.387 683.297 343.788C684.316 349.583 689.058 352.135 691.677 347.442C692.506 345.939 692.944 344.274 693.505 342.512C693.891 341.279 694.322 340.122 694.759 338.933C695.621 336.597 696.51 334.316 697.483 332.121C698.939 329.191 700.546 326.39 702.309 323.958C703.616 322.466 705.079 321.244 706.548 320.162C707.574 319.525 708.632 319.027 709.716 318.692C709.827 318.681 709.938 318.67 710.049 318.649C710.199 318.649 710.356 318.627 710.506 318.605C712.178 318.357 713.289 317.676 714.647 315.838C716.11 313.837 716.312 310.648 716.861 307.804C717.07 307.188 717.318 306.604 717.547 305.998C718.644 308.193 719.709 310.442 720.839 312.615C719.572 313.275 718.429 314.594 717.717 316.594C715.045 324.163 712.426 331.818 709.709 339.344C706.979 346.891 704.667 354.687 702.636 362.829C700.657 370.7 698.841 378.81 697.731 387.168C696.529 396.218 696.196 405.668 696.595 414.902C696.889 422.005 697.888 429.261 699.442 435.899C701.003 442.538 702.943 448.885 705.138 454.994C706.274 458.184 707.704 461.233 709.109 464.131C710.689 467.407 712.531 470.175 714.562 472.694C716.058 474.533 717.54 476.436 719.147 477.982C720.78 479.571 722.465 480.825 724.183 482.047C726.442 483.712 728.643 485.54 730.995 486.805C733.307 488.027 735.658 488.405 738.048 488.762C739.335 489.205 740.583 489.886 741.876 490.276C742.431 490.427 742.993 490.481 743.548 490.6C743.332 500.537 743.43 510.473 743.391 520.41C743.365 525.373 743.3 530.368 743.326 535.331C743.339 539.645 743.476 543.938 743.515 548.231C743.221 548.231 742.934 548.241 742.64 548.241C741.105 548.241 739.59 548.241 738.068 548.241C732.719 548.285 727.363 548.025 722.014 548.025C718.938 548.047 716.371 552.274 716.371 557.378C716.371 562.406 718.938 566.785 722.014 566.698C727.226 566.569 732.438 566.32 737.657 566.342C742.549 566.363 747.414 566.114 752.306 565.941C756.97 565.812 761.613 565.39 766.277 565.249C768.066 565.206 769.849 565.185 771.639 565.206C772.2 565.228 772.775 565.206 773.35 565.185C774.454 565.152 775.564 565.12 776.668 565.249C778.124 565.639 779.45 565.595 780.756 564.309C781.984 563.13 782.892 561.184 783.258 558.913C784.205 553.269 781.547 547.517 778.007 547.517C777.824 547.517 777.634 547.517 777.452 547.517C769.712 547.517 761.979 547.906 754.246 548.112C753.998 539.148 753.841 530.174 753.828 521.188C753.828 515.836 753.88 510.484 753.978 505.143C754.07 500.526 754.305 495.931 754.488 491.335C755.454 491.303 756.421 491.227 757.388 490.935C758.615 490.557 759.824 490.005 761.052 489.497C763.377 488.567 765.689 487.508 767.962 486.264C770.143 485.086 772.279 483.68 774.447 482.458C776.922 481.042 779.313 479.268 781.638 477.279C784.028 475.225 786.092 472.37 788.176 469.58C790.05 467.061 791.748 464.38 793.335 461.352C795.112 457.989 796.973 454.756 798.443 450.994C799.886 447.361 801.088 443.468 802.336 439.662C804.902 431.812 806.973 423.379 808.351 414.761C808.671 412.772 808.978 410.76 809.272 408.782C809.631 406.306 809.82 403.797 809.873 401.256C809.938 399.429 809.768 397.591 809.67 395.796ZM709.677 294.699C708.913 296.375 708.188 298.062 707.561 299.857C707.339 300.495 707.149 301.165 706.986 301.835C706.953 301.846 706.927 301.857 706.894 301.868C705.438 302.473 704.06 303.327 702.669 304.322C701.454 305.198 700.239 306.16 699.063 307.242C701.271 294.699 703.596 282.232 705.876 269.733C712.662 269.084 719.447 268.317 726.207 267.279C728.382 266.943 730.557 266.684 732.732 266.349C732.601 266.587 732.451 266.803 732.321 267.041C731.504 268.544 730.662 270.003 729.891 271.56C728.918 273.55 728.03 275.529 727.233 277.713C726.958 278.459 726.736 279.248 726.514 280.037C725.228 280.145 723.934 280.416 722.661 280.751C720.401 281.324 718.167 282.827 716.201 284.741C713.654 287.282 711.466 290.828 709.677 294.699ZM718.625 348.545C721.002 342.112 723.497 335.797 725.881 329.364C730.028 328.985 734.169 328.639 738.316 328.65C742.98 328.672 747.623 328.802 752.287 328.78C756.728 328.78 761.189 328.802 765.643 328.758C767.955 328.715 770.267 328.466 772.579 328.25C774.258 328.12 775.949 328.056 777.628 327.926C777.811 328.121 777.987 328.315 778.17 328.51C779.672 330.586 781.057 332.889 782.572 334.965C784.342 337.365 785.955 339.928 787.405 342.825C788.594 345.593 789.717 348.448 790.808 351.346C792.01 354.546 793.205 357.768 794.211 361.163C794.211 361.174 794.217 361.185 794.217 361.196C790.645 361.574 787.052 361.791 783.486 362.072C778.209 362.472 772.938 362.342 767.648 362.266C762.351 362.18 757.035 362.374 751.725 362.439C746.578 362.504 741.432 362.504 736.285 362.591C732.157 362.677 728.049 362.742 723.921 362.656C720.688 362.58 717.455 362.202 714.222 361.866C715.581 357.347 717.018 352.881 718.625 348.545ZM706.829 416.102C706.816 415.929 706.803 415.756 706.783 415.583C706.79 415.691 706.803 415.81 706.81 415.918C706.796 415.777 706.79 415.626 706.777 415.486C706.764 415.367 706.757 415.237 706.744 415.118C706.751 415.226 706.764 415.323 706.77 415.431C706.764 415.356 706.757 415.269 706.751 415.194C706.757 415.302 706.77 415.421 706.777 415.529C706.796 415.734 706.81 415.94 706.829 416.145C706.829 416.123 706.829 416.113 706.829 416.102ZM798.672 414.339C798.149 417.572 797.424 420.665 796.666 423.757C794.805 430.893 792.539 437.77 789.933 444.258C787.418 449.437 784.564 454.238 781.429 458.357C781.168 458.692 780.9 459.027 780.639 459.363C778.627 461.893 776.478 463.861 774.212 465.645C772.906 466.499 771.586 467.234 770.241 467.926C768.608 468.769 767.034 469.916 765.401 470.759C762.279 472.403 759.02 473.668 755.774 474.533C753.965 474.684 752.136 474.37 750.334 474.251C748.779 474.154 747.205 474.078 745.664 473.862C744.554 473.516 743.469 473.019 742.379 472.478C740.589 471.57 738.747 471.246 736.906 470.9C735.175 470.327 733.542 469.364 731.896 468.294C731.276 467.818 730.655 467.288 730.028 466.802C729.042 466.045 728.036 465.364 727.03 464.682C724.666 462.823 722.517 460.39 720.401 457.871C719.023 455.978 717.762 453.946 716.606 451.653C715.209 448.55 713.922 445.382 712.766 441.998C711.434 438.149 710.284 434.159 709.187 430.115C708.122 425.606 707.397 420.967 706.849 416.199C706.816 415.832 706.783 415.453 706.757 415.075C706.326 408.847 706.555 402.446 706.901 396.218C707.495 390.346 708.573 384.637 709.794 379.015C710.056 379.091 710.284 379.285 710.558 379.307C721.44 380.194 732.347 379.285 743.241 379.285C748.479 379.285 753.704 379.155 758.935 379.015C762.025 378.928 765.127 378.972 768.236 379.015C770.43 379.037 772.618 379.058 774.813 379.037C778.928 378.993 783.01 378.572 787.124 378.172C789.116 377.977 791.121 377.89 793.113 377.771C794.707 377.663 796.307 377.48 797.894 377.523C798.704 381.815 799.318 386.227 799.723 390.66C800.024 394.823 800.435 399.04 800.311 403.235C799.886 406.976 799.259 410.685 798.672 414.339ZM706.777 415.529C706.777 415.54 706.777 415.561 706.783 415.583C706.783 415.55 706.777 415.518 706.777 415.486C706.777 415.475 706.777 415.453 706.77 415.431C706.777 415.464 706.777 415.496 706.777 415.529ZM791.801 413.096C791.01 418.135 789.809 423.119 788.019 427.412C786.23 431.704 783.97 435.337 781.899 439.23C779.639 443.501 777.236 447.955 774.264 450.896C771.018 454.129 767.38 455.967 763.782 457.784C761.11 459.136 758.204 456.216 757.485 451.859C756.721 447.317 758.393 442.765 761.058 441.436C762.684 440.614 764.311 439.792 765.891 438.786C767.139 437.835 768.334 436.765 769.464 435.456C772.612 431.131 775.192 425.638 777.732 420.351C778.673 418.167 779.47 415.831 780.149 413.409C780.528 411.712 780.828 409.96 781.122 408.23C781.808 404.219 784.061 401.505 786.484 401.505C786.961 401.505 787.438 401.613 787.915 401.829C790.873 403.181 792.558 408.252 791.801 413.096Z" fill="black"/>
<path d="M1039.54 305.796C1041.58 302.39 1040.13 296.562 1037.25 296.562H1010.82L1024.08 274.408C1024.6 274.624 1025.1 274.937 1025.66 274.937C1029.73 274.937 1032.92 268.655 1031.95 261.573C1031.41 257.67 1029.52 254.491 1027.18 253.604C1022.95 251.993 1019.19 257.324 1019.19 264.125C1019.19 265.055 1019.38 265.898 1019.5 266.763L1001.68 296.562H871.745C868.867 296.562 867.424 302.39 869.462 305.796L951.266 442.531V556.062H918.922C917.137 556.062 915.688 558.484 915.688 561.469C915.688 564.453 917.137 566.875 918.922 566.875H990.078C991.864 566.875 993.313 564.453 993.313 561.469C993.313 558.484 991.864 556.062 990.078 556.062H957.734V442.531L1039.54 305.796ZM1004.35 307.375H1029.45L1022.98 318.187H997.886L1004.35 307.375ZM879.553 307.375H995.208L988.739 318.187H988.358C985.705 315.063 982.93 313.452 980.071 313.452C976.863 313.452 974.126 315.441 971.688 318.187H886.022L879.553 307.375ZM984.405 356.691C981.281 361.913 978.318 366.173 975.013 366.173C972.975 366.173 970.808 364.551 968.395 360.518C962.082 349.965 965.633 342.202 970.685 333.757C973.809 328.535 976.772 324.275 980.078 324.275C982.115 324.275 984.282 325.897 986.695 329.93C993.009 340.483 989.457 348.246 984.405 356.691ZM954.5 432.649L892.491 329H964.43C960.561 335.974 955.018 348.841 961.532 363.665L941.563 397.043C940.301 399.151 940.301 402.579 941.563 404.687C942.824 406.796 944.875 406.796 946.136 404.687L966.066 371.374C968.919 375.05 971.914 376.975 975.019 376.975C980.925 376.975 985.324 370.444 988.985 364.324C992.284 358.81 1000.39 345.219 994.471 329H1016.51L954.5 432.649Z" fill="black"/>
</svg>
