<svg width="1700" height="820" viewBox="0 0 1700 820" fill="none" xmlns="http://www.w3.org/2000/svg">
<rect width="1700" height="820" fill="#1D1D1D"/>
<path d="M853.594 175.833C849.414 176.307 846.875 176.954 843.828 178.378C843.125 178.723 841.953 178.982 841.25 178.982C840.273 178.982 839.883 179.198 839.726 179.802C839.609 180.319 838.437 181.268 836.797 182.174C835.312 182.994 833.984 183.943 833.867 184.245C833.789 184.59 832.93 185.41 831.992 186.1C831.055 186.833 830.117 187.653 829.961 187.912C829.805 188.214 829.375 188.473 829.062 188.473C828.75 188.473 828.32 188.947 828.125 189.551C827.5 191.363 825.664 193.261 823.437 194.34C820.351 195.893 814.844 202.278 814.844 204.305C814.844 205.341 814.297 206.506 812.851 208.663C810.82 211.639 809.844 213.883 809.492 216.514C809.375 217.334 808.867 218.714 808.398 219.577C807.344 221.346 807.109 222.511 807.578 223.33C807.773 223.676 807.617 224.236 807.148 224.797C806.68 225.358 806.445 226.35 806.406 227.774C806.406 228.939 806.289 230.017 806.133 230.19C805.976 230.319 805.859 230.794 805.859 231.182C805.859 231.57 805.43 232.778 804.922 233.857C803.711 236.402 802.07 247.748 802.812 248.74C803.047 249.085 802.969 249.646 802.617 250.466C802.305 251.113 802.031 252.709 802.031 253.96C802.031 255.729 801.836 256.506 801.172 257.282C800.39 258.188 800.351 258.361 800.937 259.31C801.64 260.518 801.562 267.075 800.82 268.628C800.547 269.189 800.547 269.62 800.781 269.793C800.976 269.922 801.055 270.267 800.937 270.613C800.82 270.915 800.937 271.691 801.172 272.338C801.406 273.072 801.445 273.762 801.211 274.064C801.055 274.323 801.015 274.927 801.211 275.401C801.367 275.876 801.523 277.386 801.523 278.766C801.562 280.923 801.68 281.355 802.344 281.527C802.773 281.657 803.125 281.959 803.164 282.261C803.164 282.519 803.281 285.151 803.359 288.128C803.594 295.893 803.828 298.999 804.18 299.301C805 299.948 805.351 303.615 805.43 311.941L805.469 320.915L804.375 320.958C803.789 321.001 803.164 320.958 802.93 320.915C802.383 320.785 799.57 320.526 795.43 320.224C791.719 319.922 787.422 320.526 786.367 321.475C785.82 321.993 779.375 323.762 776.172 324.28C774.414 324.582 771.367 326.135 770.898 326.954C770.781 327.213 768.672 328.852 766.25 330.621C763.008 332.951 760.82 335.022 758.086 338.171C756.055 340.544 754.18 342.485 753.945 342.485C753.711 342.485 753.516 342.744 753.516 343.089C753.516 343.391 752.656 345.116 751.562 346.842C750.508 348.611 749.609 350.336 749.609 350.725C749.609 351.113 749.336 351.674 749.023 351.976C748.711 352.278 748.437 352.839 748.437 353.227C748.437 353.615 748.164 354.305 747.851 354.737C747.539 355.211 747.266 356.031 747.266 356.506C747.266 357.023 747.031 358.016 746.719 358.706C746.406 359.396 746.055 361.035 745.898 362.33C745.742 363.624 745.469 364.875 745.312 365.134C745.156 365.349 745.039 366.73 745 368.154C745 370.354 744.766 371.26 743.398 374.064C742.344 376.221 741.797 377.946 741.797 378.982C741.797 380.664 741.016 382.045 738.125 385.539C736.601 387.394 733.984 392.571 733.984 393.779C733.984 394.513 729.14 400.293 728.555 400.293C728.359 400.293 728.086 400.854 727.93 401.588C727.812 402.278 727.344 403.313 726.953 403.874C726.562 404.435 726.094 405.47 725.976 406.16C725.586 408.059 724.922 409.827 724.023 411.51C723.164 413.02 722.578 414.875 722.422 416.471C722.344 416.946 722.187 418.671 722.031 420.354C721.719 423.46 720.508 426.695 719.258 427.731C718.672 428.162 718.555 428.982 718.555 432.778C718.555 437.092 718.515 437.351 717.539 438.43C716.64 439.422 716.445 440.155 715.976 444.426C715.078 452.321 715.469 463.365 716.719 466.73C717.578 469.016 717.734 469.577 717.812 471.13C717.89 472.295 718.32 473.287 719.375 474.625C720.625 476.221 720.859 476.782 720.859 478.637C720.898 480.233 721.133 481.009 721.797 481.743C722.265 482.261 722.656 482.994 722.656 483.382C722.656 483.727 722.851 484.461 723.125 484.978C723.398 485.496 723.555 486.445 723.476 487.049C723.437 487.653 723.672 488.387 723.984 488.732C724.336 489.034 724.609 489.551 724.609 489.896C724.609 490.587 728.086 494.297 728.75 494.34C728.984 494.34 729.648 494.728 730.195 495.203C731.055 495.979 731.172 496.368 731.094 498.352C731.015 499.56 731.055 500.854 731.172 501.156C731.367 501.803 732.578 501.846 733.555 501.156C734.14 500.768 734.492 500.811 735.312 501.372C735.859 501.803 736.328 502.407 736.328 502.709C736.328 503.054 736.953 503.874 737.695 504.564C738.476 505.211 739.648 506.376 740.351 507.11C741.055 507.886 741.992 508.533 742.383 508.619C743.125 508.792 744.57 511.122 744.258 511.682C743.984 512.286 745.82 514.573 746.953 515.004C747.539 515.22 748.047 515.695 748.047 516.04C748.047 516.816 749.297 518.067 750.039 518.067C750.351 518.067 750.937 518.456 751.289 518.973C751.68 519.448 752.5 520.052 753.086 520.267C753.906 520.569 754.57 521.475 755.469 523.287C756.367 525.142 757.109 526.091 758.164 526.652C758.945 527.127 759.961 527.99 760.351 528.594C760.781 529.198 761.367 529.715 761.641 529.715C761.914 529.715 762.07 529.845 761.953 530.06C761.484 530.923 767.344 537.912 768.594 537.912C768.711 537.912 769.336 538.343 769.922 538.904C773.086 541.665 773.984 542.053 779.492 543.348C780.976 543.693 782.344 544.211 782.5 544.513C782.891 545.203 782.891 546.022 782.461 546.281C782.266 546.411 782.109 548.481 782.07 550.897C781.992 554.133 782.148 555.513 782.578 556.247C782.891 556.764 783.281 557.972 783.398 558.878C783.555 559.784 783.906 560.949 784.141 561.424C784.414 561.898 784.844 563.149 785.117 564.228C785.625 566.169 785.859 566.859 786.68 569.103C786.914 569.75 787.109 570.656 787.109 571.087C787.109 571.519 787.383 572.123 787.695 572.424C788.008 572.726 788.242 573.201 788.203 573.46C788.164 573.719 788.594 575.013 789.18 576.35C789.726 577.688 790.391 579.629 790.625 580.664C791.601 584.892 791.836 586.1 792.07 587.955C792.187 589.034 792.461 590.112 792.617 590.371C792.812 590.63 793.086 591.795 793.203 592.959C793.32 594.124 793.594 595.548 793.789 596.152C793.984 596.756 794.297 599.042 794.453 601.286C794.687 604.694 794.844 605.427 795.508 605.815C795.937 606.074 796.367 606.333 796.445 606.376C796.523 606.462 796.328 606.851 796.015 607.239C795.625 607.714 795.312 609.31 795.195 611.467C794.961 614.745 794.922 614.961 793.476 616.428C791.562 618.326 785.742 621.605 784.18 621.605C783.555 621.605 782.578 621.993 782.031 622.468C781.484 622.942 780.508 623.33 779.805 623.33C779.141 623.33 778.476 623.503 778.359 623.719C778.203 623.934 777.383 624.236 776.445 624.409C775.547 624.582 774.492 625.013 774.141 625.358C773.789 625.703 773.32 625.876 773.086 625.746C772.851 625.574 772.031 625.919 771.211 626.523C769.648 627.645 763.711 629.931 760.976 630.449C760.117 630.621 759.375 630.923 759.375 631.139C759.375 631.355 759.023 631.527 758.594 631.527C758.203 631.527 757.07 632.002 756.094 632.606C755.117 633.21 754.062 633.684 753.75 633.684C753.125 633.684 751.172 636.229 751.172 637.092C751.172 638.128 752.461 639.724 753.32 639.724C753.789 639.724 754.531 640.069 755 640.5C755.781 641.234 756.484 641.277 763.633 641.148C770.312 641.018 771.641 641.104 772.93 641.708C774.062 642.269 775.469 642.442 779.141 642.399C781.719 642.355 784.375 642.14 784.961 641.881C786.601 641.191 788.984 641.751 789.687 642.959C790.625 644.556 792.265 644.901 798.789 644.858C804.844 644.858 804.844 644.814 806.992 643.477C808.945 642.226 809.531 642.097 812.539 642.053C814.375 642.053 816.094 641.881 816.328 641.708C816.601 641.536 818.437 641.277 820.43 641.148C822.734 641.018 824.375 640.673 825 640.242C825.664 639.767 827.187 639.465 829.961 639.379C832.734 639.249 834.101 639.034 834.414 638.602C834.648 638.257 835.117 637.998 835.43 637.998C835.703 637.998 836.328 637.61 836.797 637.135C837.265 636.661 838.125 636.273 838.711 636.273C840.312 636.273 843.711 634.418 844.023 633.382C844.14 633.08 843.594 632.433 842.851 631.872C842.109 631.311 840.508 630.06 839.336 629.025C838.125 628.033 836.992 627.213 836.797 627.213C836.601 627.213 836.211 626.954 835.976 626.609C835.742 626.307 835.039 625.919 834.453 625.789C833.867 625.66 832.109 624.452 830.547 623.158C828.984 621.864 826.992 620.526 826.133 620.138C825.234 619.75 823.555 618.714 822.305 617.808C821.094 616.946 819.57 615.91 818.945 615.565C817.344 614.702 817.187 614.357 817.187 612.071C817.187 610.69 816.992 609.957 816.601 609.784C816.289 609.655 816.015 609.094 816.015 608.533C816.015 607.929 815.742 607.239 815.43 606.937C815.117 606.635 814.844 606.16 814.844 605.815C814.844 605.513 814.023 604.823 813.047 604.262C811.133 603.227 808.867 600.38 806.953 596.713C806.328 595.505 805.547 594.254 805.273 593.995C804.961 593.693 804.687 592.959 804.687 592.312C804.687 591.708 804.375 590.587 803.984 589.896C803.594 589.163 803.125 587.998 802.969 587.308C802.422 584.72 801.562 579.456 801.133 576.307C800.937 574.538 800.586 572.252 800.351 571.217C800.156 570.224 800 566.471 800 562.847C800 557.368 799.883 556.204 799.336 555.513C798.75 554.78 798.789 554.737 800.195 554.737C801.211 554.737 801.992 555.039 802.656 555.686C803.437 556.549 804.062 556.678 807.344 556.808C810.117 556.937 811.328 557.153 811.836 557.67C812.422 558.231 812.734 558.274 813.789 557.843C814.57 557.541 817.148 557.412 820.703 557.498C826.562 557.627 833.594 557.11 834.961 556.419C835.937 555.945 838.828 555.47 840.469 555.513C841.367 555.513 841.836 555.255 842.226 554.478C842.695 553.443 842.89 553.443 846.406 553.486C848.633 553.529 850.234 553.356 850.508 553.054C851.015 552.494 858.242 552.407 861.367 552.968C864.609 553.572 871.172 552.623 872.383 551.372C872.89 550.854 873.711 550.423 874.258 550.423C874.805 550.423 875.43 550.207 875.664 549.948C875.859 549.733 876.875 549.258 877.851 548.913L879.687 548.309L879.922 549.474C880.039 550.121 880.312 551.286 880.547 552.062C881.094 554.09 880.976 562.028 880.39 562.847C879.805 563.581 879.883 564.616 880.742 567.118C881.406 569.146 881.172 572.424 880.234 573.891C879.922 574.366 879.687 575.315 879.687 576.005C879.687 577.731 878.633 579.974 877.305 581.225C876.68 581.829 876.172 582.563 876.172 582.908C876.172 583.77 872.89 586.661 871.953 586.661C871.406 586.661 871.211 586.963 871.172 587.998C871.172 588.732 870.976 589.551 870.781 589.81C870.586 590.112 870.312 590.975 870.234 591.795C870.078 593.046 870.234 593.434 871.601 594.814L873.125 596.411L871.445 598.568C868.437 602.407 861.015 610 858.789 611.553C857.226 612.632 856.64 613.322 856.64 614.012C856.64 614.573 856.523 615.134 856.367 615.306C856.211 615.436 856.055 615.91 856.015 616.342C855.976 616.73 855.82 617.463 855.664 617.938C855.469 618.671 855.664 618.93 856.719 619.318C859.219 620.311 866.797 619.793 868.398 618.542C869.609 617.636 873.203 616.989 873.906 617.593C874.18 617.852 875.976 618.154 877.93 618.326C879.844 618.456 881.601 618.801 881.797 619.016C882.031 619.275 882.5 619.448 882.89 619.448C883.242 619.448 883.75 619.793 883.945 620.267C884.258 620.915 885.039 621.087 888.359 621.346C893.476 621.734 895.898 622.338 897.656 623.589C898.984 624.538 901.562 624.927 901.562 624.107C901.562 623.934 901.992 623.762 902.5 623.762C903.047 623.762 903.555 623.632 903.672 623.417C903.75 623.244 904.492 623.115 905.273 623.158C906.172 623.201 906.758 623.028 906.914 622.64C907.265 621.605 911.953 619.448 913.281 619.707C913.945 619.879 914.687 619.793 915 619.491C915.312 619.232 916.68 619.016 918.203 619.06C919.961 619.103 921.719 618.801 923.242 618.283C925.039 617.593 926.289 617.463 928.711 617.593C930.43 617.722 931.992 617.981 932.226 618.197C932.422 618.412 933.633 618.585 934.883 618.585C936.562 618.585 937.5 618.369 938.281 617.722C938.906 617.248 939.531 616.902 939.726 616.946C940.273 617.118 942.969 615.953 942.969 615.522C942.969 615.306 942.344 614.702 941.601 614.185C940.859 613.624 940.195 612.804 940.078 612.33C939.961 611.769 938.906 610.949 937.383 610.086C934.961 608.792 934.219 608.533 930.664 608.016C926.758 607.412 925.937 607.239 925.39 606.764C923.515 605.211 921.992 604.651 918.789 604.435C916.836 604.305 914.726 603.874 913.75 603.399C912.812 602.968 911.328 602.623 910.43 602.623C909.414 602.623 908.437 602.278 907.812 601.76C907.265 601.286 906.562 600.897 906.211 600.897C905.859 600.897 905.351 600.595 905.078 600.25C904.805 599.905 904.375 599.603 904.14 599.603C902.148 599.603 895.859 593.909 896.328 592.528C896.484 592.14 896.172 591.45 895.547 590.846C895 590.285 894.531 589.379 894.531 588.904C894.531 588.43 894.336 587.481 894.101 586.79C893.867 586.143 893.711 583.9 893.711 581.829C893.75 579.758 893.594 577.99 893.359 577.817C893.164 577.688 893.008 577.041 893.008 576.393C893.008 575.746 892.93 574.452 892.812 573.503C892.695 572.554 892.617 567.506 892.617 562.243C892.617 555.211 892.773 552.278 893.164 551.027C893.476 550.121 893.711 548.827 893.75 548.179C893.75 547.532 893.945 546.885 894.14 546.756C894.375 546.583 894.492 544.987 894.453 542.873C894.375 539.508 894.414 539.206 895.312 538.387C895.859 537.912 896.562 537.524 896.914 537.481C897.265 537.481 897.851 537.049 898.281 536.575C898.672 536.057 899.648 535.194 900.39 534.676C901.133 534.116 902.148 533.296 902.617 532.778C903.086 532.261 903.672 531.872 903.906 531.872C904.14 531.872 904.492 531.398 904.726 530.837C905.195 529.758 906.094 529.284 907.851 529.284C908.789 529.284 910.547 527.731 910.547 526.911C910.547 525.789 912.109 523.201 913.476 522.123C914.336 521.432 915.351 520.44 915.742 519.922C916.133 519.362 916.719 518.93 917.031 518.93C917.305 518.93 917.812 518.283 918.086 517.55C918.398 516.773 918.906 515.867 919.258 515.522C919.648 515.22 919.922 514.702 919.922 514.4C919.922 514.098 920.547 513.538 921.289 513.149C922.031 512.761 922.656 512.157 922.656 511.812C922.656 511.467 923.125 510.949 923.75 510.647C924.336 510.345 924.805 509.784 924.805 509.439C924.805 509.094 925.273 508.533 925.898 508.231C926.64 507.843 926.953 507.325 926.953 506.549C926.953 505.384 928.867 503.141 930.898 501.933C931.523 501.544 932.07 500.638 932.344 499.56C932.656 498.525 933.281 497.489 934.023 496.885C934.687 496.368 935.117 495.72 935 495.375C934.883 495.073 935.234 494.426 935.742 493.995C936.211 493.563 936.64 492.744 936.68 492.14C936.719 489.551 937.187 487.869 937.89 487.869C938.476 487.869 938.867 487.351 939.258 486.143C939.726 484.633 940.312 483.555 940.625 483.555C941.406 483.555 942.969 481.484 942.734 480.794C942.578 480.276 942.89 479.931 943.906 479.456C945.859 478.55 946.601 477.17 946.055 475.531C945.664 474.366 945.742 474.15 947.031 472.597C947.812 471.648 948.437 470.526 948.437 470.138C948.437 469.707 948.594 469.275 948.789 469.146C948.945 469.016 949.219 467.938 949.375 466.773C949.492 465.608 949.961 464.185 950.39 463.581C950.82 462.977 951.172 462.243 951.172 461.984C951.172 461.682 952.031 460.216 953.086 458.749C954.14 457.282 955.234 455.211 955.508 454.176C955.781 453.141 956.133 452.062 956.289 451.846C957.461 449.948 958.125 443.477 957.461 440.198C957.265 439.292 957.383 438.602 957.89 437.783C958.789 436.488 959.336 430.794 958.633 430.319C958.398 430.147 958.203 429.37 958.203 428.55C958.203 427.731 958.047 426.954 957.812 426.825C957.305 426.48 956.523 423.33 956.445 421.432C956.445 420.569 956.015 419.016 955.547 417.938C955.078 416.859 954.687 415.781 954.687 415.479C954.687 415.22 954.258 414.271 953.711 413.408C953.164 412.545 952.734 411.294 952.734 410.69C952.734 410.043 952.578 409.353 952.383 409.137C952.187 408.878 951.953 408.231 951.875 407.67C951.836 407.11 951.406 406.419 950.976 406.16C950.547 405.902 950.117 405.643 950.039 405.557C949.961 405.513 949.844 405.125 949.805 404.694C949.57 402.364 947.734 398.223 947.187 398.783C946.758 399.258 946.015 397.662 946.015 396.238C946.015 394.642 944.609 392.744 943.203 392.442C942.773 392.399 942.109 391.622 941.68 390.802C941.25 389.983 939.765 388.128 938.359 386.704C936.953 385.28 935.039 383.296 934.101 382.304C933.086 381.225 932.148 380.578 931.836 380.707C931.25 380.966 930.078 379.974 930.078 379.198C930.078 378.939 929.648 378.464 929.18 378.076C928.672 377.731 928.047 376.652 927.773 375.703C927.539 374.754 927.148 373.978 926.992 373.978C926.484 373.978 924.765 370.526 924.453 368.973C924.297 368.24 923.75 367.161 923.242 366.644C922.734 366.126 922.226 364.961 922.07 364.055C921.914 363.149 921.562 362.071 921.289 361.596C920.976 361.165 920.703 360.561 920.703 360.259C920.703 359.957 920.078 358.576 919.297 357.239C917.812 354.737 915.625 349.819 915.625 349.042C915.625 348.827 915.273 348.179 914.883 347.575C914.453 347.015 913.984 346.022 913.867 345.418C913.711 344.814 912.656 343.391 911.445 342.269C910.273 341.104 909.062 339.594 908.75 338.818C908.125 337.135 905.078 333.986 903.281 333.167C902.539 332.821 901.953 332.304 901.953 332.002C901.914 331.225 898.711 328.68 897.734 328.68C897.265 328.68 895.976 327.86 894.844 326.825C891.758 324.064 890.937 323.503 890 323.503C889.531 323.503 889.062 323.287 888.984 323.028C888.906 322.726 887.851 322.424 886.64 322.338C884.805 322.209 884.18 321.907 883.125 320.828C882.422 320.095 881.094 318.844 880.195 318.024C879.297 317.204 878.437 316.169 878.32 315.695C878.164 315.263 877.109 313.753 875.937 312.416C874.765 311.035 873.867 309.741 873.984 309.482C874.062 309.223 873.555 307.67 872.851 306.031C871.953 304.047 871.64 302.882 871.914 302.537C872.344 301.976 872.265 299.776 871.758 299.042C871.562 298.74 871.289 293.261 871.172 286.833L870.976 275.142L872.226 273.805C872.93 273.072 873.867 272.209 874.336 271.95C875.976 270.958 878.32 269.491 878.711 269.146C878.945 268.973 879.805 268.585 880.664 268.326C881.523 268.024 882.93 267.42 883.789 266.989C887.578 265.004 889.297 264.745 896.328 265.263C899.922 265.522 903.437 265.608 904.101 265.436C905.351 265.177 908.711 266.385 912.226 268.326C913.086 268.801 914.062 269.06 914.414 268.93C914.765 268.801 915.43 269.016 915.859 269.362C916.25 269.707 916.875 270.009 917.187 270.009C917.5 270.009 918.633 270.397 919.726 270.828C920.781 271.303 922.695 271.993 923.945 272.381C925.156 272.77 926.172 273.244 926.172 273.46C926.172 273.762 926.719 273.978 929.883 274.754C930.742 274.97 931.992 275.272 932.617 275.444C933.281 275.574 934.336 276.178 935.039 276.739C935.703 277.299 936.406 277.774 936.523 277.774C936.797 277.774 938.242 278.464 941.992 280.362C945.625 282.217 951.094 284.245 952.5 284.245C953.164 284.245 953.906 284.418 954.14 284.676C954.336 284.892 956.406 285.108 958.711 285.151C961.015 285.151 963.633 285.453 964.57 285.755C965.469 286.014 967.539 286.316 969.14 286.359C972.617 286.445 975.43 287.049 977.383 288.171C979.531 289.379 981.68 289.249 982.89 287.783C983.437 287.135 984.101 286.186 984.336 285.669C985 284.202 984.765 280.492 983.906 279.284C983.515 278.723 983.281 277.99 983.398 277.688C983.515 277.343 983.008 276.566 982.148 275.789C980.195 274.064 973.555 269.491 971.992 268.758C971.289 268.456 970.508 267.938 970.273 267.593C970.039 267.248 969.609 266.989 969.297 266.989C969.023 266.989 968.125 266.514 967.344 265.91C966.523 265.306 965.586 264.832 965.273 264.918C964.609 265.004 962.148 263.71 960 262.071C959.219 261.51 957.461 260.388 956.055 259.612C954.648 258.835 953.515 257.972 953.515 257.714C953.515 257.455 952.93 256.894 952.265 256.506C951.055 255.815 949.922 254.996 946.25 252.278C943.203 250.035 930.078 235.798 930.078 234.763C930.078 234.547 929.57 233.814 928.945 233.08C928.359 232.39 927.109 230.449 926.172 228.809C925.273 227.127 924.414 225.703 924.258 225.574C922.89 224.366 921.094 219.362 921.094 216.773C921.094 215.651 920.898 215.22 920.312 215.004C919.883 214.832 919.531 214.487 919.57 214.228C919.609 213.926 919.375 212.977 919.023 212.114C918.633 211.208 918.359 210.129 918.359 209.698C918.359 209.223 918.086 208.619 917.773 208.318C917.461 208.016 917.187 207.584 917.187 207.325C917.187 207.066 916.875 206.462 916.484 205.988C916.094 205.47 915.43 204.219 915.039 203.141C914.648 202.062 913.75 200.509 913.086 199.689C912.422 198.87 911.484 197.619 911.015 196.928C909.336 194.469 906.406 191.277 905.078 190.457C904.336 189.983 902.851 188.775 901.797 187.783C900.742 186.79 899.687 186.057 899.414 186.143C899.14 186.273 898.281 185.798 897.539 185.065C896.797 184.331 895.898 183.727 895.547 183.727C894.883 183.727 892.344 182.261 891.367 181.311C891.015 180.966 888.906 180.017 886.68 179.198C882.383 177.601 878.164 176.997 872.578 177.127C869.805 177.213 869.492 177.127 868.828 176.178C868.086 175.142 867.93 175.142 863.047 175.229C860.273 175.272 856.015 175.531 853.594 175.833Z" fill="black"/>
</svg>
