<svg width="1700" height="820" viewBox="0 0 1700 820" fill="none" xmlns="http://www.w3.org/2000/svg">
<rect width="1700" height="820" fill="#1D1D1D"/>
<path d="M810.112 161.176C749.065 167.82 711.803 188.675 711.645 215.989V223.925L699.753 231.307C646.634 264.896 625.229 310.482 625.229 389.841C625.229 485.81 659.161 554.65 727.501 597.651C733.685 601.342 738.759 604.664 739.076 605.033C739.393 605.218 738.125 608.171 736.38 611.493C727.184 629.026 738.6 643.606 767.617 651.911C808.526 663.538 886.697 662.43 926.496 649.88C947.902 643.052 962.965 630.871 962.965 620.167C962.965 618.506 961.221 614.63 958.843 611.493L954.879 605.956L964.234 600.419C991.982 584.179 1023.54 552.804 1040.5 524.567C1083.95 452.59 1086.17 366.402 1046.69 292.58C1037.01 274.309 1011.64 242.381 996.898 229.831C989.287 223.371 986.908 220.418 987.701 217.835C988.969 212.667 983.103 199.379 976.443 192.55C964.075 180.001 938.388 169.665 904.297 163.76C884.001 160.253 831.517 158.777 810.112 161.176ZM905.09 169.112C924.91 172.803 948.536 180.185 959.16 185.722C968.991 191.074 979.297 201.594 981.993 208.976C985.957 220.049 977.236 233.337 960.587 241.458C926.813 257.883 854.033 263.235 792.194 254.008C742.406 246.625 716.402 233.153 716.402 214.882C716.402 192.366 751.285 173.91 807.575 166.712C827.078 164.129 886.063 165.605 905.09 169.112ZM995.153 236.106C1033.53 270.433 1060.48 321.371 1067.62 373.6C1070.63 394.824 1068.88 430.812 1063.97 452.775C1045.1 536.563 978.504 603.003 896.686 619.613C833.42 632.532 762.226 614.815 707.522 572.367C688.336 557.418 662.808 527.889 653.928 510.541C639.023 480.827 631.254 444.285 630.937 401.837C630.778 373.231 633.632 347.762 636.962 346.286C638.072 345.732 659.795 349.239 685.482 353.852C733.368 362.527 754.615 364.557 717.987 356.99C691.666 351.453 660.429 342.595 651.708 338.35C638.865 331.89 638.072 324.877 649.647 316.941C670.736 302.546 723.22 291.657 797.744 286.305C837.226 283.537 940.449 285.198 966.137 289.073C1010.69 295.717 1029.24 303.838 1027.66 316.203C1025.44 334.289 971.845 344.256 877.342 344.256C796.951 344.44 745.736 338.165 745.736 328.384C745.736 326.907 746.687 325.246 747.955 324.693C753.188 322.293 777.606 319.525 817.723 316.941C860.059 314.173 872.744 312.327 850.545 312.327C816.93 312.327 753.346 319.156 738.125 324.323C713.547 332.813 743.674 343.886 812.332 351.269C844.52 354.775 933.156 354.406 959.318 350.53C1000.39 344.44 1021.47 337.242 1033.37 325.062C1046.05 311.958 1044.31 305.683 1026.55 299.224C997.532 288.889 945.682 282.983 869.414 281.506C763.177 279.476 688.812 288.335 648.696 307.713C646.476 308.821 646.317 308.082 647.269 302.73C651.55 280.768 673.114 253.823 699.753 236.844C706.254 232.784 712.596 229.277 713.706 229.277C714.975 229.277 718.78 232.045 722.11 235.552C750.968 264.158 883.209 273.57 949.012 251.608C962.014 247.179 978.187 237.397 981.676 231.676C983.261 229.462 984.53 227.431 984.847 227.431C985.164 227.431 989.762 231.307 995.153 236.106ZM764.129 616.107C819.942 639.361 886.538 638.069 940.767 612.6L950.756 607.802L955.196 613.154C957.733 616.107 959.794 619.244 959.794 620.167C959.794 624.227 951.073 633.824 943.621 638.253C906.359 660.216 785.693 661.692 750.334 640.837C743.516 636.777 736.222 627.18 736.222 622.382C736.222 617.029 744.15 607.248 747.163 608.724C748.59 609.463 756.201 612.785 764.129 616.107Z" fill="black"/>
<path d="M804.404 180.739C757.786 185.906 731.465 195.134 731.465 206.023C731.465 212.298 736.063 216.174 749.383 220.972C773.484 230.015 792.67 232.045 849.594 232.045C906.517 232.045 925.703 230.015 949.805 220.972C963.124 216.174 967.722 212.298 967.722 206.023C967.722 189.967 918.568 179.262 847.215 179.816C826.761 180.001 807.416 180.37 804.404 180.739ZM915.555 187.567C945.048 192.366 965.344 200.302 964.234 206.577C963.124 213.221 945.841 219.68 915.555 225.032C889.393 229.646 809.795 229.646 783.632 225.032C753.664 219.865 734.636 212.482 734.636 206.208C734.636 199.564 760.482 190.52 789.34 187.014C798.061 185.906 807.733 184.614 810.746 184.245C823.272 182.584 899.541 184.984 915.555 187.567Z" fill="black"/>
<path d="M844.52 395.747C843.568 397.039 839.129 406.635 834.689 416.786L826.444 435.426L810.27 443.178C801.391 447.422 790.292 453.882 785.852 457.388C781.253 460.895 776.18 463.663 774.752 463.663C771.264 463.848 766.824 466.801 760.006 473.445C754.139 479.351 754.298 483.78 760.799 492.823C767.617 502.236 787.913 515.154 798.854 517C799.805 517 803.928 518.477 808.05 520.138C812.332 521.799 817.564 522.721 819.943 522.168C823.431 521.429 825.968 523.275 835.64 533.979C851.972 551.881 854.192 550.589 841.348 530.473C839.129 526.966 838.019 523.644 838.653 522.906C839.446 521.983 848.484 518.846 858.79 515.708L877.342 509.987L885.111 528.812L892.722 547.636L894.784 542.1C895.894 538.962 897.162 531.949 897.638 526.228C898.272 516.815 897.955 515.524 894.15 512.202C888.758 507.219 888.917 503.897 894.308 504.635C897.796 505.004 902.395 510.725 917.617 533.795C931.729 555.203 936.168 560.924 935.534 556.864C934.107 547.821 928.24 530.842 924.276 524.198C921.581 519.399 921.105 517 922.215 514.047C923.642 510.356 922.374 504.081 917.775 490.978C916.824 488.209 917.775 488.394 923.483 492.085C927.289 494.484 933.631 497.622 937.278 498.914C942.987 500.759 945.206 502.974 949.329 510.541C955.83 522.537 965.819 533.056 968.198 530.288C972.321 525.49 960.27 488.948 949.329 473.445C945.999 468.646 939.974 463.479 933.631 459.788C923.959 454.251 922.691 454.066 909.53 454.989C901.76 455.543 893.991 456.466 892.247 457.204C889.234 458.311 888.758 457.573 887.807 451.852C886.38 443.547 878.928 433.212 870.682 428.413C867.353 426.383 864.974 423.984 865.608 422.876C867.67 419.001 864.34 411.803 856.57 402.76C847.691 392.794 846.898 392.24 844.52 395.747ZM795.683 473.26C797.902 474.368 799.647 476.213 799.647 477.32C799.647 478.428 798.854 478.243 797.744 476.951C795.524 474.368 787.913 473.998 783.79 476.582C779.668 479.166 778.399 487.102 781.412 492.454C783.315 495.776 785.218 496.883 789.816 496.883C796.158 496.883 799.647 494.669 802.659 488.578C804.404 485.072 804.404 485.072 804.086 489.501C803.452 495.222 797.744 498.729 788.547 498.729C779.509 498.729 777.448 496.33 777.448 486.733C777.448 478.428 778.399 476.213 782.998 473.26C787.12 470.492 790.609 470.492 795.683 473.26Z" fill="black"/>
<path d="M821.845 571.628C798.695 575.873 767.934 584.916 767.934 587.316C767.934 588.054 773.484 589.53 780.302 590.822C795.683 593.775 942.352 596.174 942.352 593.406C942.352 589.715 918.885 578.272 903.505 574.397C883.05 569.229 841.824 567.753 821.845 571.628Z" fill="black"/>
</svg>
