<svg width="1700" height="820" viewBox="0 0 1700 820" fill="none" xmlns="http://www.w3.org/2000/svg">
<rect width="1700" height="820" fill="#1D1D1D"/>
<g clip-path="url(#clip0_272_4)">
<path d="M669.755 194.143C668.565 194.774 666.675 195.997 665.555 196.864C664.435 197.692 663 198.599 662.37 198.914C661.74 199.19 660.655 199.939 659.955 200.531C658.625 201.753 657.33 202.226 654.285 202.66C652.85 202.896 652.115 203.251 651.1 204.276C650.365 205.026 648.475 206.327 646.865 207.155C645.255 207.983 643.47 209.166 642.91 209.757C641.93 210.782 641.93 210.861 642.14 213.621C642.525 218.273 642.805 218.825 647.215 223.754C649.455 226.238 651.765 228.88 652.29 229.589C652.85 230.338 654.39 231.718 655.65 232.665C657.96 234.36 659.535 235.937 662.685 239.762C663.56 240.826 664.75 242.088 665.345 242.561C665.94 243.074 667.025 244.493 667.725 245.715C669.65 249.067 670.28 249.737 672.8 251.156C674.06 251.866 675.915 253.088 676.965 253.877C677.98 254.666 678.89 255.296 678.995 255.296C679.1 255.296 679.87 256.006 680.675 256.834C682.145 258.332 684 259.239 685.715 259.239C686.345 259.239 686.485 259.397 686.275 259.909C685.785 261.329 685.68 263.497 686.065 264.325C686.555 265.351 688.725 266.612 690.58 266.967C691.84 267.204 692.015 267.361 692.225 268.584C692.4 269.766 692.225 270.358 691.21 272.25C689.705 274.971 689.67 275.917 690.86 277.889C691.665 279.269 691.84 279.347 692.995 279.111C694.08 278.874 694.22 278.914 694.01 279.584C691.945 287.312 691.98 287.154 692.19 292.95C692.54 303.399 694.29 311.6 698.84 324.217C700.625 329.106 701.22 331.274 701.64 334.547C701.955 336.834 702.515 340.224 702.865 342.156C703.425 344.995 703.565 347.597 703.635 356.903L703.74 368.179L702.445 368.692C701.745 368.968 700.24 369.914 699.12 370.821L697.055 372.477L694.745 372.082C690.37 371.294 687.395 369.046 683.65 363.724C682.075 361.437 680.71 359.899 679.8 359.386C677.105 357.849 676.335 358.558 677.105 361.949C677.49 363.724 677.63 363.921 678.505 363.96C679.24 364 680.08 364.67 681.69 366.523C685.295 370.623 689.39 374.093 691.35 374.645C693.38 375.237 686.73 375.591 681.375 375.158C674.13 374.566 674.795 374.409 672.275 377.247C669.37 380.52 667.9 383.162 667.9 385.094C667.9 386.631 668.25 387.026 670.035 387.499C670.84 387.735 670.98 387.617 671.33 386.276C671.575 385.488 672.59 383.674 673.605 382.255C675.985 378.982 676.685 378.785 683.51 379.653C690.615 380.559 691.91 380.481 695.76 379.022C698.7 377.918 699.12 377.839 699.575 378.351C700.065 378.864 699.995 379.061 699.155 379.968C697.755 381.427 692.995 385.212 690.3 386.986C688.025 388.484 687.99 388.524 687.57 390.811C686.975 394.044 686.975 394.004 688.585 394.477C690.545 395.069 691.14 394.872 691.35 393.492C691.49 392.506 692.225 391.796 696.215 388.8C698.805 386.907 701.71 384.384 702.69 383.28C706.085 379.377 710.635 373.383 712.14 370.781C713.925 367.666 715.92 362.225 716.655 358.401C717.915 351.935 717.635 343.655 716.025 337.701C715.535 335.887 715.045 333.049 714.94 331.393C714.8 329.776 714.1 325.715 713.33 322.403C712.595 319.091 712 316.055 712.07 315.7C712.175 315.227 713.68 316.646 717.425 320.747C720.33 323.901 724.25 327.844 726.175 329.539C728.1 331.195 730.27 333.285 730.97 334.231C736.92 342.078 747.875 355.601 751.9 360.175C759.81 369.046 771.78 381.23 773.775 382.412C776.47 384.029 781.93 388.76 784.485 391.757L787.46 395.227L785.535 395.66C779.83 396.961 769.645 401.062 762.225 405.123C759.915 406.385 757.57 407.528 757.045 407.646C756.485 407.804 755.645 408.396 755.155 408.987C753.86 410.564 749.555 420.934 749.03 423.733L748.575 426.138L749.8 427.242C758.515 435.167 762.89 439.899 764.325 442.856C765.025 444.354 765.515 444.945 766.04 444.945C766.53 444.985 767.545 446.128 769.225 448.533C771.85 452.358 776.505 457.129 782.98 462.609C785.15 464.423 787.215 466.355 787.565 466.867C787.915 467.38 788.335 467.814 788.51 467.814C789.035 467.814 793.235 471.126 793.9 472.072C795.93 474.95 793.585 476.527 783.96 478.696L777.45 480.194L773.495 479.327C768.49 478.223 767.51 478.223 766.81 479.327C766.005 480.628 766.11 481.968 767.055 482.363C767.475 482.56 769.96 482.994 772.55 483.348C777.73 484.058 778.5 484.255 778.5 484.768C778.5 485.162 776.645 486.424 775 487.133C774.335 487.449 773.145 488.159 772.375 488.711C770.59 490.091 769.05 490.643 765.27 491.273C763.59 491.589 761.035 492.259 759.6 492.851C755.54 494.428 754.315 494.507 752.53 493.324C751.69 492.772 750.71 491.983 750.36 491.51C749.415 490.367 749.1 490.485 749.1 491.983C749.1 493.087 748.89 493.442 747.875 494.073C746.23 495.059 746.125 495.689 747.455 496.636C748.365 497.306 748.89 497.385 750.325 497.148C751.305 496.99 754.455 496.833 757.395 496.833C762.33 496.793 762.75 496.714 763.765 495.887C764.36 495.413 765.655 494.822 766.635 494.625C767.615 494.428 768.56 494.152 768.735 494.033C769.26 493.639 769.085 494.507 768.385 495.887C768 496.596 767.125 498.844 766.39 500.894C765.27 504.048 764.71 505.073 762.75 507.4C760.44 510.159 758.55 513.59 758.55 515.088C758.55 515.482 757.5 517.335 756.205 519.188C754.875 521.042 753.335 523.328 752.74 524.275C752.04 525.418 750.535 526.877 748.61 528.296C746.965 529.519 745.425 530.899 745.215 531.372C744.865 532.121 744.935 532.357 745.74 533.146C746.265 533.659 747 534.053 747.42 534.053C748.54 534.053 750.395 532.594 751.585 530.701C752.32 529.519 753.16 528.809 754.245 528.336C756.135 527.508 758.2 525.576 758.2 524.59C758.2 524.196 759.04 522.579 760.09 521.002C761.105 519.386 762.715 516.468 763.625 514.536C765.48 510.593 768.035 506.098 768.455 506.059C768.84 506.059 768.735 508.07 768.21 511.303C767.895 512.998 766.775 516.626 765.515 519.898C763.345 525.536 763.345 525.615 763.03 530.504C762.89 533.225 762.61 536.064 762.4 536.852C762.225 537.641 762.05 539.612 762.05 541.229C762.05 543.161 761.805 544.974 761.35 546.512C760.965 547.774 760.72 549.272 760.825 549.824C761 550.77 760.37 552.15 758.41 555.147C758.13 555.581 757.85 556.724 757.78 557.71L757.675 559.484H759.775H761.875L762.05 557.513C762.19 555.975 762.54 555.107 763.73 553.451C765.06 551.52 765.2 551.125 765.2 549.075C765.2 547.301 765.375 546.552 766.075 545.487C766.88 544.265 766.95 543.792 766.95 540.361C766.95 535.985 767.3 534.526 768.875 532.2C769.96 530.583 769.995 530.386 769.855 527.863C769.645 524.511 770.485 519.346 771.64 516.744C772.2 515.522 772.655 513.55 772.9 511.382C773.11 509.489 773.495 507.478 773.775 506.887C774.405 505.507 776.715 503.023 777.8 502.589C778.29 502.392 780.775 500.776 783.33 499.041C787.425 496.241 788.37 495.768 791.38 494.98C793.235 494.507 795.685 493.679 796.84 493.166C797.96 492.653 799.115 492.299 799.36 492.417C800.55 492.929 799.535 496.241 796.805 500.697C795.79 502.392 795.65 502.865 795.65 505.31C795.65 507.912 795.615 508.07 793.69 511.263C791.275 515.206 790.54 517.335 791.135 518.518C791.45 519.188 791.415 519.819 790.96 521.357C790.015 524.551 790.995 525.812 793.235 524.314C794.425 523.526 794.565 523.013 794.18 520.687C793.935 519.188 794.005 518.794 794.6 518.085C794.985 517.611 795.755 515.482 796.35 513.353C796.91 511.145 797.645 509.174 797.995 508.898C800.165 507.124 800.235 506.966 800.13 504.009L800.06 501.209L801.915 499.277C803.735 497.385 803.805 497.266 804.05 494.585C804.19 493.048 804.365 491.786 804.435 491.707C804.505 491.668 805.625 490.958 806.92 490.169C810.805 487.725 812.73 484.334 812.275 480.667C812.135 479.563 811.925 476.409 811.785 473.688L811.575 468.721L809.545 465.724C807.445 462.57 805.17 458.548 800.2 449.243C798.555 446.168 796.805 443.211 796.315 442.619C790.715 436.35 789.385 435.167 784.45 432.171C783.19 431.422 781.86 430.554 781.475 430.199L780.775 429.608L781.475 429.568C781.86 429.568 786.27 429.49 791.275 429.45C798.17 429.332 801.005 429.135 802.965 428.662C807.025 427.597 816.09 424.127 817.455 423.102C819.66 421.407 819.835 421.446 822.985 424.167C825.715 426.493 826.03 426.927 827.85 430.791C828.935 433.038 830.545 435.759 831.42 436.863C832.295 437.927 836.53 441.673 840.835 445.143C848.815 451.53 853.19 455.315 855.64 457.917C858.055 460.48 870.375 477.276 871.845 480.036C872.265 480.786 873.63 483.94 874.89 487.055C876.185 490.169 879.265 497.464 881.75 503.22C884.2 509.016 887.035 515.955 887.98 518.676C888.96 521.396 890.85 526.364 892.25 529.716C893.86 533.659 895.505 538.508 896.835 543.397C900.405 556.448 903.275 563.939 907.16 570.366C920.25 591.933 927.635 602.185 937.68 612.791C947.935 623.594 951.26 626.275 961.55 631.913C974.15 638.853 978 640.548 986.68 643.032C999.525 646.738 1009.43 648.237 1018.42 647.842C1024.51 647.606 1026.44 647.29 1038.02 644.885C1052.51 641.849 1056.92 640.824 1060.39 639.641C1063.92 638.458 1076.03 633.057 1079.08 631.283C1081.42 629.903 1087.93 622.293 1089.19 619.454C1090.24 617.049 1090.07 616.221 1088.56 616.655C1088.11 616.773 1086.25 618.192 1084.47 619.77C1082.68 621.347 1080.16 623.279 1078.87 624.028C1067.98 630.533 1069.42 630.021 1052.55 633.806C1038.37 637.039 1032.28 637.788 1020.35 637.867C1012.19 637.906 1011.74 637.828 996.025 633.451L987.625 631.125L980.275 626.945C968.375 620.203 962.25 615.787 952.975 607.153C947.165 601.751 947.865 602.658 934.39 583.969C929.105 576.596 924.17 566.857 921.02 557.513C920.04 554.674 918.22 549.351 916.925 545.684C914.16 537.838 909.75 523.25 908.49 517.887C908 515.837 906.425 511.224 904.955 507.636C901.28 498.568 898.83 491.668 897.325 486.148C893.195 470.613 888.89 457.641 883.92 445.852C882.205 441.752 879.195 434.418 877.235 429.49C872.51 417.701 870.76 414.349 865.965 408.001C860.4 400.589 856.795 395.266 854.415 391.126C853.295 389.155 851.895 386.907 851.265 386.079C850.285 384.739 850.18 384.423 850.32 382.649C850.425 381.427 851.02 379.534 851.825 377.76C852.525 376.183 853.295 373.857 853.54 372.595C853.75 371.333 854.1 370.229 854.275 370.15C854.485 370.071 855.955 372.989 857.565 376.617C860.89 384.108 862.57 387.223 865.405 391.008C868.52 395.108 868.975 395.266 877.62 395.266C883.36 395.266 884.9 395.148 885.215 394.714C885.46 394.399 886.265 389.667 887 384.147C888.47 373.659 889.45 367.903 890.36 364.867C891.025 362.541 893.93 359.347 896.625 357.967C899.495 356.469 901.245 356.627 904.465 358.519C906.88 359.938 907.44 360.096 910.765 360.333C913.845 360.569 914.65 360.766 916.19 361.792C917.555 362.659 918.5 362.935 919.83 362.935C921.3 362.935 921.825 363.132 922.77 364.078C924.205 365.458 925.255 366.089 926.165 366.089C926.55 366.089 927.46 366.641 928.16 367.351C929.56 368.731 929.98 368.652 931.24 366.76L931.94 365.695L931.205 363.96C930.505 362.383 930.33 362.225 928.825 361.949C926.725 361.634 923.89 360.609 920.6 359.032C919.165 358.322 917.345 357.612 916.54 357.415C913.95 356.745 911.22 355.444 909.33 353.945C907.51 352.526 907.405 352.487 903.45 352.329C900.72 352.171 899.915 352.053 900.965 351.895C902.4 351.698 902.505 351.58 902.995 350.003C903.45 348.425 903.45 348.189 902.89 347.519C902.05 346.454 900.72 346.572 898.13 347.952C896.94 348.583 895.75 349.135 895.54 349.135C895.33 349.135 894.7 349.529 894.175 350.003C893.23 350.831 893.09 350.831 890.36 350.357C888.785 350.081 887.07 349.845 886.51 349.805C885.46 349.727 885.075 349.214 884.76 347.519C884.515 346.336 883.185 345.823 881.575 346.336C879.93 346.809 879.72 347.637 880.665 350.003C881.12 351.146 881.47 352.25 881.435 352.487C881.435 352.684 881.295 354.34 881.12 356.114C880.875 359.189 880.805 359.426 879.65 360.53C878.215 361.91 876.22 362.146 875.24 361.082C874.365 360.057 872.58 356.824 871.145 353.591C870.445 352.053 869.71 350.633 869.5 350.515C869.29 350.357 868.8 350.555 868.415 350.949C867.575 351.816 867.4 351.619 866.175 347.952C864.46 342.827 862.43 338.49 858.335 331.314C855.185 325.794 854.31 324.177 853.715 322.718C853.12 321.26 850.39 318.697 847.94 317.277C847.17 316.844 845.56 316.252 844.335 315.976C842.41 315.503 841.85 315.542 839.82 316.134C838.525 316.528 836.775 317.317 835.9 317.908C834.43 318.933 834.185 319.367 832.54 323.704C829.845 330.762 827.605 339.988 827.185 345.744C826.975 348.347 826.66 350.633 826.52 350.791C826.31 351.028 825.05 349.963 823.44 348.347C820.955 345.784 782.35 302.176 782.35 301.94C782.35 301.861 782.735 301.821 783.19 301.821C784.66 301.821 785.15 300.875 784.905 298.549C784.8 297.445 784.555 296.183 784.415 295.828C783.925 294.803 778.325 291.018 771.15 286.918C767.58 284.867 764.115 282.699 763.45 282.068C762.785 281.398 760.895 280.175 759.25 279.308C754.525 276.824 754.35 276.706 748.575 270.673C742.905 264.799 738.32 260.737 734.47 258.214C733.245 257.386 731.53 255.848 730.655 254.744C729.15 252.852 719.7 239.013 713.75 229.905C710.145 224.424 709.9 224.109 708.43 222.847C707.31 221.901 707.1 221.507 707.1 220.245C707.1 217.761 704.86 213.305 702.725 211.531C701.78 210.743 698.175 207.786 694.71 204.986C690.3 201.398 688.2 199.427 687.57 198.323C685.12 193.867 684.315 193.473 677.455 193.158L671.925 192.921L669.755 194.143Z" fill="black"/>
</g>
<defs>
<clipPath id="clip0_272_4">
<rect width="448" height="455" fill="white" transform="translate(642 193)"/>
</clipPath>
</defs>
</svg>
