<svg width="1700" height="820" viewBox="0 0 1700 820" fill="none" xmlns="http://www.w3.org/2000/svg">
<rect width="1700" height="820" fill="#1D1D1D"/>
<g clip-path="url(#clip0_272_4)">
<path fill-rule="evenodd" clip-rule="evenodd" d="M884.153 409.261C877.311 408.312 870.667 405.859 864.596 402.04C860.877 399.703 856.297 396.824 851.358 393.721C823.434 376.166 790.28 373.798 761.425 387.287C761.425 387.292 761.421 387.292 761.421 387.292C753.011 391.223 749.186 402.147 752.847 411.777C754.308 415.614 755.885 419.769 757.457 423.897C764.092 441.354 777.293 454.727 793.372 460.292C796.011 461.206 798.727 462.146 801.443 463.086C823.885 470.854 847.649 471.248 869.894 464.228C871.479 463.726 873.005 463.243 874.443 462.79C881.815 460.462 889.519 459.571 897.23 460.149C905.167 460.744 915.698 461.532 923.998 462.155C932.474 462.79 940.585 458.824 945.817 451.49C945.825 451.477 945.836 451.463 945.844 451.45C950.65 444.716 950.391 434.933 945.229 428.2C939.46 420.674 931.43 415.816 922.768 414.616C911.183 413.009 894.725 410.725 884.153 409.261Z" stroke="black" stroke-width="2" stroke-miterlimit="2" stroke-linecap="round" stroke-linejoin="round"/>
<path d="M751.172 400.684C751.055 403.469 752.114 429.987 753.165 432.758C754.626 436.595 756.203 440.75 757.775 444.878C764.41 462.33 777.611 475.708 793.69 481.273C796.33 482.186 799.046 483.127 801.761 484.067C824.203 491.83 847.968 492.229 870.213 485.204C871.797 484.707 873.323 484.223 874.762 483.771C882.133 481.443 889.837 480.552 897.548 481.13C905.486 481.721 916.016 482.513 924.317 483.136C932.792 483.767 940.903 479.805 946.135 472.471C946.143 472.457 946.154 472.444 946.162 472.431C948.692 468.885 949.194 440.849 948.94 436.501" stroke="black" stroke-width="2" stroke-miterlimit="2" stroke-linecap="round" stroke-linejoin="round"/>
<path d="M877.171 460.431L896.487 439.29" stroke="black" stroke-width="2" stroke-miterlimit="2" stroke-linecap="round" stroke-linejoin="round"/>
<path d="M909.839 424.426L915.634 418.086" stroke="black" stroke-width="2" stroke-miterlimit="2" stroke-linecap="round" stroke-linejoin="round"/>
<path d="M825.29 452.596L860.057 414.54" stroke="black" stroke-width="2" stroke-miterlimit="2" stroke-linecap="round" stroke-linejoin="round"/>
<path d="M791.064 356.243C791.064 356.243 792.278 342.928 788.06 327.141" stroke="black" stroke-width="2" stroke-miterlimit="2" stroke-linecap="round" stroke-linejoin="round"/>
<path d="M906.091 356.243C906.091 356.243 904.173 342.928 907.555 327.141" stroke="black" stroke-width="2" stroke-miterlimit="2" stroke-linecap="round" stroke-linejoin="round"/>
<path d="M829.068 356.243C829.068 356.243 830.282 342.928 826.068 327.141" stroke="black" stroke-width="2" stroke-miterlimit="2" stroke-linecap="round" stroke-linejoin="round"/>
<path d="M868.086 356.243C868.086 356.243 866.168 342.928 869.546 327.141" stroke="black" stroke-width="2" stroke-miterlimit="2" stroke-linecap="round" stroke-linejoin="round"/>
</g>
<defs>
<clipPath id="clip0_272_4">
<rect width="254.397" height="286.64" fill="white" transform="matrix(1 0 0.0264507 0.99965 719.01 266.73)"/>
</clipPath>
</defs>
</svg>
