<svg width="1700" height="820" viewBox="0 0 1700 820" fill="none" xmlns="http://www.w3.org/2000/svg">
<rect width="1700" height="820" fill="#1D1D1D"/>
<g clip-path="url(#clip0_272_4)">
<path d="M849.599 323.51C849.599 317.817 851.742 315.242 854.708 311.679C858.161 307.53 862.458 302.368 862.458 292.61C862.458 282.848 858.162 277.682 854.709 273.531C851.742 269.964 849.599 267.387 849.599 261.687C849.599 258.488 846.9 255.894 843.57 255.894C840.241 255.894 837.542 258.487 837.542 261.687C837.542 271.449 841.838 276.614 845.291 280.766C848.258 284.333 850.402 286.911 850.402 292.61C850.402 298.303 848.258 300.877 845.292 304.441C841.839 308.59 837.542 313.752 837.542 323.51C837.542 333.263 841.84 338.422 845.295 342.568C848.26 346.127 850.402 348.699 850.402 354.384C850.402 357.584 853.101 360.178 856.431 360.178C859.76 360.178 862.459 357.584 862.459 354.384C862.459 344.632 858.161 339.473 854.707 335.326C851.741 331.767 849.599 329.195 849.599 323.51Z" fill="black"/>
<path d="M883.732 271.658C882.388 268.732 878.83 267.406 875.783 268.698C872.737 269.989 871.358 273.409 872.702 276.337C874.972 281.278 876.122 286.753 876.122 292.609C876.122 306.909 869.455 314.982 865.429 319.819C864.569 320.82 864.052 322.104 864.052 323.505C864.052 326.704 866.751 329.298 870.081 329.298C871.995 329.298 873.701 328.44 874.806 327.103C879.157 321.876 888.178 311.017 888.178 292.61C888.178 285.132 886.683 278.083 883.732 271.658Z" fill="black"/>
<path d="M834.925 289.368C833.079 286.707 829.335 285.987 826.565 287.762C825.852 288.219 825.273 288.797 824.837 289.449C820.37 294.829 811.821 305.594 811.821 323.51C811.821 330.929 813.295 337.926 816.203 344.306C817.194 346.481 819.407 347.778 821.728 347.778C822.535 347.778 823.355 347.621 824.143 347.289C827.192 346.005 828.582 342.59 827.247 339.659C825.011 334.752 823.878 329.319 823.878 323.51C823.878 309.15 830.603 301.07 834.623 296.239C834.732 296.109 834.835 295.973 834.931 295.835C836.281 293.889 836.275 291.314 834.925 289.368Z" fill="black"/>
<path d="M1036.47 422.745H952.111C951.011 413.802 947.401 405.59 941.973 398.778L1021.78 308.144C1023.93 305.702 1023.62 302.047 1021.08 299.98C1018.53 297.913 1014.73 298.218 1012.58 300.66L933.529 390.433C926.891 385.26 918.88 381.66 910.113 380.211L964.891 251.526C966.151 248.564 964.676 245.182 961.594 243.97C958.513 242.758 954.993 244.178 953.732 247.139L897.32 379.664C885.196 380.6 874.259 385.62 865.998 393.295C852.651 369.681 826.941 354.772 798.56 354.772C758.263 354.772 725.121 384.768 722.036 422.747H663.528C660.2 422.747 657.5 425.34 657.5 428.54C657.5 431.74 660.199 434.334 663.528 434.334H665.233C674.934 470.994 692.53 503.37 717.589 530.621C738.636 553.509 759.487 566.69 770.044 572.509C774.736 575.096 780.141 576.464 785.676 576.464H914.324C919.859 576.464 925.264 575.096 929.956 572.509C940.513 566.689 961.365 553.508 982.412 530.621C1007.47 503.371 1025.07 470.995 1034.77 434.334H1036.47C1039.8 434.334 1042.5 431.74 1042.5 428.54C1042.5 425.34 1039.8 422.745 1036.47 422.745ZM933.948 407.893C936.979 412.286 939.076 417.323 939.955 422.745H926.028C925.66 421.303 925.157 419.913 924.534 418.584L933.948 407.893ZM901.417 391.076C901.425 391.076 901.431 391.076 901.438 391.076C901.443 391.076 901.449 391.076 901.454 391.076C910.633 391.079 919.074 394.153 925.74 399.276L916.915 409.3C912.632 406.111 907.265 404.206 901.441 404.206C889.557 404.206 879.566 412.117 876.854 422.745H862.926C865.832 404.837 881.983 391.087 901.417 391.076ZM909.112 418.161L905.075 422.745H889.642C891.842 418.626 896.299 415.793 901.44 415.793C904.299 415.793 906.944 416.677 909.112 418.161ZM798.56 366.357C824.228 366.357 847.304 380.821 857.698 403.297C854.054 409.107 851.636 415.701 850.77 422.746H849.23C846.236 398.422 824.661 379.489 798.56 379.489C772.458 379.489 750.882 398.422 747.889 422.746H734.148C737.199 391.165 764.916 366.357 798.56 366.357ZM798.56 404.207C786.676 404.207 776.685 412.118 773.972 422.745H760.045C762.951 404.829 779.113 391.075 798.559 391.075C818.004 391.075 834.167 404.829 837.073 422.745H823.146C820.435 412.117 810.443 404.207 798.56 404.207ZM810.358 422.745H786.761C788.962 418.626 793.419 415.793 798.56 415.793C803.702 415.793 808.158 418.626 810.358 422.745ZM923.956 562.458C921.088 564.039 917.758 564.875 914.324 564.875H785.676C782.244 564.875 778.913 564.04 776.044 562.458C758.357 552.706 700.235 515.206 677.695 434.332H1022.3C999.765 515.206 941.643 552.706 923.956 562.458Z" fill="black"/>
</g>
<defs>
<clipPath id="clip0_272_4">
<rect width="385" height="370" fill="white" transform="translate(657.5 225)"/>
</clipPath>
</defs>
</svg>
