<svg width="1700" height="820" viewBox="0 0 1700 820" fill="none" xmlns="http://www.w3.org/2000/svg">
<rect width="1700" height="820" fill="#1D1D1D"/>
<path d="M709.55 199.867C708.261 200.141 706.401 200.414 705.446 200.414C704.444 200.453 702.154 201 700.294 201.625C697.67 202.562 696.715 202.719 696.095 202.367C695.427 202.055 694.664 202.172 692.66 202.914C690.608 203.734 689.94 203.812 689.225 203.461C688.366 203.031 688.08 203.07 684.883 204.164C684.263 204.359 684.024 204.242 684.024 203.812C684.024 202.68 682.688 202.68 680.923 203.773L679.253 204.867L679.349 203.93C679.444 203.266 679.253 202.953 678.537 202.875C677.87 202.836 676.915 203.5 675.198 205.336C673.91 206.742 672.478 207.875 672.049 207.875C671.619 207.875 670.951 208.188 670.474 208.617C669.997 209.047 669.282 209.242 668.614 209.164C667.803 209.047 667.373 209.242 666.944 209.984C666.657 210.57 665.894 211.156 665.274 211.352C664.654 211.547 663.652 212.484 663.031 213.461C662.03 214.984 661.791 215.141 661.314 214.633C660.264 213.422 659.358 214.32 659.071 216.859C658.833 218.695 658.499 219.438 657.688 219.984C656.638 220.688 656.59 220.688 656.209 219.867C655.827 219.047 655.779 219.047 655.207 219.711C654.825 220.062 654.396 221.117 654.205 222.055C653.966 222.953 653.776 223.773 653.728 223.891C653.68 224.008 653.489 224.789 653.298 225.688C652.964 226.977 652.726 227.25 651.915 227.25C651.199 227.211 650.817 227.484 650.722 228.07C650.627 228.578 650.34 228.969 650.102 228.969C649.1 228.969 650.15 234.086 651.39 235.258C652.296 236.078 652.249 236.195 650.627 238.148C647.287 242.094 644.329 249.164 643.422 255.141C642.468 261.508 643.422 266.82 646.38 271.625C647.955 274.125 655.589 282.172 659.071 284.906C662.554 287.641 664.415 288.383 665.656 287.562C666.61 286.898 666.61 286.703 664.701 282.68C662.984 278.969 661.6 273.773 661.6 270.922C661.6 268.383 662.554 266.898 665.56 264.789C667.707 263.305 668.28 262.641 668.518 261.391C668.709 260.531 668.995 259.828 669.234 259.828C669.472 259.828 670.093 259.203 670.665 258.461C671.238 257.719 672.001 257.094 672.383 257.094C672.717 257.094 673.48 257.797 674.005 258.695C674.816 259.945 674.911 260.531 674.53 261.508C674.291 262.211 673.957 264.359 673.862 266.352C673.719 268.422 673.289 270.414 672.86 271.078C672.144 272.211 668.804 273.891 667.278 273.891C666.896 273.891 665.799 274.086 664.844 274.32C662.459 274.828 662.459 275.844 664.797 277.094C665.751 277.562 667.039 278.266 667.612 278.578C672.049 281.117 675.532 282.523 678.633 283.031C683.261 283.852 695.809 284.242 696.715 283.617C697.192 283.305 697.383 283.305 697.383 283.578C697.383 284.32 699.244 284.945 700.007 284.438C700.484 284.125 701.009 284.438 702.345 285.961C703.299 287.016 704.063 288.07 704.063 288.305C704.063 288.578 704.254 288.656 704.54 288.539C704.778 288.422 705.017 287.797 705.017 287.133C705.017 286.508 705.256 286 705.494 286C705.78 286 705.971 286.234 705.971 286.547C705.971 286.859 706.448 287.406 707.069 287.758C707.641 288.07 708.452 289.203 708.882 290.219C709.311 291.273 710.027 292.211 710.599 292.406C711.124 292.602 711.744 293.148 711.983 293.578C712.221 294.047 712.842 294.398 713.366 294.438C716.611 294.594 716.468 294.477 716.468 296.391C716.468 298.109 716.515 298.188 717.66 298.031C718.615 297.875 718.853 298.031 719.092 298.93C719.378 300.023 720.809 300.727 721.763 300.219C722.145 300.023 722.241 301.508 722.097 305.57C721.954 308.656 722.05 311.586 722.241 312.055C722.622 312.953 724.578 313.344 724.578 312.562C724.578 312.328 724.817 312.172 725.056 312.172C725.342 312.172 725.533 314.398 725.58 317.914C725.676 326.195 726.153 331.586 726.869 332.172C727.346 332.562 727.68 332.562 728.395 332.172C728.92 331.938 729.397 331.703 729.493 331.703C729.588 331.703 729.827 333.07 729.97 334.711C730.399 338.773 730.59 339.477 731.64 340.453C732.451 341.195 732.546 341.781 732.308 347.172C732.069 353.5 732.403 354.906 734.168 354.672C735.027 354.555 735.075 354.828 735.218 359.32C735.313 363.617 735.409 364.164 736.411 364.984C737.365 365.844 737.46 366.352 737.46 369.633C737.46 372.641 737.747 373.852 738.844 376.43C739.703 378.461 740.514 379.672 741.134 379.906C741.945 380.219 742.136 380.844 742.518 384.203C742.899 387.641 743.043 388.148 743.854 388.305C744.378 388.383 745.094 388.109 745.428 387.719C745.953 387.133 746.048 387.328 746.048 389.242C746.048 390.453 746.239 392.719 746.525 394.281C746.764 395.844 747.098 398.148 747.241 399.398C747.575 401.82 748.338 402.484 749.913 401.703C750.629 401.312 750.915 401.43 751.726 402.25C752.776 403.383 754.445 407.25 754.923 409.75C755.113 410.688 755.781 412.094 756.449 412.875C757.117 413.656 758.119 415.492 758.692 416.898C760.075 420.141 761.173 421.938 762.079 422.211C762.461 422.328 762.986 423.188 763.272 424.125C763.844 425.883 764.799 426.859 766.23 427.055C766.803 427.172 767.614 428.305 768.711 430.492C769.57 432.289 770.476 433.891 770.715 434.008C771.287 434.359 771.144 438.188 770.381 443.383L769.713 447.836L771.144 448.891C772.337 449.75 772.719 450.414 773.196 452.836C773.768 455.688 775.009 457.484 776.392 457.484C777.06 457.484 777.347 458.07 777.776 460.766C778.158 463.188 778.826 464.359 780.209 465.062C780.782 465.414 781.641 466.547 782.118 467.719C782.69 469.125 783.692 470.414 785.362 471.781C786.698 472.875 788.368 474.32 789.036 474.984C790.515 476.43 790.324 476.664 786.269 478.344C784.933 478.891 783.024 479.789 782.022 480.336C781.02 480.883 779.016 481.586 777.585 481.938C773.196 482.914 772.671 483.188 768.377 486.508C764.369 489.633 764.274 489.75 763.94 491.938C763.606 494.047 763.415 494.281 760.934 496.039C757.499 498.461 755.972 501.156 754.636 507.289C754.064 509.867 753.062 513.031 752.394 514.281C749.483 519.945 751.296 523.695 759.789 530.023C766.85 535.219 771.574 537.875 772.671 537.289C773.959 536.625 773.53 535.336 770.381 530.609C767.757 526.664 763.988 519.984 764.322 519.75C764.369 519.711 765.228 519.125 766.23 518.5C767.232 517.836 768.043 517.211 768.043 517.094C768.043 516.977 768.377 516.117 768.759 515.219C769.188 514.281 769.665 511.703 769.856 509.477L770.142 505.414L773.148 508.422C774.818 510.062 776.726 511.625 777.394 511.898C778.444 512.289 778.73 512.211 779.494 511.469C780.162 510.766 780.305 510.141 780.114 508.539C779.684 505.102 778.539 501.117 777.299 498.93C775.581 495.922 776.202 495.023 780.066 494.984C781.975 494.984 783.835 494.086 787.461 491.391C789.227 490.102 791.087 488.773 791.612 488.5C792.9 487.836 795 487.797 797.194 488.422C799.294 489.008 799.58 489.867 799.198 494.359C798.912 497.406 798.96 497.602 800.343 499.359C802.347 501.859 807.07 504.125 809.551 503.812C811.269 503.578 811.317 503.617 813.273 506.117C814.657 507.836 815.992 508.969 817.471 509.711C821.097 511.43 825.678 512.602 829.876 512.836C833.455 513.031 833.979 512.992 836.413 512.016C839.323 510.844 844.476 506.586 844.237 505.531C844.094 505.141 843.617 504.984 842.663 505.023C836.031 505.336 832.023 505.258 830.783 504.711C828.874 503.969 827.729 500.844 827.348 495.375C827.157 493.07 826.441 489.203 825.678 486.586C823.674 479.633 823.149 476.508 823.769 474.945C824.246 473.812 824.628 473.578 826.584 473.188C827.825 472.953 830.353 472.641 832.214 472.523L835.602 472.25L838.894 474.008C840.707 474.945 843.092 476.508 844.237 477.445C846.241 479.086 846.241 479.164 846.241 481.938C846.241 483.5 846.575 485.453 847.004 486.43C847.434 487.367 847.863 489.633 848.006 491.469C848.245 494.633 848.197 494.828 847.052 495.688C846.193 496.352 844.953 496.703 842.663 496.938C840.897 497.133 839.084 497.523 838.703 497.875C838.035 498.383 838.178 498.617 839.896 500.023C841.136 501.078 842.567 501.781 844.046 502.094L846.337 502.602L846.098 508.07C845.955 511.078 845.716 514.047 845.573 514.711C844.524 518.93 843.951 556.039 844.81 564.516C846.003 576.078 848.15 582.484 851.966 585.492C853.302 586.586 853.923 586.781 855.831 586.781C858.455 586.781 860.03 585.922 861.699 583.539C864.61 579.477 867.472 570.297 869.381 558.969C870.001 555.023 870.764 551 871.003 550.023C871.289 549.008 871.957 544.828 872.577 540.727C873.77 532.484 874.534 531.43 874.581 538.031C874.629 542.836 874.009 553.5 873.675 553.969C873.532 554.164 873.627 554.398 873.913 554.555C874.2 554.711 874.295 554.945 874.152 555.141C873.532 556 876.108 582.641 877.492 589.32C877.587 589.75 878.303 594.75 879.114 600.453C879.925 606.156 880.688 611.43 880.831 612.172C880.927 612.914 881.404 615.727 881.786 618.422C882.454 622.758 883.074 626.312 883.694 629.359C883.79 629.906 884.457 632.953 885.125 636.195C887.511 647.797 891.9 656.508 897.912 661.664C902.969 665.961 907.168 662.094 908.265 652.211C909.84 637.602 910.078 618.773 908.838 603.383C908.265 596.586 907.454 570.18 907.12 547.133C906.977 536.273 907.025 533.852 907.359 537.367C908.742 551.898 909.267 557.016 909.458 558.07C909.553 558.695 910.221 563.461 910.889 568.617C911.557 573.773 912.321 579.125 912.559 580.531C912.845 581.938 913.609 586.391 914.277 590.492C914.945 594.555 915.565 598.344 915.66 598.891C915.756 599.438 916.281 602.328 916.853 605.336C917.378 608.344 918.046 611.859 918.332 613.148C918.571 614.438 918.905 615.844 919 616.273C920.479 623.344 923.724 635.727 925.68 641.625C928.638 650.648 931.787 656.43 936.319 661.039C940.661 665.492 942.331 666.625 944.335 666.625C948.438 666.625 950.298 662.289 951.682 649.516C952.493 641.859 952.159 624.711 951.014 615.688C950.919 614.945 950.489 611.312 950.012 607.68C949.583 604.008 948.915 599.281 948.533 597.133C948.151 594.984 947.34 590.141 946.672 586.391C946.004 582.641 944.859 576.664 944.096 573.109C943.285 569.555 942.331 565.18 941.949 563.344C941.567 561.508 940.565 556.938 939.754 553.188C938.943 549.438 938.18 545.922 938.084 545.375C937.989 544.828 937.464 542.133 936.939 539.359C936.367 536.586 935.985 534.242 936.128 534.164C936.319 533.969 943.667 542.289 951.396 551.469C961.749 563.812 970.719 572.328 973.391 572.328C976.301 572.328 977.78 570.453 977.303 567.289C976.921 564.711 974.488 558.031 972.436 553.734C968.858 546.469 960.175 532.562 947.197 513.344C942.283 506.039 940.756 502.914 942.76 504.281C944.096 505.219 950.012 506.781 951.444 506.586C952.732 506.43 953.352 506.781 957.264 509.867C961.654 513.305 967.188 516.547 975.299 520.336C980.022 522.523 983.028 523.539 987.704 524.516C991.425 525.297 993.668 525.023 995.624 523.578C997.723 522.016 997.962 519.945 996.339 517.016C993.381 511.781 984.459 500.961 976.301 492.797C967.331 483.812 962.274 478.695 960.127 476.352C958.886 475.023 957.312 473.461 956.549 472.836C954.211 470.844 953.734 469.906 953.4 466.273C953.018 462.25 951.348 450.062 950.966 448.305C949.201 440.57 947.006 432.914 941.854 416.469C939.85 410.141 938.132 404.594 938.037 404.164C937.941 403.734 936.796 399.945 935.508 395.766C931.262 382.133 926.157 370.883 914.849 350.062C911.844 344.594 910.937 343.227 908.17 340.258C907.406 339.477 906.834 338.734 906.834 338.617C906.834 338.031 899.582 329.398 897.196 327.172C893.141 323.305 875.774 311.43 871.337 309.477C868.57 308.266 857.215 299.633 856.451 298.148C856.165 297.602 854.829 295.961 853.445 294.516C851.537 292.445 851.06 291.664 851.298 290.922C851.537 290.102 850.821 289.32 846.527 285.648C843.712 283.266 841.47 281.039 841.47 280.648C841.47 279.867 840.23 278.812 837.987 277.641C836.699 277.016 836.699 276.898 837.367 276.273C837.796 275.883 838.13 275.414 838.13 275.18C838.13 274.672 832.214 270.961 825.63 267.289C821.813 265.18 820.143 264.008 819.189 262.68C818.426 261.703 816.947 260.102 815.849 259.086L813.893 257.289L815.754 257.406C817.137 257.523 817.662 257.406 817.901 256.938C818.378 255.922 816.947 254.555 811.889 251.156C809.265 249.398 807.118 247.836 807.118 247.68C807.118 247.484 807.357 247.25 807.595 247.133C809.265 246.273 806.069 242.133 800.725 238.227C797.91 236.156 797.099 235.336 797.099 234.516C797.099 233.695 795.715 232.289 790.992 228.305C785.696 223.812 785.028 223.109 785.791 222.758C786.746 222.25 786.889 221.312 786.03 221.039C785.696 220.922 786.364 220.805 787.604 220.805C790.896 220.766 791.946 219.359 789.799 217.719C787.223 215.766 773.816 211.586 764.274 209.828C761.841 209.359 758.93 208.656 757.833 208.227C756.736 207.836 754.779 207.484 753.491 207.484C750.915 207.484 746.048 205.805 746.048 204.906C746.048 204.633 745.667 204.242 745.237 204.047C743.472 203.305 735.123 202.328 730.685 202.328C728.109 202.328 726.105 202.172 726.248 202.016C726.869 201.195 724.674 200.766 719.33 200.57C714.989 200.375 713.605 200.219 713.605 199.828C713.605 199.203 712.746 199.203 709.55 199.867Z" fill="black"/>
</svg>
