<svg width="1700" height="820" viewBox="0 0 1700 820" fill="none" xmlns="http://www.w3.org/2000/svg">
<rect width="1700" height="820" fill="#1D1D1D"/>
<g clip-path="url(#clip0_272_4)">
<path d="M807.412 396.172H799.757V407.682H807.412V396.172Z" fill="black"/>
<path d="M793.711 399.233L787.847 406.169L792.851 414.575L798.715 407.639L793.711 399.233Z" fill="black"/>
<path d="M784.781 413.638L783.451 424.264L791.119 426.171L792.448 415.544L784.781 413.638Z" fill="black"/>
<path d="M791.256 427.283L784.514 432.77L788.342 442.115L795.083 436.628L791.256 427.283Z" fill="black"/>
<path d="M815.313 427.284L811.485 436.628L818.227 442.115L822.054 432.771L815.313 427.284Z" fill="black"/>
<path d="M821.787 413.647L814.12 415.553L815.45 426.18L823.117 424.274L821.787 413.647Z" fill="black"/>
<path d="M812.858 399.222L807.854 407.628L813.717 414.565L818.721 406.158L812.858 399.222Z" fill="black"/>
<path d="M907.946 396.172H900.291V407.682H907.946V396.172Z" fill="black"/>
<path d="M894.921 399.223L889.058 406.159L894.062 414.566L899.925 407.63L894.921 399.223Z" fill="black"/>
<path d="M885.989 413.635L884.66 424.262L892.327 426.168L893.657 415.542L885.989 413.635Z" fill="black"/>
<path d="M892.462 427.281L885.72 432.768L889.548 442.113L896.29 436.626L892.462 427.281Z" fill="black"/>
<path d="M916.522 427.283L912.694 436.627L919.436 442.114L923.264 432.77L916.522 427.283Z" fill="black"/>
<path d="M922.997 413.653L915.33 415.56L916.659 426.186L924.327 424.28L922.997 413.653Z" fill="black"/>
<path d="M914.064 399.229L909.06 407.635L914.923 414.572L919.927 406.165L914.064 399.229Z" fill="black"/>
<path d="M965.506 451.247L970.805 443.776C974.574 438.464 974.574 429.819 970.805 424.506L968.053 420.626C967.672 420.09 967.464 419.378 967.464 418.621C967.464 417.864 967.673 417.152 968.053 416.616C971.822 411.303 971.822 402.658 968.053 397.345L959.795 385.705C957.969 383.131 955.542 381.714 952.96 381.714C950.378 381.714 947.951 383.131 946.125 385.705C945.34 386.811 944.064 386.811 943.28 385.705C937.993 378.253 929.391 378.253 924.104 385.705L922.467 388.012C917.39 382.92 911.19 379.911 904.497 379.911C897.104 379.911 890.309 383.575 884.968 389.676V388.051C884.968 377.512 878.886 368.938 871.409 368.938C870.3 368.938 869.398 367.665 869.398 366.102C869.398 358.588 865.062 352.475 859.731 352.475H848.054C842.724 352.475 838.387 358.587 838.387 366.102C838.387 367.665 837.484 368.938 836.376 368.938H832.483C827.153 368.938 822.817 375.05 822.817 382.564V389.676C817.476 383.577 810.681 379.912 803.288 379.912C795.106 379.912 787.658 384.4 782.103 391.711L777.843 385.705C775.281 382.094 771.877 380.107 768.255 380.107C764.632 380.107 761.228 382.095 758.667 385.705C757.883 386.811 756.607 386.811 755.822 385.705C752.053 380.393 745.92 380.393 742.151 385.705L733.893 397.345C730.124 402.657 730.124 411.302 733.893 416.616C734.273 417.152 734.482 417.863 734.482 418.621C734.482 419.379 734.273 420.091 733.893 420.626L731.14 424.506C727.372 429.818 727.372 438.463 731.14 443.777L736.44 451.247H725.5V456.642C725.5 523.156 763.888 577.269 811.073 577.269H888.927C936.112 577.269 974.5 523.156 974.5 456.642V451.247H965.506ZM929.518 393.335C931.82 390.09 935.565 390.09 937.867 393.335C939.693 395.909 942.12 397.326 944.703 397.326C947.285 397.326 949.712 395.909 951.538 393.335C952.322 392.229 953.598 392.229 954.383 393.335L962.64 404.975C963.424 406.081 963.424 407.88 962.64 408.985C960.814 411.56 959.809 414.981 959.809 418.621C959.809 422.26 960.814 425.682 962.64 428.256L965.393 432.136C966.177 433.241 966.177 435.04 965.393 436.146L954.68 451.247H948.103L959.179 435.634L942.756 412.484L935.554 422.636C935.373 412.223 932.606 402.704 928.12 395.303L929.518 393.335ZM937.159 435.634L942.756 427.744L948.353 435.634L942.756 443.524L937.159 435.634ZM937.409 451.247H928.704C930.031 448.939 931.182 446.453 932.143 443.824L937.409 451.247ZM904.497 390.702C910.747 390.702 916.429 394.177 920.632 399.82L921.45 400.973C925.453 406.899 927.919 414.908 927.919 423.717C927.919 427.867 927.373 431.872 926.365 435.589L926.334 435.633L926.348 435.653C924.629 441.947 921.551 447.39 917.414 451.244H907.75L914.752 447.652L912.089 437.34L904.895 441.031L907.533 451.245H901.463L904.101 441.031L896.907 437.34L894.244 447.652L901.245 451.244H891.582C884.989 445.102 881.076 434.923 881.076 423.716C881.076 405.513 891.583 390.702 904.497 390.702ZM877.324 401.769H877.621C877.521 402.01 877.421 402.25 877.324 402.495V401.769ZM830.473 402.52V396.168H833.948V385.377H830.473V382.563C830.472 381 831.374 379.728 832.483 379.728H836.376C841.706 379.728 846.042 373.616 846.042 366.102C846.042 364.539 846.945 363.266 848.054 363.266H859.731C860.84 363.266 861.743 364.539 861.743 366.102C861.743 373.615 866.079 379.728 871.41 379.728C874.665 379.728 877.314 383.462 877.314 388.051V396.168H869.16V406.959H875.79C874.267 412.125 873.422 417.784 873.422 423.718C873.422 433.978 875.89 443.594 880.291 451.247H862.466L873.541 435.634L857.118 412.484L840.696 435.634L851.771 451.247H827.496C831.898 443.594 834.366 433.978 834.366 423.718C834.366 416.032 832.949 408.806 830.473 402.52ZM857.118 443.524L851.521 435.634L857.118 427.744L862.715 435.634L857.118 443.524ZM803.288 390.702C816.203 390.702 826.71 405.512 826.71 423.718C826.71 434.925 822.797 445.104 816.205 451.246H806.541L813.542 447.654L810.879 437.342L803.686 441.033L806.323 451.247H800.253L802.891 441.033L795.697 437.342L793.034 447.654L800.036 451.246H790.371C783.779 445.104 779.866 434.925 779.866 423.718C779.867 405.513 790.373 390.702 803.288 390.702ZM779.081 451.246H766.484L774.424 440.054C775.567 444.094 777.134 447.861 779.081 451.246ZM761.137 443.524L755.54 435.634L761.137 427.744L766.734 435.634L761.137 443.524ZM736.554 432.136L739.306 428.256C741.133 425.682 742.138 422.261 742.138 418.621C742.138 414.981 741.133 411.56 739.306 408.985C738.522 407.88 738.522 406.081 739.306 404.975L747.564 393.335C748.348 392.23 749.624 392.229 750.409 393.335C752.235 395.909 754.662 397.326 757.244 397.326C759.826 397.326 762.253 395.909 764.079 393.335C765.195 391.763 766.677 390.897 768.255 390.897C769.831 390.897 771.315 391.763 772.43 393.335L777.173 400.021C774.04 406.858 772.212 414.991 772.212 423.718C772.212 425.274 772.272 426.814 772.383 428.336L761.138 412.484L744.714 435.634L755.79 451.247H747.266L736.553 436.147C735.769 435.041 735.769 433.241 736.554 432.136ZM888.927 566.479H811.073C779.156 566.479 751.66 539.289 739.63 500.478H960.37C948.34 539.289 920.844 566.479 888.927 566.479ZM963.238 489.687H736.762C736.337 487.79 735.946 485.872 735.593 483.932H964.407C964.054 485.872 963.663 487.79 963.238 489.687ZM965.965 473.142H734.035C733.643 469.495 733.377 465.791 733.248 462.037H966.753C966.623 465.791 966.357 469.495 965.965 473.142Z" fill="black"/>
<path d="M756.377 401.926H748.723V412.717H756.377V401.926Z" fill="black"/>
<path d="M954.896 401.926H947.241V412.717H954.896V401.926Z" fill="black"/>
<path d="M857.934 385.381H849.769V396.171H857.934V385.381Z" fill="black"/>
<path d="M846.197 407.681H838.542V418.472H846.197V407.681Z" fill="black"/>
<path d="M818.924 242.731V308.394H974.5V242.731H818.924ZM904.882 297.603H826.579V282.144L833.103 283.983C839.149 285.688 845.281 285.688 851.326 283.983L854.067 283.211C859.117 281.787 864.238 281.787 869.289 283.211L872.03 283.983C875.053 284.836 878.098 285.262 881.141 285.262C884.185 285.262 887.23 284.836 890.253 283.983L892.994 283.211C896.936 282.1 900.92 281.868 904.882 282.492V297.603ZM904.882 271.64C900.418 271.054 895.933 271.378 891.493 272.629L888.752 273.402C883.702 274.827 878.581 274.826 873.53 273.402L870.79 272.629C864.743 270.925 858.612 270.925 852.566 272.629L849.825 273.402C844.775 274.827 839.654 274.826 834.604 273.402L826.578 271.14V253.521H904.882V271.64ZM943.667 297.603H931.929V281.069H924.274V297.603H912.537V253.521H943.667V297.603ZM966.845 297.603H951.322V282.634C953.543 283.242 956.323 283.748 959.424 283.748C961.751 283.748 964.26 283.454 966.845 282.712L966.845 297.603ZM966.845 271.633C960.637 273.961 954.637 272.695 951.322 271.586V253.521H966.845V271.633Z" fill="black"/>
<path d="M814.555 264.523V253.733H799.245V247.978H791.59V270.279H762.8L753.729 282.792L759.083 290.504L765.922 281.069H791.59V303.369H799.245V297.615H814.555V286.824H799.245V264.523H814.555Z" fill="black"/>
<path d="M756.377 303.372H748.723V314.163H756.377V303.372Z" fill="black"/>
<path d="M764.035 319.199H756.38V341.5H764.035V319.199Z" fill="black"/>
<path d="M744.64 346.535H736.985V363.081H744.64V346.535Z" fill="black"/>
<path d="M775.772 358.044H768.117V368.835H775.772V358.044Z" fill="black"/>
</g>
<defs>
<clipPath id="clip0_272_4">
<rect width="249" height="351" fill="white" transform="translate(725.5 234.5)"/>
</clipPath>
</defs>
</svg>
