<svg width="1700" height="820" viewBox="0 0 1700 820" fill="none" xmlns="http://www.w3.org/2000/svg">
<rect width="1700" height="820" fill="#1D1D1D"/>
<path d="M821.179 272.012C788.781 273.448 757.403 281.14 731.763 293.951C715.369 302.152 698.38 314.268 686.201 326.454C666.632 346.029 654.452 370.076 651.296 395.351C650.163 404.294 650.089 414.649 651.036 423.615C652.614 438.256 656.569 450.696 664.162 464.735C681.986 497.632 715.443 523.278 758.703 537.131C808.034 552.954 865.182 551.819 912.248 534.12C924.613 529.463 934.88 524.343 946.633 516.999C975.3 499.092 993.031 479.516 1004.02 453.615C1007.79 444.719 1011.08 433.02 1012.9 421.993C1013.16 420.325 1013.42 418.958 1013.44 418.912C1013.45 418.889 1015.33 418.75 1017.61 418.634C1026.47 418.17 1032.61 416.549 1037.66 413.398C1044.53 409.112 1048.23 402.324 1049.4 391.876C1049.7 389.189 1049.7 381.034 1049.38 377.745C1048.19 364.748 1045.02 353.79 1041.06 349.111C1039.06 346.724 1037.31 345.89 1034.3 345.89C1031.15 345.89 1028.08 346.887 1022.11 349.852C1019.02 351.404 1001.4 359.327 1001.13 359.327C1001.05 359.304 1000.66 358.725 1000.27 357.983C991.991 342.971 980.015 328.284 966.462 316.538C930.87 285.703 877.974 269.487 821.179 272.012ZM850.793 276.367C862.323 277.294 870.845 278.452 880.573 280.468C914.012 287.325 943.588 301.92 966.648 322.909C976.172 331.573 985.066 342.068 991.879 352.678C994.534 356.825 997.041 361.157 997.078 361.621C997.097 362.038 993.272 364.54 991.434 365.281C986.718 367.204 981.705 367.018 976.766 364.725C972.997 362.987 968.968 359.999 962.099 353.883C953.967 346.655 949.641 343.643 939.076 337.828C933.692 334.863 931.26 333.473 924.409 329.326C910.057 320.685 903.41 317.627 894.907 315.774C893.848 315.542 893.57 315.357 892.493 314.175C891.825 313.434 889.931 311.557 888.297 309.959C884.992 306.762 882.541 303.936 881.019 301.573C880.035 300.044 879.998 300.02 879.144 300.02C878.661 300.02 877.955 299.905 877.584 299.789C876.489 299.395 874.818 297.843 873.778 296.244L872.794 294.762L870.065 294.02C865.386 292.746 863.065 292.816 861.468 294.252C860.522 295.109 859.723 296.661 859.426 298.19C859.129 299.719 858.721 299.696 857.068 298.005C856.028 296.939 855.212 296.684 853.93 297.009C852.742 297.31 851.573 298.352 850.867 299.673C850.607 300.183 850.032 301.642 849.604 302.916C848.416 306.484 847.042 308.453 845.334 309.055C842.104 310.214 832.059 311.465 823.667 311.766L819.397 311.905L818.487 310.816C817.336 309.449 816.408 309.055 815.516 309.588C815.164 309.797 814.848 309.889 814.792 309.797C814.755 309.704 814.57 307.851 814.421 305.696C814.254 303.519 813.994 301.017 813.827 300.09C813.548 298.468 813.53 298.422 812.75 297.935C812.304 297.681 811.228 297.356 810.299 297.24C807.199 296.777 806.326 296.569 805.509 296.059C804.488 295.433 804.172 295.549 801.944 297.426C800.125 298.908 799.401 299.094 797.99 298.422L797.006 297.959L796.133 299.071C795.093 300.391 793.998 300.97 791.417 301.503C788.391 302.152 786.738 303.194 785.959 304.978C785.754 305.418 785.736 305.418 784.863 304.955C781.855 303.333 778.513 304.005 776.248 306.646C774.614 308.546 773.853 311.326 774.206 314.013C774.54 316.538 774.633 316.33 773.278 316.515C767.095 317.442 760.411 319.411 752.947 322.538C748.473 324.392 733.601 331.342 727.975 334.191C712.027 342.253 699.142 351.844 687.036 364.655C684.901 366.926 682.525 369.405 676.751 375.405C671.459 380.918 668.043 385.668 666.409 389.814C664.719 394.147 664.627 397.575 666.149 401.305L666.688 402.626L666.223 403.645C664.014 408.603 663.68 416.085 665.332 423.383C667.189 431.491 671.459 440.295 676.825 447.036C681.058 452.364 682.822 453.708 693.516 459.731C695.224 460.704 697.694 461.979 698.993 462.558C700.274 463.137 702.502 464.133 703.932 464.782C708.221 466.705 711.637 469.021 714.793 472.149C715.462 472.797 717.671 475.23 719.695 477.547C727.159 486.049 729.089 487.67 736.238 491.447C754.693 501.223 778.625 506.598 809.111 507.825C826.359 508.52 832.56 507.941 860.633 502.96C867.781 501.709 877.009 500.18 881.149 499.601C897.933 497.238 907.662 494.783 918.746 490.126C933.581 483.871 943.922 476.11 954.282 463.461C963.491 452.179 971.345 438.951 980.665 419.028L982.596 414.881L983.914 415.043C986.885 415.367 989.057 415.715 995.147 416.78C1001.83 417.985 1006.38 418.634 1007.92 418.634C1008.42 418.634 1008.87 418.68 1008.92 418.75C1008.96 418.819 1008.83 420.093 1008.59 421.599C1005.97 438.58 1000.51 454.079 992.381 467.608C981.854 485.076 967.205 499.555 947.338 512.088C924.13 526.753 899.121 535.927 870.102 540.467C849.363 543.711 826.378 544.128 804.841 541.649C767.392 537.317 733.1 524.853 706.977 506.065C688.113 492.489 673.353 475.531 664.497 457.229C658.333 444.488 654.879 431.514 653.914 417.36C653.654 413.792 653.654 405.66 653.895 402.07C655.121 384.417 661.805 365.791 673.149 348.531C700.906 306.252 754.804 280.028 821.922 276.159C826.434 275.904 846.764 276.043 850.793 276.367ZM866.24 297.935C866.908 302.337 867.113 302.847 868.375 303.287C869.452 303.634 869.953 303.31 870.102 302.175C870.38 299.881 870.455 299.673 870.993 299.603C871.494 299.534 871.531 299.557 871.402 300.229C871.123 301.874 872.386 305.071 873.24 304.793C876.21 303.866 878.067 303.912 878.642 304.955C879.014 305.604 879.014 306.878 878.624 307.063C878.085 307.318 875.802 306.739 872.794 305.58C868.709 304.028 867.094 303.658 864.439 303.773L862.304 303.843L862.323 301.874C862.323 300.785 862.434 299.534 862.564 299.071C862.954 297.565 864.458 296.267 865.646 296.383C865.943 296.43 866.054 296.708 866.24 297.935ZM808.851 300.831C810.986 301.457 810.968 301.41 810.968 303.727C810.968 305.395 811.302 309.635 811.599 311.859L811.692 312.461L808.22 312.6C804.209 312.785 799.846 313.202 791.751 314.152C788.595 314.523 784.863 314.94 783.489 315.056C782.115 315.195 780.389 315.38 779.665 315.449C778.383 315.565 778.365 315.565 778.105 314.917C777.956 314.523 777.845 313.364 777.826 311.905L777.789 309.565L778.365 309.426C778.681 309.333 779.275 309.009 779.665 308.662C780.519 307.967 781.707 307.758 782.357 308.175C782.617 308.337 783.192 309.148 783.656 309.936C784.77 311.859 784.956 311.974 785.977 311.395C786.887 310.909 787.388 310.144 788.651 307.318C789.393 305.673 789.486 305.557 789.783 305.905C790.21 306.391 791.584 306.97 792.29 306.97C793.552 306.947 795.855 304.955 796.597 303.194C797.043 302.175 797.748 302.337 798.751 303.727C799.828 305.187 800.218 305.21 801.35 303.866C803.838 300.901 806.048 299.997 808.851 300.831ZM856.14 302.198L857.18 303.449L856.678 303.704C856.103 304.005 851.981 304.7 851.851 304.538C851.795 304.468 852.185 303.936 852.705 303.356C853.429 302.522 853.671 302.105 853.671 301.596C853.671 300.993 853.726 300.947 854.376 300.947C854.989 300.947 855.249 301.132 856.14 302.198ZM866.24 311.581C875.653 313.99 883.73 322.423 888.835 335.164C890.525 339.404 891.788 343.968 892.642 348.902C893.886 356.223 894.09 365.999 893.106 370.887C892.382 374.455 890.655 377.258 888.334 378.648C887.239 379.32 884.695 380.293 884.565 380.108C884.547 380.084 883.08 377.351 881.316 374.038C878.178 368.177 876.322 364.099 875.672 361.644C875.3 360.231 875.449 359.906 876.359 360.115C877.491 360.37 878.661 362.177 880.221 366.045C882.82 372.532 884.491 374.849 886.57 374.849C888.873 374.849 890.618 371.443 890.618 366.949C890.618 364.215 890.098 362.362 888.835 360.763C888.297 360.068 887.851 359.466 887.889 359.466C888.446 359.258 889.56 358.238 890.005 357.497C891.212 355.551 891.658 351.752 891.045 348.786L890.711 347.165L886.812 347.095C881.335 347.002 874.873 347.558 871.68 348.392C871.104 348.555 871.03 348.647 870.974 349.412C870.937 350.084 871.03 350.408 871.494 351.08C871.977 351.752 872.404 352.03 873.704 352.516C875.468 353.188 876.322 353.721 876.322 354.138C876.322 354.624 875.133 356.037 874.595 356.2C874.316 356.292 873.37 356.2 872.478 355.991C871.569 355.783 870.455 355.62 869.99 355.62H869.136L868.542 353.582C867.224 349.018 865.46 345.89 860.8 339.844C857.161 335.141 855.639 332.987 854.432 330.855C853.689 329.512 853.671 329.442 854.079 329.442C854.877 329.442 856.4 330.554 857.44 331.851C858.591 333.311 859.593 335.118 860.447 337.226C861.004 338.616 861.041 338.639 861.487 338.338C862.137 337.875 862.415 337.944 863.604 338.732C864.903 339.589 865.739 339.566 866.89 338.547C871.402 334.678 873.462 320.917 870.25 316.237C869.341 314.917 868.375 314.384 866.853 314.384C865.423 314.384 864.588 314.639 862.917 315.588L861.673 316.283L861.543 317.581C861.468 318.368 861.543 320.199 861.747 322.353C861.933 324.276 862.1 326.732 862.155 327.82C862.211 329.627 862.211 329.743 861.951 329.21C861.524 328.284 861.116 325.99 860.614 321.843C860.187 318.253 859.593 314.87 859.278 314.222C859.055 313.781 856.01 312.785 854.376 312.623C852.687 312.438 852.779 312.322 855.063 311.743C858.795 310.793 862.917 310.747 866.24 311.581ZM843.273 314.407C843.273 314.523 843.608 315.588 843.997 316.77C844.406 317.951 844.777 319.179 844.851 319.504C844.963 320.083 844.944 320.106 843.96 320.245C842.326 320.453 841.398 320.917 840.563 321.913C839.709 322.932 839.374 324.021 839.374 325.805V326.894L838.725 326.013C836.812 323.349 832.208 322.052 828.327 323.071C826.601 323.535 824.595 324.786 823.611 326.037L822.794 327.056L821.755 326.407C820.047 325.318 818.32 324.948 815.721 325.11C814.328 325.203 812.973 325.411 812.174 325.712C809.037 326.824 806.085 328.84 804.098 331.203L803.04 332.454L801.703 331.18C800.979 330.485 799.531 329.002 798.472 327.89C794.629 323.836 792.308 322.006 789.449 320.801C787.908 320.152 787.871 320.175 790.767 319.504C797.674 317.859 805.992 316.932 826.471 315.542C833.47 315.056 840.915 314.43 841.417 314.291C842.048 314.106 843.273 314.175 843.273 314.407ZM849.772 314.361C849.772 314.476 849.549 315.171 849.289 315.89C848.899 316.955 848.825 317.326 848.992 317.65C849.14 317.928 849.14 318.114 849.01 318.206C848.509 318.6 847.562 316.515 847.544 315.009V314.152H848.658C849.27 314.152 849.772 314.245 849.772 314.361ZM856.158 317.349C856.623 318.299 857.607 325.759 857.31 326.129C857.105 326.407 855.601 324.739 854.877 323.442C853.856 321.589 852.482 317.998 852.612 317.534C852.705 317.233 853.039 317.164 854.395 317.164C855.304 317.164 856.103 317.256 856.158 317.349ZM885.048 319.295C885.753 319.828 886.533 320.801 887.61 322.446C888.464 323.766 889.151 324.878 889.114 324.925C889.058 324.971 887.907 323.836 886.515 322.423C885.141 320.986 883.73 319.55 883.377 319.202L882.727 318.577L883.377 318.554C883.804 318.554 884.398 318.832 885.048 319.295ZM868.821 320.106C869.025 320.986 869.099 321.843 869.025 322.701C868.914 323.952 868.691 324.6 866.908 328.747C866.5 329.697 866.11 330.739 866.036 331.064C865.906 331.643 865.906 331.643 865.553 330.809C865.07 329.697 864.81 327.519 864.81 324.693C864.81 322.562 864.606 320.314 864.346 319.226C864.235 318.809 864.346 318.785 866.37 318.785H868.505L868.821 320.106ZM896.411 320.523C911.208 325.388 924.353 332.546 944.461 346.724C954.264 353.628 959.964 357.729 960.019 357.891C960.038 358.007 959.202 358.586 958.144 359.188C954.969 360.995 954.134 362.223 954.115 365.049V366.509H954.672C955.081 366.509 955.545 366.138 956.566 364.98C958.107 363.219 959.072 362.594 960.168 362.57C960.911 362.57 960.966 362.617 961.245 363.497C961.635 364.725 961.635 368.084 961.245 371.791C960.873 375.127 960.892 375.15 962.396 375.011C964.048 374.872 964.865 373.737 965.274 370.98C965.496 369.474 965.385 366.509 964.995 364.238C964.847 363.451 964.772 362.802 964.828 362.802C964.865 362.802 965.886 363.474 967.075 364.285C968.263 365.096 970.454 366.555 971.939 367.551C973.424 368.547 975.318 369.914 976.154 370.586L977.676 371.837L980.238 371.49C988.519 370.354 995.296 367.945 1006.96 361.968C1016.41 357.126 1018.69 356.014 1022.16 354.555C1026.25 352.864 1030.42 351.497 1033.82 350.755L1036.18 350.246L1036.98 351.358C1044.57 362.107 1047.69 381.057 1044.22 395.467C1042.14 404.155 1037.94 409.923 1031.87 412.471C1028.08 414.07 1021.96 414.626 1012.69 414.232C1004.39 413.885 1003.45 413.746 995.593 411.684C987.386 409.529 984.249 408.996 981.037 409.205C976.878 409.483 975.17 410.433 966.091 417.707C964.457 419.004 961.282 421.669 959.035 423.615C952.686 429.105 949.919 431.028 946.299 432.557C944.034 433.507 943.792 433.46 942.641 432.047C941.731 430.935 941.601 430.866 940.952 430.982C939.93 431.144 938.074 432.534 937.999 433.206C937.944 433.623 938.074 433.785 938.705 434.086C939.336 434.41 939.466 434.549 939.411 435.036C939.355 435.522 938.575 436.078 932.857 439.53C929.292 441.685 924.669 444.441 922.589 445.646C909.686 453.152 900.05 457.206 890.618 459.083C889.448 459.314 888.631 459.616 888.186 459.986C887.034 460.913 884.658 462.326 882.968 463.067C880.703 464.087 877.547 464.99 871.773 466.357C867.354 467.4 864.253 468.21 863.307 468.581C863.084 468.651 863.214 468.141 863.808 466.658C868.839 453.917 863.139 446.503 847.172 445.044C833.842 443.816 811.06 448.658 802.668 454.473C801.276 455.446 801.035 455.77 801.907 455.608C805.88 454.774 818.079 452.341 820.529 451.901C839.913 448.38 852.074 449.052 860.967 454.125C862.193 454.843 862.211 454.843 862.248 455.793C862.341 459.175 861.914 461.515 860.819 463.484C859.408 466.056 856.771 467.84 851.35 469.902C849.512 470.62 847.859 471.268 847.674 471.361C847.395 471.477 847.414 471.361 847.804 470.643C848.286 469.763 848.416 468.813 848.119 468.234C847.655 467.33 830.054 466.681 821.829 467.284C816.203 467.701 811.228 468.488 806.902 469.624C805.583 469.971 805.082 470.203 805.323 470.319C805.769 470.504 810.838 471.153 814.588 471.477C816.129 471.593 823.76 471.755 831.576 471.824C839.393 471.894 845.91 472.01 846.058 472.079C846.541 472.288 845.687 472.589 844.48 472.589C843.867 472.612 840.655 473.075 837.332 473.655C813.196 477.871 800.812 479.191 785.903 479.191C778.049 479.191 774.874 479.029 769.379 478.381C767.095 478.126 761.321 477.222 761.247 477.13C761.209 477.083 761.395 476.55 761.636 475.925C762.249 474.419 762.825 472.033 762.973 470.365C763.122 468.859 762.862 467.284 762.305 466.334L761.952 465.732L763.01 464.944C764.199 464.064 765.183 462.604 765.48 461.307C765.925 459.268 765.591 456.395 764.663 454.125C764.199 453.013 762.268 450.557 761.451 450.025C761.061 449.793 760.708 449.561 760.671 449.515C760.634 449.492 760.987 448.727 761.451 447.824C762.268 446.225 762.732 444.279 762.416 443.654C762.212 443.26 763.289 443.399 764.18 443.909C764.626 444.163 765.443 444.789 765.981 445.299C768.45 447.685 769.286 447.685 772.684 445.322C775.32 443.468 776.23 443.121 778.439 443.121C779.479 443.121 780.426 443.214 780.519 443.329C780.611 443.445 780.296 444.302 779.757 445.391C778.179 448.565 777.195 452.527 777.474 454.496C777.771 456.558 778.755 458.156 780.296 459.152C780.946 459.569 781.224 459.592 784.139 459.407C787.444 459.199 789.319 458.805 790.545 458.017C791.547 457.392 792.643 455.978 792.513 455.492C792.457 455.283 792.234 454.496 792.03 453.731C791.714 452.642 791.603 451.53 791.491 448.403C791.361 445.021 791.287 444.302 790.934 443.376C790.303 441.731 790.21 441.685 787.778 441.708C785.866 441.731 784.028 442.078 782.839 442.634C782.598 442.75 782.747 442.426 783.266 441.708C785.829 438.233 786.2 431.931 784.195 426.742C783.861 425.908 783.564 425.167 783.545 425.097C783.508 425.028 784.102 424.796 784.845 424.611C785.606 424.402 787.128 423.8 788.242 423.267C791.454 421.738 793.107 421.738 794.833 423.313L795.613 424.032L795.075 424.356C794.778 424.564 793.868 425.514 793.051 426.51C791.101 428.897 790.656 429.151 788.929 428.989L787.574 428.873V430.078C787.574 432.557 789.245 435.175 792.624 438.024L794.425 439.553L795.13 438.881C797.693 436.449 799.475 432.835 799.809 429.36C799.921 428.109 799.902 427.344 799.605 424.564C799.568 424.24 799.753 424.078 800.57 423.823C802.65 423.151 803.931 421.437 805.342 417.406L806.215 414.927L807.069 415.066C808.09 415.228 809.965 414.695 811.06 413.908C811.469 413.607 812.453 412.865 813.251 412.263C814.384 411.383 814.904 411.128 815.702 411.035C816.965 410.896 816.983 410.989 816.073 414.163C814.718 418.958 814.347 422.086 814.959 423.893C815.331 425.005 815.721 425.537 816.575 426.07C817.262 426.51 817.28 426.51 818.209 426.047C819.824 425.259 820.938 424.472 822.033 423.36C822.702 422.688 823.036 422.433 822.962 422.711C822.145 425.19 822.052 425.792 822.033 428.016C822.015 430.935 822.46 432.464 823.797 434.179C827.38 438.766 832.152 436.078 833.544 428.711C833.73 427.808 833.879 426.974 833.916 426.812C833.953 426.626 834.436 426.858 835.234 427.46C838.539 429.846 842.661 431.051 845.668 430.472C849.697 429.684 852.557 427.182 854.172 422.989C854.562 422.016 854.989 421.205 855.137 421.182C855.899 421.159 857.105 422.271 858.312 424.078C860.354 427.136 860.93 427.53 862.304 426.858C862.861 426.603 863.492 425.978 864.235 424.958L865.349 423.452L866.556 424.055C869.266 425.422 872.367 425.306 873.741 423.823C874.001 423.545 874.094 423.73 874.539 425.653C874.818 426.812 875.263 428.317 875.505 428.989C876.08 430.495 877.269 432.001 878.16 432.325L878.828 432.58V434.596C878.828 436.287 878.902 436.773 879.311 437.746C880.016 439.484 880.833 439.993 882.727 439.878C884.621 439.785 886.273 438.881 887.777 437.121C889.133 435.522 889.485 434.549 889.374 432.673C889.225 430.379 889.819 427.9 891.36 424.425C892.864 421.043 893.217 419.514 892.902 417.8C892.79 417.174 892.716 416.618 892.753 416.526C892.809 416.456 894.313 416.317 896.132 416.224C904.468 415.854 907.513 414.116 907.513 409.807C907.513 408.325 907.086 406.309 906.641 405.753C906.214 405.22 905.118 405.475 904.598 406.216C904.376 406.541 904.097 407.398 903.986 408.139C903.651 410.201 903.169 411.406 902.612 411.591C901.108 412.054 897.747 409.946 895.649 407.189C895.297 406.726 894.944 406.355 894.87 406.355C894.554 406.355 892.79 408.603 891.992 410.016C890.209 413.19 888.631 414.695 887.053 414.695C886.032 414.695 885.902 414.232 885.215 408.371C884.565 402.857 883.915 401.05 882.207 399.985C881.502 399.544 880.963 399.405 880.091 399.405C879.125 399.405 878.902 399.336 878.735 398.942C878.438 398.247 878.624 397.761 879.589 396.764C880.74 395.56 881.038 394.656 880.796 393.035C880.406 390.394 879.571 389.05 877.269 387.382C876.544 386.849 875.95 386.363 875.95 386.27C875.95 386.2 876.247 385.621 876.619 384.996C876.99 384.37 877.417 383.42 877.566 382.934C877.788 382.1 877.77 381.891 877.473 381.034C876.637 378.718 874.576 377.467 871.197 377.235C869.545 377.119 866.426 377.397 865.237 377.768C864.885 377.884 864.81 377.814 864.81 377.351C864.81 376.47 865.702 374.478 866.389 373.829C867.038 373.204 867.707 372.764 870.288 371.258C871.253 370.679 872.051 369.984 872.664 369.219L873.555 368.084L874.316 369.08C875.375 370.517 876.229 372.138 877.974 376.1C879.849 380.339 880.703 381.938 881.984 383.513C883.136 384.973 883.433 385.065 885.958 384.764C887.981 384.532 890.246 383.652 891.862 382.471C893.366 381.382 895.928 378.092 897.005 375.938C899.121 371.675 900.848 364.91 901.665 357.659C901.888 355.528 902.723 357.034 903.262 360.624C903.689 363.474 903.874 364.123 904.394 364.818C904.895 365.489 905.917 365.744 906.344 365.327C906.863 364.771 907.328 363.196 907.328 361.922C907.328 360.346 906.826 358.516 905.471 355.18C904.877 353.698 904.32 352.145 904.264 351.705L904.134 350.918L905.267 351.08C906.956 351.311 908.089 351.821 909.351 352.864C911.672 354.786 913.065 358.285 913.399 363.057L913.547 365.003L914.383 365.281C914.847 365.42 915.664 365.559 916.221 365.559C917.094 365.582 917.279 365.675 917.855 366.393L918.523 367.227L919.247 366.578C919.656 366.231 920.287 365.536 920.658 365.003C921.401 363.984 922.422 362.964 922.979 362.733C923.239 362.617 923.295 362.663 923.239 362.987C922.199 367.621 921.772 369.312 920.77 372.463C920.12 374.524 918.412 379.366 916.964 383.235C911.765 397.181 909.89 403.761 908.906 411.498C908.739 412.796 908.572 414.093 908.534 414.348C908.497 414.603 908.163 415.02 907.792 415.251C907.142 415.692 906.214 416.85 904.023 419.954C902.705 421.854 901.182 422.943 899.585 423.198L898.601 423.337L898.657 420.186C898.694 417.499 898.639 416.966 898.379 416.641C898.1 416.271 898.007 416.34 897.042 417.475C895.241 419.607 894.61 422.086 895.352 424.055C895.761 425.097 896.559 425.954 897.859 426.719C898.75 427.252 899.121 427.321 900.829 427.321C902.63 427.321 902.872 427.275 903.986 426.603C905.434 425.746 906.696 424.24 907.439 422.479C907.736 421.761 908.07 421.228 908.163 421.275C908.275 421.344 909.481 421.993 910.855 422.734L913.362 424.078L915.683 424.008C922.979 423.8 930.461 421.761 935.92 418.495C942.381 414.626 947.357 408.255 950.179 400.193C951.961 395.143 953.113 389.004 953.484 382.563L953.614 380.432L954.839 381.683C957.903 384.741 959.908 385.853 962.433 385.853C964.141 385.853 964.178 385.899 963.603 387.312C963.101 388.517 961.597 390.231 959.221 392.224C955.582 395.305 953.985 397.668 954.152 399.707C954.227 400.772 954.802 400.772 956.12 399.776C957.401 398.78 958.051 398.71 958.664 399.544C959.444 400.587 959.165 402.88 958.126 404.155C957.142 405.406 955.749 405.892 952.389 406.124C950.755 406.263 949.381 406.402 949.325 406.448C949.084 406.749 949.585 408.579 950.086 409.298C950.903 410.456 951.906 410.989 953.373 410.989C957.773 411.012 962.637 406.355 963.138 401.676C963.306 400.239 962.823 398.409 961.876 396.834C961.449 396.162 961.208 395.56 961.3 395.537C961.393 395.49 962.192 394.911 963.046 394.262C964.828 392.896 966.926 390.37 967.817 388.494C968.411 387.22 968.411 387.22 968.133 386.061C967.056 381.544 963.547 379.366 956.455 378.81C954.951 378.694 953.688 378.555 953.67 378.509C953.651 378.486 953.484 377.304 953.298 375.938C952.481 369.683 949.826 361.991 946.354 355.852C944.851 353.165 941.23 348.601 939.763 347.535C934.583 343.759 930.461 345.705 927.454 353.396C927.008 354.532 926.451 356.176 926.228 357.057L925.82 358.632H924.594C922.274 358.632 920.491 359.536 919.099 361.412L918.393 362.339L918.003 361.134C916.425 356.315 914.03 352.099 911.598 349.806C908.46 346.84 905.582 346.979 902.872 350.199C901.832 351.427 901.776 351.474 901.683 350.964C899.901 340.423 898.824 336.045 896.838 331.064C895.761 328.4 894.015 325.179 892.864 323.766C891.88 322.562 891.75 322.075 892.196 321.102C892.345 320.778 892.456 320.291 892.474 319.99C892.474 319.272 892.697 319.318 896.411 320.523ZM778.309 321.102C781.948 321.542 784.566 322.469 787.592 324.345C790.322 326.06 791.399 326.986 798.565 333.89L801.09 336.323L800.329 337.249C798.361 339.612 796.374 341.257 795.52 341.257C794.833 341.257 794.295 340.632 794.054 339.566C793.924 339.033 793.701 338.408 793.552 338.176C793.125 337.55 793.385 337.481 794.815 337.782C796.374 338.106 796.931 337.991 797.34 337.18C797.637 336.624 797.637 336.577 797.21 336.021C796.467 335.002 793.329 331.944 791.621 330.554C786.831 326.616 783.099 325.203 777.455 325.203C772.535 325.226 768.469 326.291 763.79 328.793C747.934 337.296 736.795 359.744 738.15 380.525C738.354 383.444 738.466 384.556 738.837 386.803C738.93 387.336 739.951 388.077 740.341 387.892C740.601 387.776 740.898 386.919 741.065 385.737C741.232 384.695 741.659 384.115 742.235 384.115C742.643 384.115 742.68 384.185 742.569 384.857C742.346 386.247 741.25 387.938 737.741 392.386C735.811 394.842 734.158 396.857 734.084 396.857C733.768 396.857 732.71 391.598 732.116 387.243C731.633 383.606 731.633 373.575 732.116 369.752C733.713 357.265 738.15 346.099 745.038 337.272C753.282 326.685 763.493 321.079 774.856 320.917C775.784 320.894 777.325 320.986 778.309 321.102ZM844.851 324.786C846.578 325.735 847.581 327.82 847.933 331.203L848.138 333.334L849.475 333.427C851.071 333.566 852.445 334.377 853.392 335.767C854.005 336.67 855.342 339.612 855.342 340.052C855.342 340.191 854.599 340.933 853.689 341.72C851.814 343.319 850.366 345.126 849.772 346.609C849.549 347.165 849.345 347.651 849.307 347.697C849.289 347.721 848.713 347.582 848.026 347.35C846.987 347.049 846.634 347.026 845.78 347.257C843.886 347.79 842.122 349.643 840.674 352.586L840.043 353.837L840.451 355.25C841.955 360.462 841.714 366.856 839.857 371.49C839.393 372.625 838.854 373.829 838.65 374.154C838.316 374.687 838.26 374.687 837.796 374.385C836.868 373.76 834.844 371.49 833.656 369.752C833.025 368.802 831.484 366.184 830.24 363.96C826.601 357.404 824.725 354.74 822.275 352.701L820.994 351.659L820.288 352.377C819.211 353.443 818.116 353.767 815.535 353.767C813.753 353.767 813.14 353.86 812.546 354.207C811.859 354.601 811.005 355.528 811.172 355.69C811.209 355.736 811.952 356.223 812.824 356.756C819.768 361.134 825.152 368.849 828.921 379.806C829.386 381.196 829.497 381.683 829.311 381.822C828.921 382.123 825.988 382.725 823.036 383.073C815.479 384 813.01 385.204 811.562 388.61C811.098 389.699 811.06 390.023 811.06 392.502V395.212L811.692 396.023C812.583 397.181 814.031 397.807 816.129 397.946C817.8 398.085 817.837 398.108 817.206 398.363C816.37 398.734 815.386 399.637 814.792 400.633C814.551 401.05 813.79 402.672 813.103 404.27C811.246 408.626 810.039 409.923 807.551 410.224C806.883 410.294 806.326 410.294 806.326 410.224C806.326 410.132 806.66 409.437 807.069 408.649C808.053 406.726 808.554 404.989 808.554 403.413C808.554 401.931 808.22 400.332 807.923 400.332C807.533 400.332 806.029 402.487 804.859 404.664C803.077 408.023 801.759 409.367 800.292 409.367C799.438 409.367 799.029 409.089 797.934 407.815C797.061 406.842 796.374 406.355 795.799 406.355C795.557 406.355 795.52 406.587 795.613 407.838C795.873 411.244 796.969 412.726 799.716 413.329C800.403 413.468 801.294 413.537 801.703 413.444L802.427 413.305L802.316 414.047C802.26 414.464 801.907 415.599 801.536 416.549C800.496 419.19 799.029 420.186 796.783 419.746C795.465 419.514 795 418.981 794.258 416.78C793.868 415.645 793.404 414.672 793.125 414.417C792.698 414.024 792.568 414 791.77 414.255C790.767 414.556 790.062 415.344 788.595 417.707C787.407 419.607 786.627 420.279 785.847 420.093C784.826 419.862 783.749 418.935 782.45 417.128C781.168 415.321 780.259 414.51 778.959 414C778.309 413.746 778.198 413.746 777.975 414.139C777.845 414.371 777.734 414.95 777.734 415.437C777.734 415.923 777.659 416.317 777.548 416.317C777.455 416.317 776.712 416.039 775.933 415.692C774.503 415.066 774.41 415.066 768.915 414.973L763.345 414.904L760.931 416.665C758.016 418.819 756.438 419.815 755.083 420.371C753.876 420.881 751.833 420.904 751.128 420.464L750.645 420.14L751.072 418.981C751.629 417.499 753.077 415.807 756.011 413.19C757.292 412.054 758.926 410.525 759.668 409.784C763.623 405.776 764.774 401.907 763.252 397.598C762.528 395.583 761.525 394.772 759.724 394.772C756.716 394.772 752.873 397.714 748.584 403.274C744.221 408.927 741.659 414.603 741.362 419.213L741.25 421.066L740.322 421.483C739.672 421.761 738.948 421.854 737.89 421.831C735.699 421.738 734.047 420.649 730.76 417.128C729.387 415.668 727.808 414.186 727.27 413.861C726.397 413.305 726.137 413.259 724.671 413.352C722.183 413.514 720.753 414.719 719.676 417.591C719.194 418.889 719.156 419.19 719.156 421.993C719.156 424.68 719.212 425.213 719.695 427.043C720.14 428.734 720.939 430.588 721.923 432.209C722.053 432.395 721.886 432.719 721.403 433.252C720.976 433.715 720.382 434.804 719.88 436.078C718.822 438.766 718.785 439.785 719.713 442.009C720.066 442.866 720.363 443.654 720.363 443.746C720.363 443.839 719.955 444.395 719.435 444.974C717.69 446.92 716.52 450.974 716.687 454.519C716.873 458.55 718.711 460.751 721.719 460.519C722.851 460.45 722.851 460.45 722.963 461.145C723.241 462.766 723.854 463.647 725.358 464.62C725.877 464.944 726.137 464.967 727.084 464.759C730.352 464.04 732.394 461.423 734.121 455.747C734.362 454.959 734.622 454.31 734.697 454.31C734.771 454.31 735.198 454.797 735.625 455.399C737.871 458.48 738.243 458.874 739.394 459.291C740.007 459.523 740.526 459.708 740.545 459.731C740.582 459.755 740.471 460.565 740.304 461.515C739.895 463.901 740.044 467.654 740.675 470.295C740.916 471.384 741.102 472.311 741.065 472.357C740.842 472.612 719.045 466.334 713.029 464.272C696.468 458.573 684.771 451.391 678.347 442.959C671.255 433.646 667.616 421.576 668.358 409.807C668.47 408.116 668.581 406.703 668.618 406.68C668.637 406.633 669.38 406.958 670.234 407.398C671.106 407.838 673.074 408.579 674.597 409.02C680.427 410.78 682.098 411.614 683.75 413.699L684.771 414.95L686.684 414.603C688.874 414.209 690.193 413.583 690.954 412.587L691.474 411.915L690.935 411.244C689.617 409.506 686.684 408.139 680.408 406.379C672.629 404.178 669.974 402.579 668.6 399.29C668.173 398.293 668.099 397.83 668.099 396.162C668.099 394.309 668.136 394.077 668.841 392.455C669.881 389.953 672.443 386.849 675.321 384.579C677.27 383.027 677.976 382.262 682.079 377.142C686.424 371.768 689.209 368.571 692.606 365.096C703.672 353.767 715.759 344.964 729.646 338.083C732.728 336.554 742.067 332.593 742.197 332.755C742.235 332.801 741.77 333.566 741.139 334.446C738.948 337.55 737.314 340.84 734.845 347.072L733.434 350.686L733.1 349.504C732.599 347.721 731.15 346.053 729.554 345.45C726.639 344.315 723 345.219 720.605 347.674C719.565 348.74 718.804 350.663 718.804 352.238C718.785 353.512 718.989 354.694 719.212 354.694C719.286 354.671 719.806 353.837 720.363 352.817C722.127 349.597 723.427 348.439 725.283 348.439C726.397 348.439 727.233 348.809 728.495 349.829C730.148 351.149 730.723 351.474 731.67 351.659C732.766 351.867 732.747 351.983 731.41 355.62C730.853 357.149 730.222 359.119 730.018 359.999L729.628 361.597L728.755 360.926C726.36 359.095 723.26 359.165 720.029 361.088C718.432 362.061 716.557 364.215 715.889 365.883L715.425 366.995L715.109 366.069C714.626 364.702 713.419 363.312 712.045 362.501C710.95 361.875 710.56 361.76 708.889 361.69C707.831 361.621 706.457 361.713 705.826 361.852C701.63 362.848 697.118 365.837 694.389 369.428C692.309 372.138 691.585 374.455 691.585 378.463C691.585 381.706 692.049 383.351 693.516 385.181C694.482 386.386 694.871 386.687 695.874 387.081C697.619 387.753 698.9 387.892 700.627 387.59C703.988 387.034 707.274 385.135 710.244 382.054C710.746 381.544 711.321 381.104 711.526 381.104C711.841 381.104 711.86 381.22 711.748 382.494C711.637 383.606 711.674 383.907 711.897 384.023C712.083 384.115 711.767 384.648 710.746 385.969C705.881 392.108 703.449 400.008 704.934 404.803C705.194 405.637 705.733 406.657 706.364 407.491L707.348 408.834L705.918 409.668C705.139 410.108 703.691 410.873 702.725 411.336C700.776 412.286 699.606 413.074 699.123 413.746C698.826 414.163 698.826 414.255 699.086 414.881C700.089 417.29 702.075 417.29 705.64 414.904C706.587 414.278 708.146 413.259 709.093 412.61C710.04 411.985 711.266 411.359 711.804 411.197C712.342 411.058 712.825 410.803 712.881 410.618C712.937 410.433 712.899 409.854 712.788 409.344C712.602 408.464 712.621 408.394 713.067 408.139C713.494 407.908 713.568 407.954 713.921 408.556C715.035 410.525 716.706 411.869 718.859 412.518C720.066 412.865 720.419 412.888 721.551 412.634C723.909 412.147 725.339 410.734 726.193 408.139L726.62 406.819L726.954 407.769C728.068 410.803 731.93 412.703 735.309 411.846C738.001 411.151 739.301 409.599 739.301 407.05C739.301 406.193 739.152 405.382 738.837 404.548C738.447 403.506 738.317 403.344 737.853 403.344C737.166 403.344 736.646 404.062 736.256 405.591C735.773 407.444 735.458 407.815 734.381 407.792C733.174 407.745 732.673 407.491 730.538 405.73C729.331 404.711 728.514 404.201 727.994 404.108C727.14 403.969 726.843 403.529 726.824 402.394C726.806 401.884 727.01 401.444 727.567 400.726C728.44 399.637 728.532 398.942 727.975 398.247C727.474 397.622 726.88 397.344 725.116 396.95C722.907 396.463 722.963 396.51 722.963 395.351C722.963 392.641 724.299 391.181 727.827 390.069L729.609 389.513L729.721 390.579C729.869 391.923 730.445 393.452 731.652 395.768C732.543 397.459 732.951 398.571 733.304 400.286L733.453 401.05L735.681 398.803C737.946 396.51 739.969 394.332 747.006 386.78C750.961 382.517 755.695 377.606 755.751 377.698C755.788 377.721 755.64 378.324 755.454 379.019C754.433 382.656 755.602 387.776 758.165 390.996C760.225 393.544 762.101 393.776 763.735 391.668C764.236 390.996 764.644 390.116 764.997 388.957L765.498 387.243L765.108 386.849C764.496 386.247 764.18 386.316 762.769 387.475C761.005 388.934 760.207 388.841 759.668 387.15C759 385.088 759.111 381.59 759.873 379.737C760.393 378.486 760.69 378.671 761.209 380.64C761.469 381.59 761.748 382.517 761.841 382.679C762.045 383.096 762.806 383.444 763.14 383.281C763.512 383.096 763.976 381.799 764.199 380.247C764.533 377.976 764.756 377.791 766.371 378.44C766.742 378.602 766.779 378.532 766.779 377.698C766.779 376.609 766.371 376.077 765.034 375.335C764.069 374.802 763.642 374.293 763.623 373.621C763.623 373.042 767.002 368.849 769.36 366.532C773.148 362.802 780.129 357.451 790.173 350.57C797.897 345.311 800.645 343.134 803.949 339.705C805.138 338.477 805.676 338.037 805.825 338.222C805.918 338.338 806.048 339.033 806.103 339.751C806.14 340.446 806.233 341.025 806.307 341.025C806.586 341.025 807.477 340.099 808.368 338.871C809.482 337.365 810.002 337.087 810.745 337.666C811.915 338.616 812.249 339.218 812.917 341.744C813.66 344.5 814.161 345.288 815.331 345.566C816.092 345.728 816.519 345.265 817.02 343.643C818.06 340.33 815.646 334.84 812.509 333.38C811.116 332.732 810.262 332.894 808.684 334.075C806.827 335.465 806.382 335.234 807.421 333.427C809.705 329.512 816.76 328.214 821.365 330.855L822.609 331.573L822.702 333.913C822.794 336.647 823.147 337.828 824.02 338.408C825.022 339.056 826.712 338.037 827.232 336.485C827.51 335.628 827.547 332.546 827.306 330.253C827.139 328.608 827.325 328.237 828.754 327.357C830.908 325.99 833.526 326.963 835.94 329.998C836.664 330.902 837.518 332.153 837.833 332.801C839.189 335.465 839.263 335.489 840.563 333.936C841.454 332.894 841.454 332.871 841.38 331.666C841.324 330.948 841.082 329.929 840.804 329.257C839.95 327.218 840.21 325.759 841.528 325.133C841.955 324.925 842.364 324.6 842.438 324.415C842.568 323.975 843.7 324.16 844.851 324.786ZM783.025 330.925C784.919 331.62 791.25 335.373 790.99 335.674C790.897 335.767 790.526 335.998 790.173 336.16C789.82 336.323 788.614 336.994 787.481 337.62C783.564 339.821 781.763 340.794 781.707 340.747C781.688 340.701 781.763 340.145 781.855 339.52C782.412 336.16 780.166 333.334 775.246 331.203C774.744 330.994 774.93 330.855 776.267 330.485C778.031 329.975 780.927 330.183 783.025 330.925ZM770.307 331.805C770.307 331.851 770.159 332.384 769.991 333.033C769.75 334.006 769.694 335.234 769.713 340.562L769.731 346.933L769.304 345.89C769.063 345.311 768.525 343.759 768.098 342.415C766.798 338.245 765.48 336.67 763.066 336.415L761.859 336.276L763.252 335.187C765.108 333.728 766.872 332.755 768.599 332.222C770.084 331.782 770.307 331.712 770.307 331.805ZM775.487 335.28C776.211 335.604 778.848 337.805 778.848 338.06C778.848 338.431 777.567 341.002 776.453 342.879C774.819 345.612 773.018 348.416 772.869 348.416C772.814 348.439 772.646 347.883 772.498 347.211C772.015 344.825 772.257 336.16 772.851 334.909C772.962 334.701 774.782 334.933 775.487 335.28ZM895.928 340.284C896.8 343.18 897.432 346.261 897.673 348.786C897.877 350.825 897.784 353.628 897.487 354.207C897.32 354.578 896.541 350.64 896.002 346.585C895.445 342.369 894.907 339.056 894.48 337.087C894.275 336.137 894.071 335.211 894.034 335.002C893.848 334.168 895.334 338.315 895.928 340.284ZM790.674 339.89C790.396 342.809 788.744 344.176 784.919 344.616C783.601 344.778 783.489 344.755 783.489 344.361C783.489 344.107 783.731 343.388 784.046 342.74C784.882 340.91 786.404 339.821 789.245 339.033C790.86 338.593 790.804 338.547 790.674 339.89ZM764.013 340.84C764.644 341.744 765.48 344.107 765.758 345.798C765.907 346.678 766.185 349.111 766.408 351.219C766.854 355.644 767.318 358.146 767.986 359.814L768.45 360.995L768.079 361.621C767.485 362.686 766.315 363.891 765.591 364.192C764.663 364.563 763.735 363.937 763.66 362.848C763.605 362.2 763.679 362.084 764.496 361.597C765.09 361.25 765.405 360.902 765.443 360.578C765.498 360.045 765.833 360.254 758.74 355.968C756.586 354.671 755.027 353.211 754.136 351.636L753.746 350.941L754.526 348.972C755.435 346.655 757.44 343.968 759.186 342.693C760.393 341.813 763.029 340.33 763.4 340.33C763.549 340.33 763.827 340.562 764.013 340.84ZM755.287 341.211C755.175 341.489 754.284 342.809 753.3 344.176C750.292 348.392 749.828 350.477 751.276 353.165C751.871 354.254 751.852 354.346 751.202 354.694C750.812 354.879 750.051 354.925 748.603 354.81C746.208 354.601 746.282 354.763 747.433 352.145C749.048 348.439 751.295 344.941 753.783 342.184C755.268 340.562 755.677 340.284 755.287 341.211ZM858.813 344.663C859.111 345.195 859.148 345.867 859.148 349.365C859.148 352.493 859.222 353.582 859.426 354.115C859.909 355.319 861.041 355.203 862.267 353.79C863.232 352.701 863.715 352.377 864.383 352.377C865.405 352.377 865.813 353.257 865.794 355.389C865.794 356.756 865.702 357.149 864.662 359.767C864.031 361.343 863.511 362.895 863.511 363.219C863.511 363.984 864.792 365.582 865.423 365.582C866.11 365.582 867.15 364.354 867.781 362.802C868.561 360.902 869.229 360.254 870.473 360.254C871.476 360.254 871.476 360.254 871.661 361.111C871.903 362.2 871.903 362.478 871.661 363.567C871.383 364.818 870.343 366.161 869.006 366.972C868.394 367.343 866.5 368.2 864.829 368.825C863.158 369.474 861.468 370.215 861.06 370.47C860.336 370.934 860.317 370.98 860.392 371.907C860.447 372.509 860.726 373.32 861.097 373.968C861.691 375.011 861.691 375.08 861.413 375.613C861.134 376.146 860.986 376.192 859.296 376.285C857.198 376.378 856.066 376.934 853.578 379.019C852.148 380.223 850.069 381.567 849.642 381.567C849.252 381.567 849.363 382.841 849.79 383.513C850.756 385.042 852.371 385.181 856.214 384.115C857.569 383.722 858.981 383.42 859.333 383.42C860.057 383.42 860.354 383.837 860.819 385.505C861.431 387.683 862.007 387.637 864.346 385.158C865.367 384.092 866.741 382.864 867.391 382.447C868.449 381.776 868.765 381.683 870.083 381.683C871.104 381.683 871.884 381.822 872.46 382.1C873.258 382.494 873.332 382.586 873.147 382.98C872.831 383.745 871.884 384.301 870.009 384.834C866.63 385.783 865.924 386.502 865.924 389.143C865.924 390.996 866.351 392.316 867.131 392.919L867.744 393.382L869.935 392.293C871.736 391.413 872.423 391.204 873.648 391.112C874.892 391.019 875.263 391.089 875.876 391.482C877.009 392.201 877.157 392.525 876.897 393.637C876.619 394.749 876.08 395.212 874.019 396.069C873.221 396.417 872.311 396.95 872.014 397.297C871.476 397.9 871.457 397.946 871.736 398.734C872.367 400.61 873.852 401.768 877.009 402.88C879.069 403.599 881.335 404.664 881.335 404.942C881.335 405.382 880.054 406.935 879.404 407.305C877.77 408.232 875.783 407.769 872.107 405.545L869.619 404.062L868.988 404.525C868.412 404.942 868.375 405.058 868.468 405.846C868.672 407.56 869.229 408.672 870.9 410.711C873.054 413.329 873.425 414.209 873.444 416.734C873.444 418.611 873.425 418.703 872.887 419.236C871.494 420.672 870.028 421.182 868.802 420.672L868.06 420.371L867.93 418.217C867.781 415.946 867.41 414.603 866.816 414.209C866.611 414.07 866.129 414.024 865.683 414.139C864.476 414.371 863.678 415.553 863.047 417.939C862.471 420.14 861.914 421.645 861.673 421.645C861.376 421.645 860.522 420.672 860.243 419.954C859.797 418.889 860.002 417.591 861.06 414.765C862.1 412.008 862.471 410.34 862.285 409.298C862.137 408.371 860.614 406.355 860.076 406.355C859.408 406.355 858.442 406.842 857.904 407.467C857.235 408.232 856.883 409.228 856.233 412.101C855.936 413.421 855.527 414.95 855.323 415.46L854.933 416.387L854.58 415.692C854.079 414.695 853.8 412.541 853.949 410.641C854.005 409.738 854.357 407.189 854.729 404.965C855.769 398.432 855.49 395.513 853.652 393.845C852.687 392.988 851.22 392.386 850.533 392.571C849.734 392.78 849.289 393.544 848.825 395.467C848.361 397.459 848.156 397.853 847.748 397.668C847.581 397.575 846.504 397.367 845.353 397.181C844.202 397.019 843.106 396.764 842.939 396.649C842.679 396.463 842.642 396.139 842.679 394.911C842.772 392.826 842.326 390.973 841.435 389.884C840.618 388.841 839.523 388.424 837.963 388.563C837.016 388.633 836.719 388.772 836.162 389.374C835.81 389.768 835.42 390.116 835.308 390.162C834.993 390.301 834.77 393.313 834.937 394.957C835.253 397.714 835.828 398.757 839.411 403.066C840.303 404.108 841.082 405.197 841.138 405.452C841.212 405.707 841.138 406.147 840.971 406.471C840.693 407.004 840.136 407.213 837.963 407.63C836.367 407.931 836.032 409.274 836.794 412.101C837.276 413.861 838.186 415.437 839.597 416.919L840.655 418.031L839.876 419.885C839.096 421.761 837.592 423.962 837.072 423.962C836.627 423.962 836.255 423.082 835.661 420.696C835.067 418.356 834.473 417.244 833.786 417.244C833.173 417.244 831.873 419.028 831.428 420.487C831.224 421.205 830.797 423.29 830.481 425.12C829.813 429.059 829.218 430.727 828.142 431.653C827.046 432.603 826.563 432.603 826.266 431.607C826.136 431.167 826.025 430.124 826.025 429.29C826.006 427.437 826.415 426.232 828.16 423.128C829.478 420.765 829.98 419.421 830.184 417.638C830.314 416.618 830.277 416.456 829.794 415.831C829.497 415.46 828.866 414.997 828.364 414.811C826.712 414.209 825.32 414.881 821.551 418.17C820.269 419.282 818.951 420.371 818.636 420.58L818.023 420.974V420.279C818.023 419.19 818.561 417.475 819.267 416.271C819.62 415.668 820.771 414.278 821.829 413.19C824.076 410.896 824.967 409.599 825.468 407.977C825.914 406.541 825.914 405.915 825.505 404.456C825.115 403.112 824.818 402.95 823.333 403.344C822.572 403.529 821.792 404.016 820.511 405.081C818.636 406.657 817.819 407.004 816.872 406.68C816.092 406.402 816.055 406.147 816.705 405.035C817.299 404.016 818.858 402.927 821.458 401.722C822.293 401.351 823.351 400.726 823.834 400.332L824.707 399.637V397.274C824.707 395.467 824.633 394.703 824.373 394.077C824.001 393.15 824.243 393.174 819.694 393.637C816.965 393.915 814.681 393.706 814.254 393.174C814.124 393.011 814.18 392.571 814.458 391.83C814.681 391.204 814.885 390.417 814.904 390.046C814.959 389.49 815.089 389.305 815.702 389.05C817.169 388.401 819.044 388.054 822.72 387.683C828.123 387.173 829.961 386.641 831.354 385.158C832.226 384.231 832.728 382.864 832.839 381.104C832.95 378.972 832.616 377.258 831.539 374.571C830.332 371.582 828.123 367.945 824.15 362.455C820.975 358.053 819.23 355.412 819.397 355.227C819.62 354.949 821.569 356.593 822.924 358.169C824.948 360.555 826.805 363.729 829.813 370.053C831.224 373.019 832.858 376.331 833.415 377.443C834.417 379.413 834.473 379.482 835.141 379.482C838.168 379.482 841.38 377.003 842.828 373.575C844.703 369.127 845.26 362.084 844.22 355.62C844.035 354.416 843.886 353.396 843.923 353.35C844.332 352.794 846.114 351.381 846.652 351.172C847.562 350.825 847.674 350.964 848.101 353.095C848.472 354.902 848.918 355.62 849.679 355.62C850.273 355.62 851.275 353.86 852.185 351.242C853.206 348.323 853.763 347.002 854.339 346.145C855.1 345.01 856.623 344.153 858.071 344.06C858.331 344.037 858.609 344.269 858.813 344.663ZM937.517 350.223C941.936 353.072 947.598 365.513 949.789 377.119C950.216 379.436 950.29 380.339 950.309 383.42C950.309 386.038 950.216 387.544 949.975 388.934C948.787 395.768 945.797 402.765 941.88 407.838C936.885 414.302 931.241 417.429 922.255 418.75C919.192 419.19 918.746 419.167 920.64 418.634C928.196 416.502 935.437 410.827 940.562 402.996C947.338 392.641 949.641 379.83 946.689 368.802C945.853 365.628 945.092 363.682 943.569 360.81C941.267 356.454 938.538 353.651 934.917 351.937C934.453 351.705 934.435 351.728 934.546 352.238C934.713 353.118 934.175 354.091 932.262 356.385C931.278 357.543 930.239 358.98 929.942 359.559L929.385 360.601L929.515 359.79C929.775 358.261 930.536 355.62 931.167 354.045C932.857 349.898 935.01 348.601 937.517 350.223ZM782.115 351.103C780.184 352.864 777.548 354.856 773.835 357.451L771.143 359.304L771.031 358.099C770.975 357.427 770.827 356.663 770.716 356.385C770.251 355.319 770.418 355.157 771.402 355.69C772.294 356.153 772.331 356.153 772.832 355.759C773.296 355.366 773.315 355.25 773.222 354.091L773.111 352.84L773.835 353.304C774.689 353.837 775.988 353.906 776.898 353.443C777.232 353.257 778.161 352.562 778.94 351.914C780.797 350.338 782.115 349.597 783.025 349.597H783.768L782.115 351.103ZM887.462 352.655V354.207L886.645 354.346C886.199 354.439 885.345 354.393 884.751 354.23C883.674 353.952 881.372 352.748 880.573 352.076L880.183 351.728L880.703 351.358C881.149 351.057 881.78 350.987 884.342 351.033L887.462 351.103V352.655ZM934.416 360.045C934.658 361.458 934.416 363.15 933.748 364.702C933.265 365.814 930.963 368.756 930.777 368.501C930.721 368.432 930.684 367.806 930.703 367.111C930.721 365.489 931.371 363.335 932.708 360.393C933.878 357.821 934.026 357.798 934.416 360.045ZM898.007 359.929C898.267 360.879 898.174 362.431 897.822 362.964C897.71 363.126 897.487 363.265 897.302 363.265C896.875 363.265 896.689 362.362 896.856 360.972C897.135 358.678 897.562 358.261 898.007 359.929ZM753.876 360.601C754.897 361.065 756.289 361.69 756.976 361.968C757.663 362.223 758.239 362.524 758.239 362.617C758.239 363.103 756.438 363.289 752.465 363.219L748.213 363.173V361.343V359.489L750.125 359.605C751.722 359.721 752.316 359.86 753.876 360.601ZM885.364 362.918C886.997 364.03 886.923 363.821 886.867 366.764L886.812 369.381L886.106 368.594C885.716 368.177 884.974 366.926 884.472 365.837C883.952 364.748 883.321 363.497 883.061 363.08L882.616 362.339L883.043 362.13C883.563 361.899 884.194 362.107 885.364 362.918ZM939.392 363.96C939.206 367.482 938.074 369.613 933.432 375.127C930.127 379.088 929.069 380.779 928.493 383.119C928.122 384.602 927.974 387.822 928.271 387.822C928.345 387.822 928.92 387.614 929.552 387.359C930.647 386.942 932.077 386.71 936.588 386.2C940.432 385.783 942.418 384.787 943.291 382.841L943.699 381.915L943.996 382.772C944.628 384.718 944.238 387.22 942.678 391.112L941.843 393.174L941.174 392.432C939.299 390.394 936.05 389.374 931.464 389.374C928.791 389.374 925.541 389.814 925.226 390.208C925.077 390.394 926.098 394.401 926.73 396.093C927.714 398.78 928.92 400.842 930.721 402.95L932.374 404.896L930.164 407.745C928.939 409.321 927.881 410.549 927.825 410.456C927.751 410.386 928.104 409.576 928.605 408.672C929.348 407.305 929.496 406.865 929.477 406.101C929.403 404.108 928.048 400.355 926.098 396.718C924.594 393.892 924.557 393.869 923.778 394.726C923.425 395.096 923.035 395.467 922.886 395.513C922.496 395.676 923.313 398.548 924.892 402.51C925.653 404.409 926.265 406.077 926.265 406.24C926.265 406.657 924.26 408.417 923.443 408.695C923.035 408.811 922.459 408.857 922.162 408.788C921.512 408.603 921.494 408.232 921.902 405.081C922.367 401.537 922.237 399.637 921.401 398.548C921.178 398.27 920.937 398.015 920.881 398.015C920.658 398.015 919.823 400.541 919.396 402.417C918.338 407.259 918.913 411.29 920.825 412.309C921.921 412.865 921.475 413.19 919.563 413.19C918.598 413.19 917.632 413.282 917.409 413.375C917.056 413.537 916.982 413.468 916.871 412.703C916.555 410.641 916.908 407.884 918.003 403.877L919.062 400.031L918.69 399.429C918.189 398.571 917.706 398.571 916.24 399.429C915.515 399.846 914.903 400.124 914.866 400.077C914.81 399.985 917.168 393.15 919.897 385.621C922.255 379.065 926.228 369.057 926.451 369.057C926.804 369.057 927.361 370.957 927.472 372.532C927.639 374.594 927.324 376.748 926.581 378.602L925.968 380.154L926.711 379.644C927.12 379.366 928.326 378.092 929.366 376.841C931.278 374.548 933.005 371.999 937.034 365.513C938.204 363.636 939.243 362.107 939.336 362.107C939.429 362.107 939.466 362.895 939.392 363.96ZM745.242 365.628C745.706 366.717 745.706 367.227 745.242 368.339C744.908 369.196 742.921 371.605 742.569 371.605C742.29 371.605 742.587 369.266 743.2 366.625C743.534 365.211 743.831 363.914 743.887 363.729C743.98 363.335 744.685 364.308 745.242 365.628ZM726.379 365.188C726.787 365.466 727.381 366.138 727.678 366.694C728.143 367.528 728.254 367.968 728.31 369.312C728.384 370.957 728.384 370.957 727.957 370.795C726.824 370.331 726.063 370.215 723.984 370.239C722.758 370.239 721.087 370.378 720.27 370.563C719.453 370.748 718.766 370.91 718.748 370.91C718.581 370.91 718.748 369.358 718.971 368.663C720.14 365.211 723.872 363.451 726.379 365.188ZM710.282 367.018C711.656 367.713 712.194 368.64 712.194 370.331C712.194 374.687 706.308 381.521 700.776 383.559C700.033 383.837 699.012 383.976 697.731 383.976L695.781 384L695.521 382.957C695.113 381.382 695.113 375.66 695.503 374.756C695.8 374.084 695.818 374.084 696.023 374.571C696.134 374.849 696.301 376.03 696.394 377.212C696.598 379.691 696.802 380.501 697.322 380.849C698.176 381.428 700.998 380.849 702.818 379.737C704.08 378.949 707.812 375.335 708.146 374.548C708.258 374.27 708.351 373.459 708.369 372.764C708.369 371.049 707.868 369.937 706.308 368.154C704.767 366.37 704.86 366.208 707.404 366.37C708.666 366.462 709.52 366.648 710.282 367.018ZM705.696 371.374C705.696 373.992 704.415 375.497 701.37 376.494C699.476 377.119 699.476 377.096 700.07 375.752C700.85 374.015 702.577 371.744 703.598 371.142C705.343 370.123 705.696 370.146 705.696 371.374ZM752.298 371.119C752.298 371.513 750.552 373.273 748.306 375.15C747.08 376.169 745.725 377.351 745.317 377.768C744.667 378.416 744.518 378.486 744.425 378.185C743.887 376.401 745.391 373.389 747.489 372.069C748.826 371.212 752.298 370.54 752.298 371.119ZM941.174 375.312C941.156 376.911 941.044 378.787 940.896 379.482L940.654 380.733L938.519 381.266C937.35 381.544 935.809 381.776 935.103 381.776L933.841 381.799L934.342 380.918C934.62 380.455 935.883 378.787 937.145 377.235C939.021 374.918 939.522 374.154 940.042 372.81L940.654 371.188L940.933 371.791C941.137 372.277 941.211 373.111 941.174 375.312ZM725.376 374.64C727.066 375.104 727.753 375.544 727.975 376.331C728.087 376.725 728.254 378.671 728.347 380.64C728.532 384.278 728.662 385.969 728.848 387.15L728.941 387.822L728.402 387.475C726.973 386.594 724.893 386.617 723.427 387.544C720.567 389.351 718.581 394.378 719.472 397.575C720.01 399.521 721.477 400.772 723.464 400.981C724.374 401.073 724.633 401.166 724.559 401.421C723.26 405.637 722.09 407.676 720.605 408.301C718.896 409.02 718.692 408.742 718.674 405.73C718.674 402.95 718.432 402.162 717.485 401.768C716.501 401.351 716 401.514 713.716 402.927C712.008 404.016 711.618 404.155 710.412 404.224C709.65 404.294 708.833 404.247 708.573 404.178C708.128 404.039 708.109 403.969 708.109 401.884C708.109 396.95 709.595 393.591 713.029 390.857C713.809 390.231 715.814 388.98 717.467 388.077C720.419 386.455 720.493 386.386 720.4 385.783C720.215 384.463 719.528 384 717.225 383.629L715.536 383.351L715.517 382.517C715.462 379.691 715.889 378.138 717.114 376.725C718.358 375.312 719.528 374.71 721.849 374.316C722.517 374.2 724.392 374.362 725.376 374.64ZM935.047 394.123C936.347 394.54 937.405 394.981 937.405 395.12C937.405 395.815 936.199 398.293 935.456 399.151C934.546 400.193 934.305 400.263 933.395 399.73C932.17 398.988 930.944 396.788 930.387 394.239L930.202 393.382H931.427C932.207 393.382 933.544 393.66 935.047 394.123ZM760.17 400.124C759.483 403.043 757.849 405.475 754.618 408.44C750.849 411.869 749.55 413.607 748.584 416.479C748.306 417.313 747.934 418.101 747.749 418.217C747.563 418.356 747.118 418.333 746.523 418.17C745.558 417.869 744.5 418.147 744.5 418.703C744.5 418.842 744.444 418.889 744.388 418.819C744.333 418.75 744.592 417.777 744.964 416.665C748.269 406.703 752.687 401.212 759.037 399.174C759.78 398.942 760.393 398.78 760.411 398.803C760.448 398.849 760.337 399.429 760.17 400.124ZM851.443 403.112C851.443 404.131 851.22 405.313 850.588 407.63C849.809 410.595 849.753 410.919 849.809 412.842L849.864 414.904L848.546 415.39C847.098 415.923 845.223 416.039 844.09 415.645C843.236 415.367 841.807 414.163 841.231 413.236C841.008 412.865 840.841 412.564 840.878 412.541C840.915 412.518 841.342 412.24 841.844 411.939C842.939 411.244 843.923 409.9 844.48 408.348C845.093 406.657 845.204 405.336 844.889 403.575C844.721 402.741 844.647 402.023 844.684 401.954C844.74 401.907 845.576 402.185 846.578 402.579C847.562 402.973 848.602 403.367 848.88 403.436C849.642 403.645 850.7 403.019 850.941 402.209C851.238 401.189 851.443 401.56 851.443 403.112ZM881.892 412.587V413.954L881.112 414.116C880.016 414.348 879.199 414.788 878.364 415.622C877.826 416.155 877.621 416.248 877.473 416.016C877.064 415.367 876.73 414.278 876.6 413.12L876.47 411.915L877.844 411.892C878.587 411.892 879.664 411.73 880.221 411.568C881.947 411.081 881.892 411.035 881.892 412.587ZM884.268 417.8C886.236 419.468 887.462 419.769 889.003 418.981C889.727 418.611 889.244 421.46 888.353 422.711C887.257 424.263 885.642 424.889 882.653 424.889C881.26 424.889 880.796 424.958 880.722 425.213C880.573 425.7 881.093 426.441 881.799 426.742C883.284 427.344 881.836 428.317 880.054 427.9C879.534 427.785 878.94 427.576 878.754 427.437C877.844 426.835 878.16 421.854 879.292 419.097C879.478 418.634 880.016 417.661 880.499 416.943L881.353 415.622L882.077 416.085C882.486 416.34 883.47 417.105 884.268 417.8ZM976.766 417.082C977.026 417.684 977.008 417.777 976.228 419.607C972.236 428.897 966.852 438.858 961.486 446.897C958.72 451.021 951.312 460.334 948.192 463.577C936.533 475.647 923.722 484.033 908.757 489.408C900.384 492.42 891.602 494.296 873.444 496.937C869.879 497.447 863.065 498.443 858.312 499.138C845.186 501.061 836.274 502.15 825.914 503.099C821.959 503.447 821.699 503.447 817.744 502.984C815.498 502.706 810.485 502.289 806.605 502.011C778.903 500.157 760.485 496.729 745.224 490.543C736.219 486.906 727.66 481.717 721.292 476.041C719.026 474.025 716.427 471.431 716.52 471.292C716.65 471.129 719.843 471.894 733.545 475.276C753.56 480.234 759.557 481.508 769.286 482.782C779.052 484.056 790.08 484.381 798.51 483.616L800.422 483.431L800.273 483.987C800.032 484.937 800.181 485.655 800.849 486.883C801.202 487.531 801.499 488.273 801.499 488.574C801.499 489.037 800.7 490.219 800.366 490.219C799.976 490.219 799.605 489.871 799.252 489.13C798.714 488.064 797.767 487.531 797.098 487.948C795.947 488.643 795.372 491.725 796.003 493.786C796.43 495.2 797.655 496.566 798.305 496.381C800.31 495.802 803.485 492.906 805.528 489.802C806.289 488.62 806.363 488.412 806.27 487.555C806.159 486.628 805.769 486.049 804.079 484.381C803.634 483.941 803.504 483.709 803.671 483.547C803.801 483.454 808.405 482.713 813.883 481.902C834.38 478.913 844.387 477.269 853.392 475.415C855.843 474.906 858.126 474.419 858.442 474.326L859.055 474.187L858.516 475.531C857.755 477.431 857.384 479.423 857.384 481.554C857.384 484.056 857.644 485.053 858.609 486.257L859.426 487.277L860.726 487.114C863.659 486.79 866.667 484.914 868.264 482.412C868.654 481.809 868.988 481.276 869.006 481.23C869.025 481.184 869.526 481.578 870.102 482.087C872.72 484.381 874.892 484.52 877.12 482.597C877.547 482.226 878.94 480.697 880.202 479.215C881.465 477.732 882.69 476.435 882.913 476.319C883.117 476.226 883.971 476.018 884.769 475.855C886.496 475.531 887.666 474.998 889.04 473.886C891.156 472.195 891.472 472.079 893.124 472.241C895.612 472.496 895.519 472.427 896.968 475.392C898.471 478.52 899.363 479.655 900.774 480.164C902.036 480.628 902.556 480.489 904.636 479.099C906.436 477.894 907.959 477.245 908.943 477.245C909.277 477.245 910.224 477.454 911.022 477.709L912.471 478.195L913.51 477.709C914.067 477.454 915.497 476.458 916.685 475.485C919.284 473.377 920.083 472.983 921.382 473.168C922.329 473.307 922.348 473.284 923.332 472.172C925.077 470.18 925.894 467.562 925.894 463.855V461.955H927.064C930.109 461.932 932.782 460.542 934.992 457.809C937.814 454.357 939.763 449.469 941.397 441.847L941.917 439.507L943.421 438.881C946.986 437.399 951.664 434.711 955.526 431.931C957.643 430.426 961.523 427.414 966.796 423.174C971.345 419.537 975.838 416.294 976.209 416.363C976.358 416.41 976.599 416.711 976.766 417.082ZM725.265 419.421C728.681 423.035 733.657 425.12 738.948 425.144C742.773 425.167 742.476 425.398 743.404 421.923L744.203 418.981L744.333 420.14C744.462 421.159 744.592 421.437 745.484 422.456C746.561 423.684 746.913 424.333 746.913 425.097C746.913 425.561 747.006 425.584 749.475 425.584C755.658 425.584 759.91 424.078 762.528 420.95C763.939 419.306 764.199 419.306 764.83 421.066C765.294 422.41 765.684 422.711 766.668 422.479C767.318 422.317 767.931 421.622 768.729 420.07C769.026 419.514 769.453 419.028 769.694 418.935C769.973 418.865 770.994 419.097 772.238 419.537C773.371 419.931 774.67 420.255 775.116 420.255H775.951L775.394 420.974C775.097 421.367 774.392 421.993 773.835 422.34C771.681 423.754 771.05 424.611 771.05 426.163C771.05 428.155 772.349 429.476 774.02 429.198C775.209 428.989 777.028 427.831 777.994 426.626L778.81 425.607L778.94 426.696C779.2 428.943 780.184 430.866 781.41 431.514C781.985 431.839 782.004 431.885 782.004 433.298C782.004 436.009 781.336 437.538 779.832 438.372C778.978 438.835 777.01 438.928 776.378 438.511C776.174 438.395 775.821 437.723 775.58 437.028C775.023 435.453 774.596 435.198 773.315 435.661C772.201 436.078 771.885 436.611 771.495 438.719C771.347 439.6 771.18 440.48 771.124 440.712C770.957 441.383 770.103 442.495 769.75 442.495C769.212 442.495 768.673 441.43 768.432 439.947C768.228 438.627 767.671 437.167 767.392 437.167C767.299 437.167 767.076 437.491 766.872 437.885C766.352 438.835 765.387 439.576 764.83 439.391C764.18 439.183 763.382 438.071 761.934 435.383C759.724 431.306 758.09 429.638 755.974 429.36C754.655 429.198 753.616 429.592 752.52 430.657C751.592 431.584 750.627 433.53 750.627 434.48C750.627 435.43 751.035 436.75 751.536 437.445L752.056 438.163L753.504 437.885C755.528 437.468 756.011 437.63 756.494 438.835C756.698 439.391 757.218 440.665 757.645 441.685C758.072 442.704 758.48 443.978 758.536 444.511L758.666 445.507H757.663C756.716 445.507 756.642 445.553 755.788 446.689C754.99 447.731 754.934 447.916 755.101 448.472C755.528 449.862 756.326 450.882 758.796 453.268C759.78 454.218 760.857 455.469 761.191 456.048C761.841 457.183 762.435 459.152 762.193 459.407C762.101 459.5 761.358 459.801 760.504 460.079C757.719 461.006 756.531 461.886 755.918 463.508C755.231 465.315 755.584 466.357 757.311 467.492C759 468.627 759.167 468.882 759.167 470.504C759.167 472.149 758.944 472.96 758.276 473.84C757.552 474.813 756.883 475.16 755.825 475.16C754.73 475.16 753.709 474.674 753.003 473.84C752.483 473.214 752.483 473.214 752.483 470.017C752.483 468.234 752.39 466.334 752.279 465.755C752.019 464.481 751.165 463.345 750.478 463.345C749.81 463.345 748.844 464.11 748.436 464.967C748.269 465.338 747.842 466.288 747.489 467.052C746.783 468.581 745.985 469.369 745.094 469.369C744.37 469.369 744.203 468.998 743.906 466.867C743.608 464.666 743.998 462.28 745.354 458.063L746.412 454.82L746.004 454.125C745.317 452.897 744.555 452.92 742.049 454.218C740.638 454.959 740.155 454.936 739.877 454.148C739.097 451.994 739.505 449.723 741.715 444.326C742.624 442.078 743.534 439.6 743.757 438.812C744.741 435.175 743.794 432.812 740.898 431.63C738.02 430.449 737.63 430.889 737.63 435.267V438.024L737.129 438.302C736.832 438.464 735.996 438.65 735.235 438.719L733.861 438.858L733.434 440.04C732.821 441.708 732.506 443.399 731.874 448.264C731.559 450.604 731.187 453.106 731.02 453.824C730.389 456.558 729.145 458.782 727.771 459.662C726.434 460.496 726.416 460.357 727.418 457.415C728.18 455.214 728.347 453.778 727.975 452.897C727.827 452.55 727.567 452.457 726.843 452.457C725.747 452.457 725.153 452.805 724.262 453.963C723.315 455.191 722.368 455.747 721.329 455.654L720.456 455.585V453.268C720.475 451.484 720.549 450.766 720.809 450.14C721.384 448.75 722.61 447.384 724.801 445.692C727.159 443.862 728.124 442.773 728.718 441.314C729.127 440.364 729.127 440.341 728.755 439.739C728.198 438.789 727.326 438.627 725.135 439.09C724.095 439.322 723.167 439.484 723.074 439.484C722.851 439.484 723.055 438.047 723.445 437.028C723.835 436.032 724.763 435.128 726.732 433.901C728.44 432.812 729.646 431.538 729.646 430.796C729.646 429.453 728.662 428.804 725.933 428.364C724.262 428.086 723.761 427.692 723.111 426.047C722.276 424.032 722.406 421.391 723.427 419.19C723.687 418.634 723.947 418.17 724.002 418.17C724.039 418.17 724.615 418.726 725.265 419.421ZM850.236 420.418C848.658 425.19 845.501 428.155 842.958 427.298C842.605 427.182 842.549 427.043 842.661 426.534C843.18 423.823 844.332 421.831 845.928 420.835C846.949 420.209 848.88 419.607 849.92 419.584L850.514 419.56L850.236 420.418ZM796.096 429.568C796.003 429.962 795.687 430.704 795.372 431.167C795.075 431.653 794.722 432.302 794.611 432.626C794.481 432.951 794.313 433.229 794.221 433.229C793.942 433.229 793.329 432.302 793.329 431.862C793.329 430.819 795.038 428.85 795.966 428.827C796.226 428.827 796.244 428.943 796.096 429.568ZM886.069 431.144C886.218 431.445 885.122 434.109 884.509 434.92C883.878 435.777 883.173 436.24 882.486 436.24C882.04 436.24 881.892 436.101 881.687 435.499C881.557 435.105 881.446 434.294 881.446 433.738C881.427 432.719 881.427 432.719 882.133 432.626C882.541 432.58 883.228 432.279 883.693 431.931C884.936 431.028 885.865 430.727 886.069 431.144ZM737.537 443.19C737.611 443.492 737.444 444.094 736.999 444.997C736.627 445.716 736.33 446.503 736.33 446.735C736.33 446.943 736.256 447.129 736.163 447.129C735.866 447.129 735.755 446.341 735.866 444.928C735.978 443.677 736.052 443.515 736.572 443.167C737.37 442.658 737.407 442.658 737.537 443.19ZM935.549 445.994C935.549 451.438 933.042 455.515 928.679 457.206C927.305 457.739 923.091 457.924 921.048 457.577C920.194 457.415 918.523 456.975 917.354 456.581C916.184 456.187 914.996 455.816 914.717 455.77C913.956 455.585 913.195 456.326 912.099 458.249C910.93 460.287 910.41 460.82 909.351 460.959C908.627 461.052 908.516 461.006 908.349 460.519C908.256 460.241 907.922 459.847 907.625 459.662L907.068 459.338L909.296 457.948C912.303 456.048 917.075 453.384 921.494 451.09C925.894 448.797 934.992 444.372 935.326 444.349C935.474 444.349 935.549 444.835 935.549 445.994ZM788.224 445.067C788.446 445.484 788.149 446.364 787.648 446.781C786.441 447.754 783.935 447.314 784.083 446.156C784.12 445.762 784.38 445.577 785.253 445.252C786.516 444.789 788.057 444.696 788.224 445.067ZM783.675 451.299C786.386 451.832 788.688 452.527 788.688 452.805C788.688 453.337 787.147 454.542 785.829 455.052C782.988 456.141 780.89 454.89 780.89 452.133V451.067H781.688C782.115 451.067 783.007 451.183 783.675 451.299ZM905.638 461.121C906.325 461.562 907.198 462.836 907.903 464.411C908.219 465.106 908.534 465.662 908.609 465.662C908.85 465.662 911.301 464.55 913.102 463.623C915.553 462.372 916.555 462.094 918.356 462.257C919.804 462.372 921.438 462.905 921.977 463.438C922.292 463.739 922.181 465.477 921.735 467.353C921.42 468.627 921.382 468.674 920.918 468.512C920.64 468.396 919.841 468.326 919.117 468.326C917.446 468.326 916.37 468.975 914.123 471.361C912.136 473.446 912.266 473.353 911.895 473.168C911.542 473.006 911.524 472.357 911.821 470.388C912.006 469.137 911.988 468.859 911.728 468.349C911.542 468.025 911.171 467.608 910.892 467.446C909.853 466.774 908.423 468.187 907.105 471.176C906.177 473.284 905.081 474.836 904.208 475.299C903.856 475.485 903.039 475.624 902.37 475.624H901.182L900.458 473.678C900.05 472.635 899.641 471.245 899.53 470.597C899.344 469.508 899.363 469.346 900.068 467.33C900.996 464.643 902.333 462.118 903.206 461.376C903.967 460.728 904.858 460.635 905.638 461.121ZM897.877 463.021C897.636 463.23 897.079 464.388 896.633 465.569C895.705 468.048 895.297 468.674 894.517 468.674C893.551 468.674 893.217 468.002 893.217 466.033V464.318L893.997 464.156C894.424 464.064 895.167 463.786 895.631 463.531C896.745 462.905 897.302 462.697 897.859 462.674L898.304 462.65L897.877 463.021ZM888.873 466.218C889.225 467.376 887.926 469.786 886.385 470.828C884.974 471.778 882.337 472.241 882.727 471.431C882.876 471.153 882.56 470.458 881.892 469.647C881.595 469.253 881.335 468.743 881.335 468.488C881.335 468.071 881.502 468.002 882.597 467.863C884.045 467.654 887.09 466.728 887.814 466.241C888.427 465.824 888.743 465.801 888.873 466.218ZM877.937 470.944C878.568 471.5 879.255 473.052 879.404 474.28C879.497 474.975 879.404 475.207 878.642 476.272C876.897 478.705 874.149 479.632 872.311 478.45L871.55 477.964L871.699 476.852C871.94 474.952 871.866 473.701 871.42 472.334L870.993 471.014L872.404 470.666C873.184 470.481 874.595 470.342 875.579 470.365C877.083 470.411 877.436 470.481 877.937 470.944ZM868.134 472.357C868.728 472.844 867.261 477.292 865.85 479.261C865.386 479.886 864.532 480.744 863.919 481.137C862.861 481.856 860.744 482.69 860.577 482.458C860.317 482.157 860.614 479.886 861.116 478.149C861.487 476.898 861.71 475.716 861.728 474.882C861.747 473.608 861.766 473.539 862.23 473.539C862.49 473.539 863.362 473.33 864.179 473.052C864.978 472.774 865.906 472.473 866.203 472.38C866.964 472.126 867.818 472.126 868.134 472.357Z" fill="black"/>
<path d="M876.451 323.743C873.109 325.457 870.51 330.902 868.895 339.566C868.412 342.091 868.412 342.323 868.895 341.72C869.842 340.539 869.935 342.462 868.988 343.782C868.486 344.454 868.338 344.871 868.338 345.543V346.4L869.786 346.238C879.868 345.126 884.862 342.67 885.809 338.384C886.477 335.419 885.679 330.763 883.989 327.635C881.817 323.65 879.255 322.307 876.451 323.743ZM879.682 328.191C881.186 329.141 882.3 331.898 882.541 335.234C882.653 336.763 882.634 337.018 882.318 337.365C881.65 338.13 879.905 338.917 877.064 339.728C875.486 340.168 874.001 340.608 873.778 340.701C873.369 340.84 873.369 340.817 873.407 338.361L873.444 335.882L872.85 335.234L872.255 334.562L872.515 333.589C873.314 330.809 875.226 328.4 877.157 327.797C877.844 327.589 879.032 327.774 879.682 328.191Z" fill="black"/>
<path d="M907.792 329.859C903.521 331.434 901.349 335.326 902.649 339.033C903.466 341.327 903.447 341.327 904.598 338.894C906.214 335.489 907.94 333.774 910.113 333.45C912.489 333.102 913.213 334.979 912.341 339.172C911.876 341.419 911.876 342.068 912.378 342.647C913.065 343.435 913.919 343.249 915.348 342.045C916.499 341.049 916.611 340.886 916.741 339.89C916.982 338.13 916.889 335.442 916.537 334.145C916.11 332.523 914.847 330.809 913.603 330.114C912.266 329.396 909.407 329.257 907.792 329.859Z" fill="black"/>
<path d="M1030.42 361.435C1027.4 361.875 1024.61 362.779 1017.41 365.652C1015.29 366.509 1011.34 367.922 1008.61 368.825C1002.61 370.818 999.009 372.254 996.577 373.598C994.72 374.617 991.638 376.98 991.972 377.119C992.307 377.258 999.065 375.775 1002.83 374.733C1004.88 374.177 1008.44 373.134 1010.72 372.416C1013.01 371.698 1017.35 370.447 1020.38 369.613C1023.41 368.779 1026.9 367.69 1028.16 367.181C1030.89 366.069 1033.64 364.377 1035.16 362.895L1036.25 361.783L1035.73 361.621C1034.82 361.319 1031.87 361.204 1030.42 361.435Z" fill="black"/>
<path d="M1025.87 372.463C1014.94 373.25 1005.43 375.613 998.6 379.227C996.539 380.316 993.754 382.216 993.903 382.424C993.959 382.471 996.855 381.938 1000.36 381.243C1014.94 378.324 1021.81 377.235 1027.45 376.957C1031.91 376.725 1033.38 376.378 1034.88 375.196C1035.57 374.664 1036.74 373.135 1036.74 372.787C1036.74 372.671 1036.42 372.532 1036.05 372.44C1035.36 372.301 1027.79 372.324 1025.87 372.463Z" fill="black"/>
<path d="M901.665 379.135C901.164 379.32 900.681 379.459 900.625 379.482C900.309 379.505 898.731 381.498 898.416 382.285C898.007 383.235 897.952 383.513 898.193 383.328C898.267 383.282 899.065 383.096 899.938 382.957C902.723 382.494 904.357 383.258 905.118 385.367C905.415 386.201 905.415 386.386 905.174 387.127C904.803 388.286 903.466 389.745 902.222 390.324C900.792 391.019 900.309 390.996 900.179 390.255C900.124 389.93 900.031 389.398 899.975 389.05C899.827 388.1 899.567 387.822 898.861 387.822C898.23 387.822 897.673 388.309 897.673 388.888C897.673 389.073 897.45 389.49 897.19 389.838C896.745 390.394 896.726 390.486 896.93 391.598C897.302 393.799 898.063 394.819 899.678 395.259C901.646 395.768 905.322 394.077 907.458 391.645C908.46 390.533 908.59 390.255 908.794 389.073C909.091 387.174 909.054 385.992 908.627 384.324C907.847 381.197 906.028 379.366 903.336 378.926C902.927 378.857 902.185 378.949 901.665 379.135Z" fill="black"/>
<path d="M1023.37 384.741C1009.46 385.389 999.102 387.706 992.641 391.644C990.858 392.733 988.742 394.378 989.614 394.007C990.543 393.614 994.794 392.617 997.245 392.224C1000.77 391.668 1004.88 391.366 1012.69 391.065C1023.02 390.671 1027.04 390.231 1032.17 388.98C1035.9 388.054 1037.05 387.289 1037.39 385.482L1037.5 384.88L1035.51 384.741C1033.65 384.579 1026.49 384.602 1023.37 384.741Z" fill="black"/>
<path d="M970.082 391.089C967.91 391.552 966.555 393.081 966.555 395.05C966.555 396.417 967.353 396.51 969.637 395.421C971.363 394.61 971.828 394.679 972.403 395.791C972.682 396.301 972.682 396.417 972.403 397.251C971.958 398.548 971.252 399.359 969.804 400.263L968.504 401.05L968.133 400.425C967.297 399.012 966.796 398.432 966.091 398.131C965.385 397.83 965.348 397.853 965.199 398.317C965.107 398.595 965.069 399.73 965.107 400.842C965.162 402.996 965.385 403.622 966.443 404.595C966.87 404.989 967.223 405.081 968.467 405.081C969.804 405.081 970.138 404.989 971.252 404.317C971.958 403.877 973.034 402.95 973.703 402.139C976.581 398.78 976.896 394.842 974.538 391.737C973.851 390.834 973.851 390.834 972.477 390.857C971.716 390.88 970.639 390.973 970.082 391.089Z" fill="black"/>
<path d="M1014.55 394.795C1010.2 395.143 1004.58 396.301 1001.76 397.413L1000.46 397.923L1006.66 398.664C1013.45 399.475 1014.21 399.544 1019.84 399.869C1023.96 400.124 1027.47 399.915 1029.42 399.29C1030.7 398.873 1032.95 397.529 1032.89 397.205C1032.86 396.857 1030.4 395.977 1028.01 395.467C1024.07 394.61 1019.45 394.378 1014.55 394.795Z" fill="black"/>
<path d="M1017.06 402.556C1015.37 402.741 1011.19 403.251 1007.77 403.691C1004.36 404.131 1000.74 404.572 999.733 404.641L997.895 404.803L998.006 405.498C998.229 406.935 998.842 407.328 1001.66 407.977C1007.72 409.321 1017.15 409.02 1027.36 407.143C1030.55 406.541 1033.52 405.823 1033.71 405.568C1033.95 405.267 1033.47 403.714 1033.02 403.321C1031.83 402.209 1023.93 401.838 1017.06 402.556Z" fill="black"/>
<path d="M808.387 428.155C804.859 429.012 801.517 431.931 800.143 435.383C799.401 437.213 799.029 439.368 799.141 441.013C799.271 442.681 799.865 444.789 800.608 446.156L801.146 447.129L801.833 446.55C802.761 445.762 803.337 445.808 805.936 446.897C808.461 447.963 809.519 448.055 810.782 447.337C812.434 446.411 813.493 444.58 814.031 441.754C814.18 440.943 814.384 438.372 814.495 436.009C814.588 433.646 814.718 431.236 814.774 430.611C814.848 429.522 814.848 429.522 814.087 429.036C812.583 428.086 810.206 427.715 808.387 428.155ZM810.912 435.128C810.801 437.746 810.411 440.017 809.687 442.102L809.315 443.19H808.22C806.902 443.19 805.75 442.542 803.782 440.665C802.538 439.484 802.483 439.368 802.631 438.742C803.318 435.754 805.361 433.97 809.204 432.997C810.132 432.765 810.912 432.557 810.949 432.557C810.986 432.534 810.968 433.715 810.912 435.128Z" fill="black"/>
<path d="M862.025 430.194C861.468 430.379 861.023 431.422 861.171 432.186C861.227 432.464 861.784 433.252 862.397 433.924C863.548 435.175 864.068 436.102 864.068 436.889C864.068 437.607 863.009 439.206 862.192 439.739C861.301 440.295 859.612 440.434 859.166 439.97C858.758 439.53 858.776 437.329 859.222 435.754C859.723 433.924 859.816 432.766 859.556 431.839C859.352 431.121 859.259 431.028 858.776 431.098C855.341 431.538 854.19 440.411 857.087 444.025C857.774 444.882 857.978 444.998 859.259 445.229C862.341 445.808 864.773 444.534 866.259 441.615C868.208 437.793 867.558 432.256 864.959 430.727C864.049 430.171 862.712 429.939 862.025 430.194Z" fill="black"/>
<path d="M895.445 438.279C894.981 438.511 893.867 439.298 892.939 440.04C890.432 442.032 889.095 442.38 887.61 441.43C887.332 441.244 887.072 441.105 887.016 441.105C886.793 441.105 886.533 442.959 886.533 444.511C886.533 446.874 887.034 448.449 888.223 449.77C889.392 451.09 890.655 451.623 892.474 451.6C897.209 451.554 900.774 446.99 900.607 441.221L900.551 439.391L899.641 438.696C898.49 437.793 896.745 437.63 895.445 438.279ZM896.745 442.843C896.745 442.912 896.578 443.353 896.392 443.839C895.909 444.997 894.777 446.318 893.774 446.874C892.902 447.36 891.639 447.523 891.472 447.152C891.286 446.804 892.512 444.974 893.477 444.163C894.591 443.237 896.745 442.356 896.745 442.843Z" fill="black"/>
<path d="M838.446 453.893C826.545 455.677 819.62 457.67 815.609 460.473L814.774 461.052L815.981 460.936C818.506 460.681 825.784 460.079 832.041 459.639C840.841 458.99 844.87 458.527 850.421 457.531L851.888 457.253L851.015 456.257C850.069 455.191 848.732 454.473 846.801 453.94C845.446 453.592 840.692 453.546 838.446 453.893Z" fill="black"/>
<path d="M838.353 460.936C833.414 461.585 828.866 462.674 825.635 463.948C824.502 464.388 823.593 464.805 823.63 464.851C823.667 464.898 825.449 465.129 827.584 465.315C832.894 465.847 843.682 466.033 846.745 465.685C848.954 465.43 851.888 464.805 853.206 464.318L853.763 464.11L852.853 463.392C851.851 462.604 850.365 461.909 848.379 461.353C847.098 461.006 840.117 460.704 838.353 460.936Z" fill="black"/>
<path d="M832.171 335.465C827.77 336.23 825.412 338.547 824.985 342.578C824.503 347.072 827.455 351.867 831.521 353.188C832.969 353.651 833.897 353.628 835.401 353.049C836.441 352.655 836.831 352.331 837.759 351.196C838.353 350.454 838.817 349.69 838.78 349.528C838.595 348.879 837.573 348.578 834.696 348.416C833.099 348.3 831.446 348.114 831.038 347.975C830.054 347.651 829.237 346.771 828.959 345.728C828.699 344.732 828.847 341.883 829.163 341.767C829.293 341.697 829.664 341.373 829.998 341.002C830.704 340.238 831.502 340.145 833.916 340.585C835.011 340.794 835.624 340.794 836.626 340.562L837.926 340.284L838.539 341.025C838.929 341.489 839.374 342.462 839.746 343.69C840.395 345.775 841.008 346.701 841.955 347.049C842.549 347.257 842.568 347.257 843.05 345.937C843.775 344.037 843.756 341.581 843.05 340.052C842.122 338.106 840.451 336.763 837.889 335.952C836.181 335.419 833.73 335.211 832.171 335.465Z" fill="black"/>
<path d="M802.279 348.114C798.435 349.388 795.558 353.141 795.558 356.848V358.03L796.727 356.64C798.992 353.883 801.09 352.192 803.318 351.358C804.247 351.033 804.358 351.033 804.785 351.381C805.064 351.612 805.806 352.817 806.456 354.068C807.403 355.875 807.774 356.408 808.331 356.709C808.925 357.033 809.111 357.033 809.761 356.755L810.504 356.431L810.448 355.157C810.244 350.408 808.127 347.72 804.599 347.767C803.857 347.767 802.817 347.929 802.279 348.114Z" fill="black"/>
<path d="M806.605 361.505C804.005 362.547 801.722 365.42 800.459 369.289C799.846 371.165 799.865 371.235 800.831 371.096C802.037 370.91 803.17 370.146 804.6 368.501C806.233 366.648 806.66 366.277 807.292 366.277C807.663 366.277 807.812 366.393 807.812 366.671C807.793 367.482 806.79 369.405 805.992 370.076C805.305 370.679 804.971 370.795 803.82 370.864C802.483 370.957 802.446 370.98 802.26 371.675C801.963 372.694 802 373.111 802.52 374.385L802.984 375.544H803.987C804.544 375.544 805.491 375.358 806.122 375.104C810.429 373.436 812.49 368.501 811.321 362.663C811.116 361.713 811.079 361.667 810.188 361.435C809 361.111 807.533 361.134 806.605 361.505Z" fill="black"/>
<path d="M776.267 367.436C773.723 368.107 771.588 369.497 770.177 371.42C769.007 373.019 768.599 374.223 768.487 376.239L768.395 377.976L770.325 375.66C772.98 372.44 774.614 371.443 777.733 371.026C779.145 370.864 779.794 371.119 780.24 372.092C780.574 372.787 780.63 373.413 780.704 377.397C780.816 382.471 780.964 383.143 782.078 383.814C782.672 384.162 782.746 384.162 783.266 383.675C785.16 382.007 785.271 376.911 783.545 371.536C782.616 368.571 782.282 367.945 781.484 367.667C780.537 367.32 777.269 367.181 776.267 367.436Z" fill="black"/>
<path d="M768.023 380.224C766.705 382.448 766.947 384.903 768.636 386.733C770.233 388.425 772.758 388.888 774.466 387.822C775.487 387.174 775.951 386.502 776.341 385.135L776.583 384.231L773.463 384.162L770.344 384.116L770.066 383.351C769.899 382.957 769.602 382.031 769.379 381.289C768.84 379.459 768.599 379.274 768.023 380.224Z" fill="black"/>
<path d="M803.968 380.061C801.61 380.872 799.661 382.772 798.732 385.088C798.064 386.733 798.027 387.127 798.51 387.127C799.048 387.127 800.998 386.316 803.263 385.158L805.305 384.115L805.435 384.787C805.546 385.297 805.788 385.552 806.53 385.922L807.459 386.409L808.294 385.459C808.758 384.926 809.26 384.208 809.408 383.86C809.909 382.633 809.65 380.409 808.944 380.038C808.294 379.714 804.934 379.714 803.968 380.061Z" fill="black"/>
<path d="M789.226 387.683C785.513 389.305 783.118 393.66 782.802 399.29L782.709 401.143L783.285 401.537C783.619 401.769 784.009 402.255 784.176 402.626C784.789 403.946 786.85 403.738 790.303 402.047C791.473 401.467 792.457 401.027 792.475 401.074C792.494 401.12 792.661 401.421 792.828 401.769C793.459 403.043 795.465 403.784 797.061 403.367C798.342 403.02 799.029 402.371 799.289 401.259C799.568 400.124 799.456 399.915 797.748 398.687C796.337 397.668 795.743 396.718 795.743 395.514V394.772H794.741C793.404 394.772 792.531 395.189 790.619 396.765C789.486 397.691 788.781 398.108 788.224 398.201C787.203 398.34 786.46 398.108 786.46 397.668C786.46 396.718 787.388 394.494 788.688 392.363C789.95 390.232 790.73 388.378 790.73 387.428C790.73 387.035 790.674 387.035 789.226 387.683Z" fill="black"/>
<path d="M773.742 390.996C770.437 391.923 768.952 394.772 769.639 398.896C770.437 403.691 773.296 406.819 776.026 405.869C777.084 405.521 779.033 403.182 779.832 401.328L780.333 400.147L779.757 399.521C779.033 398.78 778.662 398.849 776.545 400.124C774.949 401.097 774.299 401.212 773.482 400.68C772.832 400.263 772.609 399.151 772.925 397.737C773.074 396.996 773.501 396.278 774.596 394.888C775.97 393.127 776.768 391.552 776.527 391.065C776.415 390.834 774.466 390.787 773.742 390.996Z" fill="black"/>
<path d="M698.102 421.367C697.823 422.016 697.526 424.379 697.638 425.19C698.009 428.016 698.25 428.364 700.497 429.244C702.966 430.24 704.86 430.541 708.573 430.541C713.401 430.565 716.297 429.777 717.894 427.993L718.599 427.205L718.005 426.534C716.743 425.074 714.626 424.819 709.298 425.491C707.627 425.7 705.287 425.815 703.913 425.769C701.017 425.676 700.905 425.607 700.311 423.36C699.754 421.321 698.585 420.255 698.102 421.367Z" fill="black"/>
<path d="M829.608 483.269C826.452 483.871 823.24 486.512 822.015 489.524C821.254 491.4 821.161 493.671 821.792 495.339C822.33 496.798 822.962 497.702 824.224 498.79L825.153 499.555L826.081 499.161C831.781 496.659 834.102 494.759 835.271 491.632C835.68 490.52 835.754 490.057 835.735 488.25C835.717 487.091 835.587 485.701 835.438 485.122C835.197 484.149 835.123 484.08 834.176 483.709C832.895 483.222 830.834 483.014 829.608 483.269ZM831.892 489.107C831.725 490.613 830.927 491.84 829.46 492.767C828.29 493.508 828.049 493.578 826.545 493.578C825.654 493.578 824.855 493.508 824.781 493.416C824.558 493.115 825.06 491.4 825.635 490.589C825.951 490.172 826.601 489.593 827.083 489.338C827.975 488.852 830.388 488.203 831.465 488.157C831.985 488.134 832.004 488.157 831.892 489.107Z" fill="black"/>
</svg>
